M48
;Layer_Color=9474304
;FILE_FORMAT=2:5
INCH,LZ
;TYPE=PLATED
T1F00S00C0.00500
T2F00S00C0.00591
T3F00S00C0.04000
%
T01
X0017704Y0003117
Y0009022
X0020671Y0006891
X0017704Y0014928
X0022373Y002389
X0022271Y0030513
X0020671Y0036419
X0019672Y0042487
Y0048392
X0019687Y0054135
X0027546Y0054298
Y0048392
Y0042487
X0035435Y004134
X003542Y0026739
X0032851Y0012741
X003913Y001381
X0045263Y0003117
X0051168
X005512Y0009844
X0052744Y0021597
X0058058Y002477
X0067901Y0019849
X0072822Y0026739
Y003855
X0064948
X0057074
X0059057Y0052167
X0064962
X0070868
X0076773
X0092507Y0054298
X0096444Y0044455
X008857
X0092507Y0036581
X0096444Y0028707
X008857
X0079726Y0005907
X0076633Y0009
X0070868Y000886
X0064962
X0059057
X0057074Y0003117
X0062979
X0068885
X007479
T02
X0047218Y0010041
X0049186Y0013781
X0045249
X0047218Y0017521
T03
X0005907Y0009686
Y0019686
Y0029686
Y0039686
Y0049686
M30
