G04*
G04 #@! TF.GenerationSoftware,Altium Limited,Altium Designer,20.2.5 (213)*
G04*
G04 Layer_Color=8421504*
%FSLAX25Y25*%
%MOIN*%
G70*
G04*
G04 #@! TF.SameCoordinates,F18023E5-EE5D-4DE6-B478-A7BB098ACCA1*
G04*
G04*
G04 #@! TF.FilePolarity,Positive*
G04*
G01*
G75*
%ADD16R,0.03200X0.04000*%
%ADD17R,0.03850X0.01800*%
%ADD18R,0.03701X0.02913*%
%ADD19R,0.02913X0.03701*%
%ADD20R,0.02362X0.01654*%
%ADD21R,0.05906X0.09449*%
%ADD22R,0.02362X0.01575*%
%ADD23R,0.04000X0.04500*%
%ADD24R,0.04000X0.03200*%
%ADD25C,0.03000*%
G36*
X70712Y28513D02*
X69712D01*
X67712Y30513D01*
X69712Y32513D01*
X70712D01*
Y28513D01*
D02*
G37*
G36*
X66712Y30513D02*
X68712Y28513D01*
X65712D01*
Y30513D01*
Y32513D01*
X68712D01*
X66712Y30513D01*
D02*
G37*
G36*
X85663Y18003D02*
X83663Y20003D01*
X81663Y18003D01*
Y21003D01*
X85663D01*
Y18003D01*
D02*
G37*
G36*
Y16919D02*
Y15919D01*
X81663D01*
Y16919D01*
X83663Y18919D01*
X85663Y16919D01*
D02*
G37*
G36*
Y10643D02*
X83663Y8643D01*
X81663Y10643D01*
Y11643D01*
X85663D01*
Y10643D01*
D02*
G37*
G36*
Y6559D02*
X81663D01*
Y9559D01*
X83663Y7559D01*
X85663Y9559D01*
Y6559D01*
D02*
G37*
D16*
X64962Y30513D02*
D03*
X71712D02*
D03*
D17*
X52621Y50001D02*
D03*
Y42521D02*
D03*
X41871D02*
D03*
Y46261D02*
D03*
Y50001D02*
D03*
D18*
X35435Y49294D02*
D03*
Y44176D02*
D03*
X59057Y49296D02*
D03*
Y44178D02*
D03*
Y11221D02*
D03*
Y16339D02*
D03*
X64962Y49296D02*
D03*
Y44178D02*
D03*
X70868Y49296D02*
D03*
Y44178D02*
D03*
X76773Y49296D02*
D03*
Y44178D02*
D03*
X76773Y16339D02*
D03*
Y11221D02*
D03*
X70868Y16339D02*
D03*
Y11221D02*
D03*
X64962Y16339D02*
D03*
Y11221D02*
D03*
D19*
X30120Y6891D02*
D03*
X25002D02*
D03*
X25002Y12797D02*
D03*
X30120D02*
D03*
X25002Y30513D02*
D03*
X30120D02*
D03*
X30120Y36419D02*
D03*
X25002D02*
D03*
X44660Y26576D02*
D03*
X49778D02*
D03*
X49776Y32482D02*
D03*
X44658D02*
D03*
D20*
X31301Y19096D02*
D03*
Y21655D02*
D03*
Y24214D02*
D03*
X23821D02*
D03*
Y21655D02*
D03*
Y19096D02*
D03*
D21*
X47218Y13781D02*
D03*
D22*
X52730Y9844D02*
D03*
Y13781D02*
D03*
Y17718D02*
D03*
X41706Y13781D02*
D03*
Y17718D02*
D03*
Y9844D02*
D03*
D23*
X83663Y13767D02*
D03*
D24*
Y5808D02*
D03*
Y21753D02*
D03*
D25*
Y44293D02*
D03*
M02*
