G04*
G04 #@! TF.GenerationSoftware,Altium Limited,Altium Designer,20.2.5 (213)*
G04*
G04 Layer_Color=32896*
%FSLAX25Y25*%
%MOIN*%
G70*
G04*
G04 #@! TF.SameCoordinates,F18023E5-EE5D-4DE6-B478-A7BB098ACCA1*
G04*
G04*
G04 #@! TF.FilePolarity,Positive*
G04*
G01*
G75*
G36*
X84154Y39510D02*
X83034D01*
Y39488D01*
X83011D01*
Y39466D01*
X82989D01*
Y39443D01*
X82966D01*
Y39421D01*
X82944D01*
Y39398D01*
X82921D01*
Y39376D01*
X82899D01*
Y39353D01*
X82876D01*
Y39331D01*
X82854D01*
Y39309D01*
X82832D01*
Y39286D01*
X82809D01*
Y39264D01*
Y39241D01*
Y39219D01*
Y39197D01*
Y39174D01*
Y39152D01*
Y39129D01*
Y39107D01*
Y39085D01*
Y39062D01*
Y39040D01*
Y39017D01*
Y38995D01*
Y38972D01*
Y38950D01*
Y38928D01*
Y38905D01*
Y38883D01*
Y38860D01*
Y38838D01*
Y38816D01*
Y38793D01*
Y38771D01*
Y38748D01*
Y38726D01*
Y38703D01*
Y38681D01*
Y38659D01*
Y38636D01*
Y38614D01*
Y38591D01*
Y38569D01*
Y38547D01*
Y38524D01*
Y38502D01*
Y38479D01*
Y38457D01*
Y38434D01*
Y38412D01*
Y38390D01*
Y38367D01*
Y38345D01*
Y38322D01*
Y38300D01*
Y38278D01*
Y38255D01*
Y38233D01*
Y38210D01*
Y38188D01*
Y38166D01*
Y38143D01*
Y38121D01*
Y38098D01*
Y38076D01*
Y38053D01*
Y38031D01*
Y38009D01*
Y37986D01*
Y37964D01*
Y37941D01*
Y37919D01*
Y37896D01*
Y37874D01*
Y37852D01*
Y37829D01*
Y37807D01*
Y37784D01*
Y37762D01*
Y37740D01*
Y37717D01*
Y37695D01*
Y37672D01*
Y37650D01*
Y37628D01*
Y37605D01*
Y37583D01*
Y37560D01*
Y37538D01*
Y37515D01*
Y37493D01*
Y37471D01*
Y37448D01*
Y37426D01*
Y37403D01*
Y37381D01*
Y37358D01*
Y37336D01*
Y37314D01*
Y37291D01*
Y37269D01*
Y37246D01*
Y37224D01*
Y37202D01*
Y37179D01*
Y37157D01*
Y37134D01*
Y37112D01*
Y37089D01*
Y37067D01*
Y37045D01*
Y37022D01*
Y37000D01*
Y36977D01*
Y36955D01*
Y36933D01*
Y36910D01*
Y36888D01*
Y36865D01*
Y36843D01*
Y36821D01*
Y36798D01*
Y36776D01*
Y36753D01*
Y36731D01*
Y36708D01*
Y36686D01*
Y36664D01*
Y36641D01*
Y36619D01*
Y36596D01*
Y36574D01*
Y36551D01*
Y36529D01*
Y36507D01*
Y36484D01*
Y36462D01*
Y36439D01*
Y36417D01*
Y36395D01*
Y36372D01*
Y36350D01*
Y36327D01*
Y36305D01*
Y36283D01*
Y36260D01*
Y36238D01*
Y36215D01*
Y36193D01*
Y36170D01*
Y36148D01*
Y36126D01*
Y36103D01*
Y36081D01*
Y36058D01*
Y36036D01*
Y36013D01*
Y35991D01*
Y35969D01*
Y35946D01*
Y35924D01*
Y35901D01*
Y35879D01*
Y35857D01*
Y35834D01*
Y35812D01*
Y35789D01*
Y35767D01*
Y35745D01*
Y35722D01*
Y35700D01*
Y35677D01*
Y35655D01*
Y35632D01*
Y35610D01*
Y35588D01*
Y35565D01*
Y35543D01*
Y35520D01*
Y35498D01*
Y35476D01*
Y35453D01*
Y35431D01*
Y35408D01*
Y35386D01*
Y35363D01*
Y35341D01*
Y35319D01*
Y35296D01*
Y35274D01*
Y35251D01*
Y35229D01*
Y35206D01*
Y35184D01*
Y35162D01*
Y35139D01*
Y35117D01*
Y35094D01*
Y35072D01*
Y35050D01*
Y35027D01*
Y35005D01*
Y34982D01*
Y34960D01*
Y34938D01*
Y34915D01*
Y34893D01*
Y34870D01*
Y34848D01*
Y34825D01*
Y34803D01*
Y34781D01*
Y34758D01*
Y34736D01*
Y34713D01*
Y34691D01*
Y34668D01*
Y34646D01*
Y34624D01*
Y34601D01*
Y34579D01*
Y34556D01*
Y34534D01*
Y34512D01*
Y34489D01*
Y34467D01*
Y34444D01*
Y34422D01*
Y34400D01*
Y34377D01*
Y34355D01*
Y34332D01*
Y34310D01*
Y34287D01*
Y34265D01*
X82787D01*
Y34287D01*
X82765D01*
Y34310D01*
Y34332D01*
X82742D01*
Y34355D01*
Y34377D01*
X82720D01*
Y34400D01*
Y34422D01*
X82697D01*
Y34444D01*
X82675D01*
Y34467D01*
Y34489D01*
X82652D01*
Y34512D01*
Y34534D01*
X82630D01*
Y34556D01*
Y34579D01*
X82608D01*
Y34601D01*
Y34624D01*
X82585D01*
Y34646D01*
X82563D01*
Y34668D01*
Y34691D01*
X82540D01*
Y34713D01*
Y34736D01*
X82518D01*
Y34758D01*
Y34781D01*
X82495D01*
Y34803D01*
Y34825D01*
X82473D01*
Y34848D01*
Y34870D01*
X82451D01*
Y34893D01*
X82428D01*
Y34915D01*
Y34938D01*
X82406D01*
Y34960D01*
Y34982D01*
X82383D01*
Y35005D01*
Y35027D01*
X82361D01*
Y35050D01*
Y35072D01*
X82339D01*
Y35094D01*
Y35117D01*
X82316D01*
Y35139D01*
Y35162D01*
X82294D01*
Y35184D01*
X82271D01*
Y35206D01*
Y35229D01*
X82249D01*
Y35251D01*
Y35274D01*
X82227D01*
Y35296D01*
Y35319D01*
X82204D01*
Y35341D01*
Y35363D01*
X82182D01*
Y35386D01*
Y35408D01*
X82159D01*
Y35431D01*
Y35453D01*
X82137D01*
Y35476D01*
X82114D01*
Y35498D01*
Y35520D01*
X82092D01*
Y35543D01*
Y35565D01*
X82070D01*
Y35588D01*
Y35610D01*
X82047D01*
Y35632D01*
Y35655D01*
X82025D01*
Y35677D01*
Y35700D01*
X82002D01*
Y35722D01*
X81980D01*
Y35745D01*
Y35767D01*
X81958D01*
Y35789D01*
Y35812D01*
X81935D01*
Y35834D01*
Y35857D01*
X81913D01*
Y35879D01*
Y35901D01*
X81890D01*
Y35924D01*
Y35946D01*
X81868D01*
Y35969D01*
Y35991D01*
X81845D01*
Y36013D01*
X81823D01*
Y36036D01*
Y36058D01*
X81801D01*
Y36081D01*
Y36103D01*
X81778D01*
Y36126D01*
Y36148D01*
X81756D01*
Y36170D01*
Y36193D01*
X81733D01*
Y36215D01*
Y36238D01*
X81711D01*
Y36260D01*
Y36283D01*
X81688D01*
Y36305D01*
X81666D01*
Y36327D01*
Y36350D01*
X81644D01*
Y36372D01*
Y36395D01*
X81621D01*
Y36417D01*
Y36439D01*
X81599D01*
Y36462D01*
Y36484D01*
X81576D01*
Y36507D01*
Y36529D01*
X81554D01*
Y36551D01*
Y36574D01*
X81532D01*
Y36596D01*
X81509D01*
Y36619D01*
Y36641D01*
X81487D01*
Y36664D01*
Y36686D01*
X81464D01*
Y36708D01*
Y36731D01*
X81442D01*
Y36753D01*
Y36776D01*
X81419D01*
Y36798D01*
Y36821D01*
X81397D01*
Y36843D01*
X81375D01*
Y36865D01*
Y36888D01*
X81352D01*
Y36910D01*
Y36933D01*
X81330D01*
Y36955D01*
Y36977D01*
X81307D01*
Y37000D01*
Y37022D01*
X81285D01*
Y37045D01*
Y37067D01*
X81263D01*
Y37089D01*
Y37112D01*
X81240D01*
Y37134D01*
X81218D01*
Y37157D01*
Y37179D01*
X81195D01*
Y37202D01*
Y37224D01*
X81173D01*
Y37246D01*
Y37269D01*
X81151D01*
Y37291D01*
Y37314D01*
X81128D01*
Y37336D01*
Y37358D01*
X81106D01*
Y37381D01*
Y37403D01*
X81083D01*
Y37426D01*
X81061D01*
Y37448D01*
Y37471D01*
X81038D01*
Y37493D01*
Y37515D01*
X81016D01*
Y37538D01*
Y37560D01*
X80994D01*
Y37583D01*
Y37605D01*
X80971D01*
Y37628D01*
Y37650D01*
X80949D01*
Y37672D01*
Y37695D01*
X80926D01*
Y37717D01*
X80904D01*
Y37740D01*
Y37762D01*
X80882D01*
Y37784D01*
Y37807D01*
X80859D01*
Y37829D01*
Y37852D01*
X80837D01*
Y37874D01*
Y37896D01*
X80814D01*
Y37919D01*
Y37941D01*
X80792D01*
Y37964D01*
Y37986D01*
X80769D01*
Y38009D01*
X80747D01*
Y38031D01*
Y38053D01*
X80725D01*
Y38076D01*
Y38098D01*
X80702D01*
Y38121D01*
Y38143D01*
X80680D01*
Y38166D01*
Y38188D01*
X80657D01*
Y38210D01*
Y38233D01*
X80635D01*
Y38255D01*
X80612D01*
Y38278D01*
Y38300D01*
X80590D01*
Y38322D01*
Y38345D01*
X80568D01*
Y38367D01*
Y38390D01*
X80545D01*
Y38412D01*
Y38434D01*
X80523D01*
Y38457D01*
Y38479D01*
X80500D01*
Y38502D01*
Y38524D01*
X80478D01*
Y38547D01*
X80456D01*
Y38569D01*
Y38591D01*
X80433D01*
Y38614D01*
Y38636D01*
X80411D01*
Y38659D01*
Y38681D01*
X80388D01*
Y38703D01*
Y38726D01*
X80366D01*
Y38748D01*
Y38771D01*
X80344D01*
Y38793D01*
Y38816D01*
X80321D01*
Y38838D01*
X80299D01*
Y38860D01*
Y38883D01*
X80276D01*
Y38905D01*
Y38928D01*
X80254D01*
Y38950D01*
Y38972D01*
X80231D01*
Y38995D01*
Y39017D01*
X80209D01*
Y39040D01*
Y39062D01*
X80187D01*
Y39085D01*
Y39107D01*
X80164D01*
Y39129D01*
X80142D01*
Y39152D01*
Y39174D01*
X80119D01*
Y39197D01*
Y39219D01*
X80097D01*
Y39241D01*
Y39264D01*
X80075D01*
Y39286D01*
Y39309D01*
X80052D01*
Y39331D01*
Y39353D01*
X80030D01*
Y39376D01*
X80007D01*
Y39398D01*
Y39421D01*
X79985D01*
Y39443D01*
Y39466D01*
X79962D01*
Y39488D01*
Y39510D01*
X78438D01*
Y39488D01*
X78416D01*
Y39466D01*
Y39443D01*
X78393D01*
Y39421D01*
Y39398D01*
X78371D01*
Y39376D01*
X78348D01*
Y39353D01*
Y39331D01*
X78326D01*
Y39309D01*
Y39286D01*
X78304D01*
Y39264D01*
Y39241D01*
X78281D01*
Y39219D01*
X78259D01*
Y39197D01*
Y39174D01*
Y39152D01*
Y39129D01*
X78281D01*
Y39107D01*
Y39085D01*
X78304D01*
Y39062D01*
Y39040D01*
X78326D01*
Y39017D01*
Y38995D01*
X78348D01*
Y38972D01*
Y38950D01*
X78371D01*
Y38928D01*
X78393D01*
Y38905D01*
Y38883D01*
X78416D01*
Y38860D01*
Y38838D01*
X78438D01*
Y38816D01*
Y38793D01*
X78461D01*
Y38771D01*
Y38748D01*
X78483D01*
Y38726D01*
Y38703D01*
X78505D01*
Y38681D01*
X78528D01*
Y38659D01*
Y38636D01*
X78550D01*
Y38614D01*
Y38591D01*
X78573D01*
Y38569D01*
Y38547D01*
X78595D01*
Y38524D01*
Y38502D01*
X78617D01*
Y38479D01*
Y38457D01*
X78640D01*
Y38434D01*
X78662D01*
Y38412D01*
Y38390D01*
X78685D01*
Y38367D01*
Y38345D01*
X78707D01*
Y38322D01*
Y38300D01*
X78729D01*
Y38278D01*
Y38255D01*
X78752D01*
Y38233D01*
Y38210D01*
X78774D01*
Y38188D01*
X78797D01*
Y38166D01*
Y38143D01*
X78819D01*
Y38121D01*
Y38098D01*
X78842D01*
Y38076D01*
Y38053D01*
X78864D01*
Y38031D01*
Y38009D01*
X78886D01*
Y37986D01*
Y37964D01*
X78909D01*
Y37941D01*
Y37919D01*
X78931D01*
Y37896D01*
X78954D01*
Y37874D01*
Y37852D01*
X78976D01*
Y37829D01*
Y37807D01*
X78999D01*
Y37784D01*
Y37762D01*
X79021D01*
Y37740D01*
Y37717D01*
X79043D01*
Y37695D01*
Y37672D01*
X79066D01*
Y37650D01*
X79088D01*
Y37628D01*
Y37605D01*
X79111D01*
Y37583D01*
Y37560D01*
X79133D01*
Y37538D01*
Y37515D01*
X79155D01*
Y37493D01*
Y37471D01*
X79178D01*
Y37448D01*
Y37426D01*
X79200D01*
Y37403D01*
X79223D01*
Y37381D01*
Y37358D01*
X79245D01*
Y37336D01*
Y37314D01*
X79268D01*
Y37291D01*
Y37269D01*
X79290D01*
Y37246D01*
Y37224D01*
X79312D01*
Y37202D01*
Y37179D01*
X79335D01*
Y37157D01*
X79357D01*
Y37134D01*
Y37112D01*
X79380D01*
Y37089D01*
Y37067D01*
X79402D01*
Y37045D01*
Y37022D01*
X79424D01*
Y37000D01*
Y36977D01*
X79447D01*
Y36955D01*
Y36933D01*
X79469D01*
Y36910D01*
X79492D01*
Y36888D01*
Y36865D01*
X79514D01*
Y36843D01*
Y36821D01*
X79536D01*
Y36798D01*
Y36776D01*
X79559D01*
Y36753D01*
Y36731D01*
X79581D01*
Y36708D01*
Y36686D01*
X79604D01*
Y36664D01*
X79626D01*
Y36641D01*
Y36619D01*
X79649D01*
Y36596D01*
Y36574D01*
X79671D01*
Y36551D01*
Y36529D01*
X79693D01*
Y36507D01*
Y36484D01*
X79716D01*
Y36462D01*
Y36439D01*
X79738D01*
Y36417D01*
X79761D01*
Y36395D01*
Y36372D01*
X79783D01*
Y36350D01*
Y36327D01*
X79805D01*
Y36305D01*
Y36283D01*
X79828D01*
Y36260D01*
Y36238D01*
X79850D01*
Y36215D01*
Y36193D01*
X79873D01*
Y36170D01*
Y36148D01*
X79895D01*
Y36126D01*
X79918D01*
Y36103D01*
Y36081D01*
X79940D01*
Y36058D01*
Y36036D01*
X79962D01*
Y36013D01*
Y35991D01*
X79985D01*
Y35969D01*
Y35946D01*
X80007D01*
Y35924D01*
Y35901D01*
X80030D01*
Y35879D01*
X80052D01*
Y35857D01*
Y35834D01*
X80075D01*
Y35812D01*
Y35789D01*
X80097D01*
Y35767D01*
Y35745D01*
X80119D01*
Y35722D01*
Y35700D01*
X80142D01*
Y35677D01*
Y35655D01*
X80164D01*
Y35632D01*
X80187D01*
Y35610D01*
Y35588D01*
X80209D01*
Y35565D01*
Y35543D01*
X80231D01*
Y35520D01*
Y35498D01*
X80254D01*
Y35476D01*
Y35453D01*
X80276D01*
Y35431D01*
Y35408D01*
X80299D01*
Y35386D01*
X80321D01*
Y35363D01*
Y35341D01*
X80344D01*
Y35319D01*
Y35296D01*
X80366D01*
Y35274D01*
Y35251D01*
X80388D01*
Y35229D01*
Y35206D01*
X80411D01*
Y35184D01*
Y35162D01*
X80433D01*
Y35139D01*
X80456D01*
Y35117D01*
Y35094D01*
X80478D01*
Y35072D01*
Y35050D01*
X80500D01*
Y35027D01*
Y35005D01*
X80523D01*
Y34982D01*
Y34960D01*
X80545D01*
Y34938D01*
Y34915D01*
X80568D01*
Y34893D01*
X80590D01*
Y34870D01*
Y34848D01*
X80612D01*
Y34825D01*
Y34803D01*
X80635D01*
Y34781D01*
Y34758D01*
X80657D01*
Y34736D01*
Y34713D01*
X80680D01*
Y34691D01*
Y34668D01*
X80702D01*
Y34646D01*
X80725D01*
Y34624D01*
Y34601D01*
X80747D01*
Y34579D01*
Y34556D01*
X80769D01*
Y34534D01*
Y34512D01*
X80792D01*
Y34489D01*
Y34467D01*
X80814D01*
Y34444D01*
Y34422D01*
X80837D01*
Y34400D01*
X80859D01*
Y34377D01*
Y34355D01*
X80882D01*
Y34332D01*
Y34310D01*
X80904D01*
Y34287D01*
Y34265D01*
X80926D01*
Y34243D01*
Y34220D01*
X80949D01*
Y34198D01*
Y34175D01*
X80971D01*
Y34153D01*
Y34130D01*
X80994D01*
Y34108D01*
X81016D01*
Y34086D01*
Y34063D01*
X81038D01*
Y34041D01*
Y34018D01*
X81061D01*
Y33996D01*
Y33974D01*
X81083D01*
Y33951D01*
Y33929D01*
X81106D01*
Y33906D01*
Y33884D01*
X81128D01*
Y33862D01*
X81151D01*
Y33839D01*
Y33817D01*
X81173D01*
Y33794D01*
Y33772D01*
X81195D01*
Y33749D01*
Y33727D01*
X81218D01*
Y33705D01*
Y33682D01*
X81240D01*
Y33660D01*
Y33637D01*
X81263D01*
Y33615D01*
X81240D01*
Y33593D01*
Y33570D01*
X81218D01*
Y33548D01*
Y33525D01*
X81195D01*
Y33503D01*
Y33480D01*
Y33458D01*
X81173D01*
Y33436D01*
Y33413D01*
X81151D01*
Y33391D01*
Y33368D01*
X81128D01*
Y33346D01*
Y33323D01*
X81106D01*
Y33301D01*
Y33279D01*
X81083D01*
Y33256D01*
Y33234D01*
X81061D01*
Y33211D01*
Y33189D01*
X81038D01*
Y33167D01*
Y33144D01*
X81016D01*
Y33122D01*
Y33099D01*
Y33077D01*
X80994D01*
Y33055D01*
Y33032D01*
X80971D01*
Y33010D01*
Y32987D01*
X80949D01*
Y32965D01*
Y32942D01*
X80926D01*
Y32920D01*
Y32898D01*
X80904D01*
Y32875D01*
Y32853D01*
X80882D01*
Y32830D01*
Y32808D01*
X80859D01*
Y32785D01*
Y32763D01*
X80837D01*
Y32741D01*
Y32718D01*
Y32696D01*
X80814D01*
Y32673D01*
Y32651D01*
X80792D01*
Y32629D01*
Y32606D01*
X80769D01*
Y32584D01*
Y32561D01*
X80747D01*
Y32539D01*
Y32517D01*
X80725D01*
Y32494D01*
Y32472D01*
X80702D01*
Y32449D01*
Y32427D01*
X80680D01*
Y32405D01*
Y32382D01*
X80657D01*
Y32360D01*
Y32337D01*
Y32315D01*
X80635D01*
Y32292D01*
Y32270D01*
X80612D01*
Y32248D01*
Y32225D01*
X80590D01*
Y32203D01*
Y32180D01*
X80568D01*
Y32158D01*
Y32135D01*
X80545D01*
Y32113D01*
Y32091D01*
X80523D01*
Y32068D01*
Y32046D01*
X80500D01*
Y32023D01*
Y32001D01*
X80478D01*
Y31979D01*
Y31956D01*
Y31934D01*
X80456D01*
Y31911D01*
Y31889D01*
X80433D01*
Y31866D01*
Y31844D01*
X80411D01*
Y31822D01*
Y31799D01*
X80388D01*
Y31777D01*
Y31754D01*
X80366D01*
Y31732D01*
Y31710D01*
X80344D01*
Y31687D01*
Y31665D01*
X80321D01*
Y31642D01*
Y31620D01*
X80299D01*
Y31598D01*
Y31575D01*
X80276D01*
Y31553D01*
Y31530D01*
Y31508D01*
X80254D01*
Y31485D01*
Y31463D01*
X80231D01*
Y31441D01*
Y31418D01*
X80209D01*
Y31396D01*
Y31373D01*
X80187D01*
Y31351D01*
Y31328D01*
X80164D01*
Y31306D01*
Y31284D01*
X80142D01*
Y31261D01*
Y31239D01*
X80119D01*
Y31216D01*
Y31194D01*
X80097D01*
Y31172D01*
Y31149D01*
Y31127D01*
X80075D01*
Y31104D01*
Y31082D01*
X80052D01*
Y31060D01*
Y31037D01*
X80030D01*
Y31015D01*
Y30992D01*
X80007D01*
Y30970D01*
Y30947D01*
X79985D01*
Y30925D01*
Y30903D01*
X79962D01*
Y30880D01*
Y30858D01*
X79940D01*
Y30835D01*
Y30813D01*
X79918D01*
Y30790D01*
Y30768D01*
Y30746D01*
X79895D01*
Y30723D01*
Y30701D01*
X79873D01*
Y30678D01*
Y30656D01*
X79850D01*
Y30634D01*
Y30611D01*
X79828D01*
Y30589D01*
Y30566D01*
X79805D01*
Y30544D01*
Y30522D01*
X79783D01*
Y30499D01*
Y30477D01*
X79761D01*
Y30454D01*
Y30432D01*
X79738D01*
Y30409D01*
Y30387D01*
Y30365D01*
X79716D01*
Y30342D01*
Y30320D01*
X79693D01*
Y30297D01*
Y30275D01*
X79671D01*
Y30253D01*
Y30230D01*
X79649D01*
Y30208D01*
Y30185D01*
X79626D01*
Y30163D01*
Y30140D01*
X79604D01*
Y30118D01*
Y30096D01*
X79581D01*
Y30073D01*
Y30051D01*
X79559D01*
Y30028D01*
Y30006D01*
Y29983D01*
X79536D01*
Y29961D01*
Y29939D01*
X79514D01*
Y29916D01*
Y29894D01*
X79492D01*
Y29871D01*
Y29849D01*
X79469D01*
Y29827D01*
Y29804D01*
X79447D01*
Y29782D01*
Y29759D01*
X79424D01*
Y29737D01*
Y29715D01*
X79402D01*
Y29692D01*
Y29670D01*
X79380D01*
Y29647D01*
Y29625D01*
Y29602D01*
X79357D01*
Y29580D01*
Y29558D01*
X79335D01*
Y29535D01*
Y29513D01*
X79312D01*
Y29490D01*
Y29468D01*
X79290D01*
Y29445D01*
Y29423D01*
X79268D01*
Y29401D01*
Y29378D01*
X79245D01*
Y29356D01*
Y29333D01*
X79223D01*
Y29311D01*
Y29289D01*
X79200D01*
Y29266D01*
Y29244D01*
X79178D01*
Y29221D01*
Y29199D01*
Y29177D01*
X79155D01*
Y29154D01*
Y29132D01*
X79133D01*
Y29109D01*
Y29087D01*
X79111D01*
Y29064D01*
Y29042D01*
X79088D01*
Y29020D01*
Y28997D01*
X79066D01*
Y28975D01*
Y28952D01*
X79043D01*
Y28930D01*
Y28907D01*
X79021D01*
Y28885D01*
Y28863D01*
X78999D01*
Y28840D01*
Y28818D01*
Y28795D01*
X78976D01*
Y28773D01*
Y28751D01*
X78954D01*
Y28728D01*
Y28706D01*
X78931D01*
Y28683D01*
Y28661D01*
X78909D01*
Y28638D01*
Y28616D01*
X78886D01*
Y28594D01*
Y28571D01*
X78864D01*
Y28549D01*
Y28526D01*
X78842D01*
Y28504D01*
Y28482D01*
X78819D01*
Y28459D01*
Y28437D01*
Y28414D01*
X78797D01*
Y28392D01*
Y28370D01*
X78774D01*
Y28347D01*
Y28325D01*
X78752D01*
Y28302D01*
Y28280D01*
X78729D01*
Y28257D01*
Y28235D01*
X78707D01*
Y28213D01*
Y28190D01*
X78685D01*
Y28168D01*
Y28145D01*
X78662D01*
Y28123D01*
Y28100D01*
X78640D01*
Y28078D01*
Y28056D01*
Y28033D01*
X78617D01*
Y28011D01*
Y27988D01*
X78595D01*
Y27966D01*
Y27944D01*
X78573D01*
Y27921D01*
Y27899D01*
X78550D01*
Y27876D01*
Y27854D01*
X78528D01*
Y27832D01*
Y27809D01*
X78505D01*
Y27787D01*
Y27764D01*
X78483D01*
Y27742D01*
Y27719D01*
X78461D01*
Y27697D01*
Y27675D01*
Y27652D01*
X78438D01*
Y27630D01*
Y27607D01*
X78416D01*
Y27585D01*
Y27562D01*
X78393D01*
Y27540D01*
Y27518D01*
X78371D01*
Y27495D01*
Y27473D01*
X78348D01*
Y27450D01*
Y27428D01*
X78326D01*
Y27406D01*
Y27383D01*
X78304D01*
Y27361D01*
Y27338D01*
X78281D01*
Y27316D01*
Y27294D01*
X78259D01*
Y27271D01*
Y27249D01*
Y27226D01*
X78236D01*
Y27204D01*
Y27181D01*
X78214D01*
Y27159D01*
Y27137D01*
X78192D01*
Y27114D01*
Y27092D01*
X78169D01*
Y27069D01*
Y27047D01*
X78147D01*
Y27024D01*
Y27002D01*
Y26980D01*
Y26957D01*
X78169D01*
Y26935D01*
Y26912D01*
X78192D01*
Y26890D01*
X78214D01*
Y26868D01*
Y26845D01*
X78236D01*
Y26823D01*
X78259D01*
Y26800D01*
Y26778D01*
X78281D01*
Y26755D01*
Y26733D01*
X78304D01*
Y26711D01*
X78326D01*
Y26688D01*
Y26666D01*
X79873D01*
Y26688D01*
X79895D01*
Y26711D01*
Y26733D01*
X79918D01*
Y26755D01*
Y26778D01*
X79940D01*
Y26800D01*
Y26823D01*
X79962D01*
Y26845D01*
Y26868D01*
X79985D01*
Y26890D01*
Y26912D01*
Y26935D01*
X80007D01*
Y26957D01*
Y26980D01*
X80030D01*
Y27002D01*
Y27024D01*
X80052D01*
Y27047D01*
Y27069D01*
X80075D01*
Y27092D01*
Y27114D01*
X80097D01*
Y27137D01*
Y27159D01*
X80119D01*
Y27181D01*
Y27204D01*
X80142D01*
Y27226D01*
Y27249D01*
X80164D01*
Y27271D01*
Y27294D01*
X80187D01*
Y27316D01*
Y27338D01*
X80209D01*
Y27361D01*
Y27383D01*
X80231D01*
Y27406D01*
Y27428D01*
X80254D01*
Y27450D01*
Y27473D01*
X80276D01*
Y27495D01*
Y27518D01*
X80299D01*
Y27540D01*
Y27562D01*
X80321D01*
Y27585D01*
Y27607D01*
X80344D01*
Y27630D01*
Y27652D01*
Y27675D01*
X80366D01*
Y27697D01*
Y27719D01*
X80388D01*
Y27742D01*
Y27764D01*
X80411D01*
Y27787D01*
Y27809D01*
X80433D01*
Y27832D01*
Y27854D01*
X80456D01*
Y27876D01*
Y27899D01*
X80478D01*
Y27921D01*
Y27944D01*
X80500D01*
Y27966D01*
Y27988D01*
X80523D01*
Y28011D01*
Y28033D01*
X80545D01*
Y28056D01*
Y28078D01*
X80568D01*
Y28100D01*
Y28123D01*
X80590D01*
Y28145D01*
Y28168D01*
X80612D01*
Y28190D01*
Y28213D01*
X80635D01*
Y28235D01*
Y28257D01*
X80657D01*
Y28280D01*
Y28302D01*
X80680D01*
Y28325D01*
Y28347D01*
X80702D01*
Y28370D01*
Y28392D01*
Y28414D01*
X80725D01*
Y28437D01*
Y28459D01*
X80747D01*
Y28482D01*
Y28504D01*
X80769D01*
Y28526D01*
Y28549D01*
X80792D01*
Y28571D01*
Y28594D01*
X80814D01*
Y28616D01*
Y28638D01*
X80837D01*
Y28661D01*
Y28683D01*
X80859D01*
Y28706D01*
Y28728D01*
X80882D01*
Y28751D01*
Y28773D01*
X80904D01*
Y28795D01*
Y28818D01*
X80926D01*
Y28840D01*
Y28863D01*
X80949D01*
Y28885D01*
Y28907D01*
X80971D01*
Y28930D01*
Y28952D01*
X80994D01*
Y28975D01*
Y28997D01*
X81016D01*
Y29020D01*
Y29042D01*
X81038D01*
Y29064D01*
Y29087D01*
Y29109D01*
X81061D01*
Y29132D01*
Y29154D01*
X81083D01*
Y29177D01*
Y29199D01*
X81106D01*
Y29221D01*
Y29244D01*
X81128D01*
Y29266D01*
Y29289D01*
X81151D01*
Y29311D01*
Y29333D01*
X81173D01*
Y29356D01*
Y29378D01*
X81195D01*
Y29401D01*
Y29423D01*
X81218D01*
Y29445D01*
Y29468D01*
X81240D01*
Y29490D01*
Y29513D01*
X81263D01*
Y29535D01*
Y29558D01*
X81285D01*
Y29580D01*
Y29602D01*
X81307D01*
Y29625D01*
Y29647D01*
X81330D01*
Y29670D01*
Y29692D01*
X81352D01*
Y29715D01*
Y29737D01*
X81375D01*
Y29759D01*
Y29782D01*
Y29804D01*
X81397D01*
Y29827D01*
Y29849D01*
X81419D01*
Y29871D01*
Y29894D01*
X81442D01*
Y29916D01*
Y29939D01*
X81464D01*
Y29961D01*
Y29983D01*
X81487D01*
Y30006D01*
Y30028D01*
X81509D01*
Y30051D01*
Y30073D01*
X81532D01*
Y30096D01*
Y30118D01*
X81554D01*
Y30140D01*
Y30163D01*
X81576D01*
Y30185D01*
Y30208D01*
X81599D01*
Y30230D01*
Y30253D01*
X81621D01*
Y30275D01*
Y30297D01*
X81644D01*
Y30320D01*
Y30342D01*
X81666D01*
Y30365D01*
Y30387D01*
X81688D01*
Y30409D01*
Y30432D01*
X81711D01*
Y30454D01*
Y30477D01*
Y30499D01*
X81733D01*
Y30522D01*
Y30544D01*
X81756D01*
Y30566D01*
Y30589D01*
X81778D01*
Y30611D01*
Y30634D01*
X81801D01*
Y30656D01*
Y30678D01*
X81823D01*
Y30701D01*
Y30723D01*
X81845D01*
Y30746D01*
Y30768D01*
X81868D01*
Y30790D01*
Y30813D01*
X81890D01*
Y30835D01*
Y30858D01*
X81913D01*
Y30880D01*
Y30903D01*
X81935D01*
Y30925D01*
Y30947D01*
X81958D01*
Y30970D01*
Y30992D01*
X81980D01*
Y31015D01*
Y31037D01*
X82002D01*
Y31060D01*
Y31082D01*
X82025D01*
Y31104D01*
Y31127D01*
X82047D01*
Y31149D01*
Y31172D01*
Y31194D01*
X82070D01*
Y31216D01*
Y31239D01*
X82092D01*
Y31261D01*
Y31284D01*
X82114D01*
Y31306D01*
Y31328D01*
X82137D01*
Y31351D01*
Y31373D01*
X82159D01*
Y31396D01*
Y31418D01*
X82182D01*
Y31441D01*
Y31463D01*
X82204D01*
Y31485D01*
Y31508D01*
X82227D01*
Y31530D01*
Y31553D01*
X82249D01*
Y31575D01*
Y31598D01*
X82271D01*
Y31620D01*
Y31642D01*
X82294D01*
Y31665D01*
Y31687D01*
X82316D01*
Y31710D01*
Y31732D01*
X82339D01*
Y31754D01*
X82361D01*
Y31732D01*
X82383D01*
Y31710D01*
X82406D01*
Y31687D01*
Y31665D01*
X82428D01*
Y31642D01*
X82451D01*
Y31620D01*
Y31598D01*
X82473D01*
Y31575D01*
Y31553D01*
X82495D01*
Y31530D01*
X82518D01*
Y31508D01*
Y31485D01*
X82540D01*
Y31463D01*
Y31441D01*
X82563D01*
Y31418D01*
X82585D01*
Y31396D01*
Y31373D01*
X82608D01*
Y31351D01*
Y31328D01*
X82630D01*
Y31306D01*
Y31284D01*
X82652D01*
Y31261D01*
X82675D01*
Y31239D01*
Y31216D01*
X82697D01*
Y31194D01*
Y31172D01*
X82720D01*
Y31149D01*
Y31127D01*
X82742D01*
Y31104D01*
X82765D01*
Y31082D01*
Y31060D01*
X82787D01*
Y31037D01*
Y31015D01*
X82809D01*
Y30992D01*
Y30970D01*
Y30947D01*
Y30925D01*
Y30903D01*
Y30880D01*
Y30858D01*
Y30835D01*
Y30813D01*
Y30790D01*
Y30768D01*
Y30746D01*
Y30723D01*
Y30701D01*
Y30678D01*
Y30656D01*
Y30634D01*
Y30611D01*
Y30589D01*
Y30566D01*
Y30544D01*
Y30522D01*
Y30499D01*
Y30477D01*
Y30454D01*
Y30432D01*
Y30409D01*
Y30387D01*
Y30365D01*
Y30342D01*
Y30320D01*
Y30297D01*
Y30275D01*
Y30253D01*
Y30230D01*
Y30208D01*
Y30185D01*
Y30163D01*
Y30140D01*
Y30118D01*
Y30096D01*
Y30073D01*
Y30051D01*
Y30028D01*
Y30006D01*
Y29983D01*
Y29961D01*
Y29939D01*
Y29916D01*
Y29894D01*
Y29871D01*
Y29849D01*
Y29827D01*
Y29804D01*
Y29782D01*
Y29759D01*
Y29737D01*
Y29715D01*
Y29692D01*
Y29670D01*
Y29647D01*
Y29625D01*
Y29602D01*
Y29580D01*
Y29558D01*
Y29535D01*
Y29513D01*
Y29490D01*
Y29468D01*
Y29445D01*
Y29423D01*
Y29401D01*
Y29378D01*
Y29356D01*
Y29333D01*
Y29311D01*
Y29289D01*
Y29266D01*
Y29244D01*
Y29221D01*
Y29199D01*
Y29177D01*
Y29154D01*
Y29132D01*
Y29109D01*
Y29087D01*
Y29064D01*
Y29042D01*
Y29020D01*
Y28997D01*
Y28975D01*
Y28952D01*
Y28930D01*
Y28907D01*
Y28885D01*
Y28863D01*
Y28840D01*
Y28818D01*
Y28795D01*
Y28773D01*
Y28751D01*
Y28728D01*
Y28706D01*
Y28683D01*
Y28661D01*
Y28638D01*
Y28616D01*
Y28594D01*
Y28571D01*
Y28549D01*
Y28526D01*
Y28504D01*
Y28482D01*
Y28459D01*
Y28437D01*
Y28414D01*
Y28392D01*
Y28370D01*
Y28347D01*
Y28325D01*
Y28302D01*
Y28280D01*
Y28257D01*
Y28235D01*
Y28213D01*
Y28190D01*
Y28168D01*
Y28145D01*
Y28123D01*
Y28100D01*
Y28078D01*
Y28056D01*
Y28033D01*
Y28011D01*
Y27988D01*
Y27966D01*
Y27944D01*
Y27921D01*
Y27899D01*
Y27876D01*
Y27854D01*
Y27832D01*
Y27809D01*
Y27787D01*
Y27764D01*
Y27742D01*
Y27719D01*
Y27697D01*
Y27675D01*
Y27652D01*
Y27630D01*
Y27607D01*
Y27585D01*
Y27562D01*
Y27540D01*
Y27518D01*
Y27495D01*
Y27473D01*
Y27450D01*
Y27428D01*
Y27406D01*
Y27383D01*
Y27361D01*
Y27338D01*
Y27316D01*
Y27294D01*
Y27271D01*
Y27249D01*
Y27226D01*
Y27204D01*
Y27181D01*
Y27159D01*
Y27137D01*
Y27114D01*
Y27092D01*
Y27069D01*
Y27047D01*
Y27024D01*
Y27002D01*
Y26980D01*
Y26957D01*
Y26935D01*
Y26912D01*
Y26890D01*
Y26868D01*
Y26845D01*
Y26823D01*
Y26800D01*
Y26778D01*
Y26755D01*
Y26733D01*
Y26711D01*
Y26688D01*
Y26666D01*
Y26643D01*
Y26621D01*
Y26599D01*
Y26576D01*
Y26554D01*
Y26531D01*
Y26509D01*
Y26487D01*
Y26464D01*
Y26442D01*
Y26419D01*
Y26397D01*
Y26375D01*
Y26352D01*
Y26330D01*
Y26307D01*
Y26285D01*
Y26262D01*
Y26240D01*
Y26217D01*
Y26195D01*
Y26173D01*
Y26150D01*
Y26128D01*
Y26105D01*
Y26083D01*
Y26061D01*
Y26038D01*
Y26016D01*
Y25993D01*
Y25971D01*
Y25949D01*
Y25926D01*
Y25904D01*
Y25881D01*
Y25859D01*
Y25837D01*
Y25814D01*
Y25792D01*
Y25769D01*
Y25747D01*
Y25724D01*
Y25702D01*
Y25679D01*
Y25657D01*
Y25635D01*
Y25612D01*
Y25590D01*
Y25567D01*
Y25545D01*
Y25523D01*
Y25500D01*
Y25478D01*
Y25455D01*
Y25433D01*
Y25411D01*
Y25388D01*
Y25366D01*
Y25343D01*
Y25321D01*
Y25298D01*
Y25276D01*
Y25254D01*
Y25231D01*
Y25209D01*
Y25186D01*
Y25164D01*
Y25142D01*
Y25119D01*
Y25097D01*
Y25074D01*
Y25052D01*
Y25030D01*
Y25007D01*
Y24985D01*
Y24962D01*
Y24940D01*
Y24917D01*
Y24895D01*
Y24873D01*
Y24850D01*
Y24828D01*
Y24805D01*
Y24783D01*
Y24760D01*
Y24738D01*
Y24716D01*
Y24693D01*
Y24671D01*
Y24648D01*
Y24626D01*
Y24604D01*
Y24581D01*
Y24559D01*
Y24536D01*
Y24514D01*
Y24491D01*
Y24469D01*
Y24447D01*
Y24424D01*
Y24402D01*
Y24379D01*
Y24357D01*
Y24335D01*
Y24312D01*
Y24290D01*
Y24267D01*
Y24245D01*
Y24223D01*
Y24200D01*
Y24178D01*
Y24155D01*
Y24133D01*
Y24110D01*
Y24088D01*
Y24066D01*
Y24043D01*
Y24021D01*
Y23998D01*
Y23976D01*
Y23954D01*
Y23931D01*
Y23909D01*
Y23886D01*
Y23864D01*
Y23841D01*
Y23819D01*
Y23797D01*
Y23774D01*
Y23752D01*
Y23729D01*
Y23707D01*
Y23685D01*
Y23662D01*
Y23640D01*
Y23617D01*
Y23595D01*
Y23572D01*
Y23550D01*
Y23528D01*
Y23505D01*
Y23483D01*
Y23460D01*
Y23438D01*
Y23415D01*
Y23393D01*
Y23371D01*
Y23348D01*
Y23326D01*
Y23303D01*
Y23281D01*
Y23259D01*
Y23236D01*
Y23214D01*
Y23191D01*
Y23169D01*
Y23146D01*
Y23124D01*
Y23102D01*
Y23079D01*
Y23057D01*
Y23034D01*
Y23012D01*
Y22990D01*
Y22967D01*
Y22945D01*
Y22922D01*
Y22900D01*
Y22877D01*
Y22855D01*
Y22833D01*
Y22810D01*
Y22788D01*
X82832D01*
Y22765D01*
X82854D01*
Y22743D01*
Y22721D01*
X82876D01*
Y22698D01*
X82899D01*
Y22676D01*
Y22653D01*
X82921D01*
Y22631D01*
Y22609D01*
X82944D01*
Y22586D01*
X82966D01*
Y22564D01*
Y22541D01*
X82989D01*
Y22519D01*
X83011D01*
Y22496D01*
Y22474D01*
X83034D01*
Y22452D01*
Y22429D01*
X83056D01*
Y22407D01*
X83078D01*
Y22384D01*
Y22362D01*
X83101D01*
Y22340D01*
X83123D01*
Y22317D01*
Y22295D01*
X83145D01*
Y22272D01*
X83168D01*
Y22250D01*
Y22227D01*
X83190D01*
Y22205D01*
Y22183D01*
X83213D01*
Y22160D01*
X83235D01*
Y22138D01*
Y22115D01*
X83258D01*
Y22093D01*
X83280D01*
Y22071D01*
Y22048D01*
X83302D01*
Y22026D01*
X83325D01*
Y22003D01*
Y21981D01*
X83347D01*
Y21958D01*
Y21936D01*
X83370D01*
Y21914D01*
X83392D01*
Y21891D01*
Y21869D01*
X83415D01*
Y21846D01*
X83437D01*
Y21824D01*
Y21802D01*
X83459D01*
Y21779D01*
Y21757D01*
X83482D01*
Y21734D01*
X83504D01*
Y21712D01*
Y21689D01*
X83527D01*
Y21667D01*
X83549D01*
Y21645D01*
Y21622D01*
X83571D01*
Y21600D01*
X83594D01*
Y21577D01*
Y21555D01*
X83616D01*
Y21532D01*
Y21510D01*
X83639D01*
Y21488D01*
X83661D01*
Y21465D01*
Y21443D01*
X83684D01*
Y21420D01*
X83706D01*
Y21398D01*
Y21376D01*
X83728D01*
Y21353D01*
X83751D01*
Y21331D01*
Y21308D01*
X83773D01*
Y21286D01*
Y21263D01*
X83796D01*
Y21241D01*
X83818D01*
Y21219D01*
Y21196D01*
X83841D01*
Y21174D01*
X83863D01*
Y21151D01*
Y21129D01*
X83885D01*
Y21107D01*
X83908D01*
Y21084D01*
Y21062D01*
X83930D01*
Y21039D01*
Y21017D01*
X83952D01*
Y20994D01*
X83975D01*
Y20972D01*
Y20950D01*
X83997D01*
Y20927D01*
X84020D01*
Y20905D01*
Y20882D01*
X84042D01*
Y20860D01*
X84065D01*
Y20838D01*
Y20815D01*
X84087D01*
Y20793D01*
Y20770D01*
X84109D01*
Y20748D01*
X84132D01*
Y20726D01*
Y20703D01*
X84154D01*
Y20681D01*
X84177D01*
Y20658D01*
Y20636D01*
X84199D01*
Y20613D01*
X84222D01*
Y20591D01*
Y20569D01*
X84244D01*
Y20546D01*
Y20524D01*
X84266D01*
Y20501D01*
X84289D01*
Y20479D01*
Y20457D01*
X84311D01*
Y20434D01*
X84334D01*
Y20412D01*
Y20389D01*
X84356D01*
Y20367D01*
X84378D01*
Y20344D01*
Y20322D01*
X84401D01*
Y20300D01*
Y20277D01*
X84423D01*
Y20255D01*
X84446D01*
Y20232D01*
Y20210D01*
X84468D01*
Y20188D01*
X84491D01*
Y20165D01*
Y20143D01*
X84513D01*
Y20120D01*
X84535D01*
Y20098D01*
Y20075D01*
X84558D01*
Y20053D01*
Y20031D01*
X84580D01*
Y20008D01*
X84603D01*
Y19986D01*
Y19963D01*
X84647D01*
Y19986D01*
Y20008D01*
Y20031D01*
Y20053D01*
Y20075D01*
Y20098D01*
Y20120D01*
Y20143D01*
Y20165D01*
Y20188D01*
Y20210D01*
Y20232D01*
Y20255D01*
Y20277D01*
Y20300D01*
Y20322D01*
Y20344D01*
Y20367D01*
Y20389D01*
Y20412D01*
Y20434D01*
Y20457D01*
Y20479D01*
Y20501D01*
Y20524D01*
Y20546D01*
Y20569D01*
Y20591D01*
Y20613D01*
Y20636D01*
Y20658D01*
Y20681D01*
Y20703D01*
Y20726D01*
Y20748D01*
Y20770D01*
Y20793D01*
Y20815D01*
Y20838D01*
Y20860D01*
Y20882D01*
Y20905D01*
Y20927D01*
Y20950D01*
Y20972D01*
Y20994D01*
Y21017D01*
Y21039D01*
Y21062D01*
Y21084D01*
Y21107D01*
Y21129D01*
Y21151D01*
Y21174D01*
Y21196D01*
Y21219D01*
Y21241D01*
Y21263D01*
Y21286D01*
Y21308D01*
Y21331D01*
Y21353D01*
Y21376D01*
Y21398D01*
Y21420D01*
Y21443D01*
Y21465D01*
Y21488D01*
Y21510D01*
Y21532D01*
Y21555D01*
Y21577D01*
Y21600D01*
Y21622D01*
Y21645D01*
Y21667D01*
Y21689D01*
Y21712D01*
Y21734D01*
Y21757D01*
Y21779D01*
Y21802D01*
Y21824D01*
Y21846D01*
Y21869D01*
Y21891D01*
Y21914D01*
Y21936D01*
Y21958D01*
Y21981D01*
Y22003D01*
Y22026D01*
Y22048D01*
Y22071D01*
Y22093D01*
Y22115D01*
Y22138D01*
Y22160D01*
Y22183D01*
Y22205D01*
Y22227D01*
Y22250D01*
Y22272D01*
Y22295D01*
Y22317D01*
Y22340D01*
Y22362D01*
Y22384D01*
Y22407D01*
Y22429D01*
Y22452D01*
Y22474D01*
Y22496D01*
Y22519D01*
Y22541D01*
Y22564D01*
Y22586D01*
Y22609D01*
Y22631D01*
Y22653D01*
Y22676D01*
Y22698D01*
Y22721D01*
Y22743D01*
Y22765D01*
Y22788D01*
Y22810D01*
Y22833D01*
Y22855D01*
Y22877D01*
Y22900D01*
Y22922D01*
Y22945D01*
Y22967D01*
Y22990D01*
Y23012D01*
Y23034D01*
Y23057D01*
Y23079D01*
Y23102D01*
Y23124D01*
Y23146D01*
Y23169D01*
Y23191D01*
Y23214D01*
Y23236D01*
Y23259D01*
Y23281D01*
Y23303D01*
Y23326D01*
Y23348D01*
Y23371D01*
Y23393D01*
Y23415D01*
Y23438D01*
Y23460D01*
Y23483D01*
Y23505D01*
Y23528D01*
Y23550D01*
Y23572D01*
Y23595D01*
Y23617D01*
Y23640D01*
Y23662D01*
Y23685D01*
Y23707D01*
Y23729D01*
Y23752D01*
Y23774D01*
Y23797D01*
Y23819D01*
Y23841D01*
Y23864D01*
Y23886D01*
Y23909D01*
Y23931D01*
Y23954D01*
Y23976D01*
Y23998D01*
Y24021D01*
Y24043D01*
Y24066D01*
Y24088D01*
Y24110D01*
Y24133D01*
Y24155D01*
Y24178D01*
Y24200D01*
Y24223D01*
Y24245D01*
Y24267D01*
Y24290D01*
Y24312D01*
Y24335D01*
Y24357D01*
Y24379D01*
Y24402D01*
Y24424D01*
Y24447D01*
Y24469D01*
Y24491D01*
Y24514D01*
Y24536D01*
Y24559D01*
Y24581D01*
Y24604D01*
Y24626D01*
Y24648D01*
Y24671D01*
Y24693D01*
Y24716D01*
Y24738D01*
Y24760D01*
Y24783D01*
Y24805D01*
Y24828D01*
Y24850D01*
Y24873D01*
Y24895D01*
Y24917D01*
Y24940D01*
Y24962D01*
Y24985D01*
Y25007D01*
Y25030D01*
Y25052D01*
Y25074D01*
Y25097D01*
Y25119D01*
Y25142D01*
Y25164D01*
Y25186D01*
Y25209D01*
Y25231D01*
Y25254D01*
Y25276D01*
Y25298D01*
Y25321D01*
Y25343D01*
Y25366D01*
Y25388D01*
Y25411D01*
Y25433D01*
Y25455D01*
Y25478D01*
Y25500D01*
Y25523D01*
Y25545D01*
Y25567D01*
Y25590D01*
Y25612D01*
Y25635D01*
Y25657D01*
Y25679D01*
Y25702D01*
Y25724D01*
Y25747D01*
Y25769D01*
Y25792D01*
Y25814D01*
Y25837D01*
Y25859D01*
Y25881D01*
Y25904D01*
Y25926D01*
Y25949D01*
Y25971D01*
Y25993D01*
Y26016D01*
Y26038D01*
Y26061D01*
Y26083D01*
Y26105D01*
Y26128D01*
Y26150D01*
Y26173D01*
Y26195D01*
Y26217D01*
Y26240D01*
Y26262D01*
Y26285D01*
Y26307D01*
Y26330D01*
Y26352D01*
Y26375D01*
Y26397D01*
Y26419D01*
Y26442D01*
Y26464D01*
Y26487D01*
Y26509D01*
Y26531D01*
Y26554D01*
Y26576D01*
Y26599D01*
Y26621D01*
Y26643D01*
Y26666D01*
Y26688D01*
Y26711D01*
Y26733D01*
Y26755D01*
Y26778D01*
Y26800D01*
Y26823D01*
Y26845D01*
Y26868D01*
Y26890D01*
Y26912D01*
Y26935D01*
Y26957D01*
Y26980D01*
Y27002D01*
Y27024D01*
Y27047D01*
Y27069D01*
Y27092D01*
Y27114D01*
Y27137D01*
Y27159D01*
Y27181D01*
Y27204D01*
Y27226D01*
Y27249D01*
Y27271D01*
Y27294D01*
Y27316D01*
Y27338D01*
Y27361D01*
Y27383D01*
Y27406D01*
Y27428D01*
Y27450D01*
Y27473D01*
Y27495D01*
Y27518D01*
Y27540D01*
Y27562D01*
Y27585D01*
Y27607D01*
Y27630D01*
Y27652D01*
Y27675D01*
Y27697D01*
Y27719D01*
Y27742D01*
Y27764D01*
Y27787D01*
Y27809D01*
Y27832D01*
Y27854D01*
Y27876D01*
Y27899D01*
Y27921D01*
Y27944D01*
Y27966D01*
Y27988D01*
Y28011D01*
Y28033D01*
Y28056D01*
Y28078D01*
Y28100D01*
Y28123D01*
Y28145D01*
Y28168D01*
Y28190D01*
Y28213D01*
Y28235D01*
Y28257D01*
Y28280D01*
Y28302D01*
Y28325D01*
Y28347D01*
Y28370D01*
Y28392D01*
Y28414D01*
Y28437D01*
Y28459D01*
Y28482D01*
Y28504D01*
Y28526D01*
Y28549D01*
Y28571D01*
Y28594D01*
Y28616D01*
Y28638D01*
Y28661D01*
Y28683D01*
Y28706D01*
Y28728D01*
Y28751D01*
Y28773D01*
Y28795D01*
Y28818D01*
Y28840D01*
Y28863D01*
Y28885D01*
Y28907D01*
Y28930D01*
Y28952D01*
Y28975D01*
Y28997D01*
Y29020D01*
Y29042D01*
Y29064D01*
Y29087D01*
Y29109D01*
Y29132D01*
Y29154D01*
Y29177D01*
Y29199D01*
Y29221D01*
Y29244D01*
Y29266D01*
Y29289D01*
Y29311D01*
Y29333D01*
Y29356D01*
Y29378D01*
Y29401D01*
Y29423D01*
Y29445D01*
Y29468D01*
Y29490D01*
Y29513D01*
Y29535D01*
Y29558D01*
Y29580D01*
Y29602D01*
Y29625D01*
Y29647D01*
Y29670D01*
Y29692D01*
Y29715D01*
Y29737D01*
Y29759D01*
Y29782D01*
Y29804D01*
Y29827D01*
Y29849D01*
Y29871D01*
Y29894D01*
Y29916D01*
Y29939D01*
Y29961D01*
Y29983D01*
Y30006D01*
Y30028D01*
Y30051D01*
Y30073D01*
Y30096D01*
Y30118D01*
Y30140D01*
Y30163D01*
Y30185D01*
Y30208D01*
Y30230D01*
Y30253D01*
Y30275D01*
Y30297D01*
Y30320D01*
Y30342D01*
Y30365D01*
Y30387D01*
Y30409D01*
Y30432D01*
Y30454D01*
Y30477D01*
Y30499D01*
Y30522D01*
Y30544D01*
Y30566D01*
Y30589D01*
Y30611D01*
Y30634D01*
Y30656D01*
Y30678D01*
Y30701D01*
Y30723D01*
Y30746D01*
Y30768D01*
Y30790D01*
Y30813D01*
Y30835D01*
Y30858D01*
Y30880D01*
Y30903D01*
Y30925D01*
Y30947D01*
Y30970D01*
Y30992D01*
Y31015D01*
Y31037D01*
Y31060D01*
Y31082D01*
Y31104D01*
Y31127D01*
Y31149D01*
Y31172D01*
Y31194D01*
Y31216D01*
Y31239D01*
Y31261D01*
Y31284D01*
Y31306D01*
Y31328D01*
Y31351D01*
Y31373D01*
Y31396D01*
Y31418D01*
Y31441D01*
Y31463D01*
Y31485D01*
Y31508D01*
Y31530D01*
Y31553D01*
Y31575D01*
Y31598D01*
Y31620D01*
Y31642D01*
Y31665D01*
Y31687D01*
Y31710D01*
Y31732D01*
Y31754D01*
Y31777D01*
Y31799D01*
Y31822D01*
Y31844D01*
Y31866D01*
Y31889D01*
Y31911D01*
Y31934D01*
Y31956D01*
Y31979D01*
Y32001D01*
Y32023D01*
Y32046D01*
Y32068D01*
Y32091D01*
Y32113D01*
Y32135D01*
Y32158D01*
Y32180D01*
Y32203D01*
Y32225D01*
Y32248D01*
Y32270D01*
Y32292D01*
Y32315D01*
Y32337D01*
Y32360D01*
Y32382D01*
Y32405D01*
Y32427D01*
Y32449D01*
Y32472D01*
Y32494D01*
Y32517D01*
Y32539D01*
Y32561D01*
Y32584D01*
Y32606D01*
Y32629D01*
Y32651D01*
Y32673D01*
Y32696D01*
Y32718D01*
Y32741D01*
Y32763D01*
Y32785D01*
Y32808D01*
Y32830D01*
Y32853D01*
Y32875D01*
Y32898D01*
Y32920D01*
Y32942D01*
Y32965D01*
Y32987D01*
Y33010D01*
Y33032D01*
Y33055D01*
Y33077D01*
Y33099D01*
Y33122D01*
Y33144D01*
Y33167D01*
Y33189D01*
Y33211D01*
Y33234D01*
Y33256D01*
Y33279D01*
Y33301D01*
Y33323D01*
Y33346D01*
Y33368D01*
Y33391D01*
Y33413D01*
Y33436D01*
Y33458D01*
Y33480D01*
Y33503D01*
Y33525D01*
Y33548D01*
Y33570D01*
Y33593D01*
Y33615D01*
Y33637D01*
Y33660D01*
Y33682D01*
Y33705D01*
Y33727D01*
Y33749D01*
Y33772D01*
Y33794D01*
Y33817D01*
Y33839D01*
Y33862D01*
Y33884D01*
Y33906D01*
Y33929D01*
Y33951D01*
Y33974D01*
Y33996D01*
Y34018D01*
Y34041D01*
Y34063D01*
Y34086D01*
Y34108D01*
Y34130D01*
Y34153D01*
Y34175D01*
Y34198D01*
Y34220D01*
Y34243D01*
Y34265D01*
Y34287D01*
Y34310D01*
Y34332D01*
Y34355D01*
Y34377D01*
Y34400D01*
Y34422D01*
Y34444D01*
Y34467D01*
Y34489D01*
Y34512D01*
Y34534D01*
Y34556D01*
Y34579D01*
Y34601D01*
Y34624D01*
Y34646D01*
Y34668D01*
Y34691D01*
Y34713D01*
Y34736D01*
Y34758D01*
Y34781D01*
Y34803D01*
Y34825D01*
Y34848D01*
Y34870D01*
Y34893D01*
Y34915D01*
Y34938D01*
Y34960D01*
Y34982D01*
Y35005D01*
Y35027D01*
Y35050D01*
Y35072D01*
Y35094D01*
Y35117D01*
Y35139D01*
Y35162D01*
Y35184D01*
Y35206D01*
Y35229D01*
Y35251D01*
Y35274D01*
Y35296D01*
Y35319D01*
Y35341D01*
Y35363D01*
Y35386D01*
Y35408D01*
Y35431D01*
Y35453D01*
Y35476D01*
Y35498D01*
Y35520D01*
Y35543D01*
Y35565D01*
Y35588D01*
Y35610D01*
Y35632D01*
Y35655D01*
Y35677D01*
Y35700D01*
Y35722D01*
Y35745D01*
Y35767D01*
Y35789D01*
Y35812D01*
Y35834D01*
Y35857D01*
Y35879D01*
Y35901D01*
Y35924D01*
Y35946D01*
Y35969D01*
Y35991D01*
Y36013D01*
Y36036D01*
Y36058D01*
Y36081D01*
Y36103D01*
Y36126D01*
Y36148D01*
Y36170D01*
Y36193D01*
Y36215D01*
Y36238D01*
Y36260D01*
Y36283D01*
Y36305D01*
Y36327D01*
Y36350D01*
Y36372D01*
Y36395D01*
Y36417D01*
Y36439D01*
Y36462D01*
Y36484D01*
Y36507D01*
Y36529D01*
Y36551D01*
Y36574D01*
Y36596D01*
Y36619D01*
Y36641D01*
Y36664D01*
Y36686D01*
Y36708D01*
Y36731D01*
Y36753D01*
Y36776D01*
Y36798D01*
Y36821D01*
Y36843D01*
Y36865D01*
Y36888D01*
Y36910D01*
Y36933D01*
Y36955D01*
Y36977D01*
Y37000D01*
Y37022D01*
Y37045D01*
Y37067D01*
Y37089D01*
Y37112D01*
Y37134D01*
Y37157D01*
Y37179D01*
Y37202D01*
Y37224D01*
Y37246D01*
Y37269D01*
Y37291D01*
Y37314D01*
Y37336D01*
Y37358D01*
Y37381D01*
Y37403D01*
Y37426D01*
Y37448D01*
Y37471D01*
Y37493D01*
Y37515D01*
Y37538D01*
Y37560D01*
Y37583D01*
Y37605D01*
Y37628D01*
Y37650D01*
Y37672D01*
Y37695D01*
Y37717D01*
Y37740D01*
Y37762D01*
Y37784D01*
Y37807D01*
Y37829D01*
Y37852D01*
Y37874D01*
Y37896D01*
Y37919D01*
Y37941D01*
Y37964D01*
Y37986D01*
Y38009D01*
Y38031D01*
Y38053D01*
Y38076D01*
Y38098D01*
Y38121D01*
Y38143D01*
Y38166D01*
Y38188D01*
Y38210D01*
Y38233D01*
Y38255D01*
Y38278D01*
Y38300D01*
Y38322D01*
Y38345D01*
Y38367D01*
Y38390D01*
Y38412D01*
Y38434D01*
Y38457D01*
Y38479D01*
Y38502D01*
Y38524D01*
Y38547D01*
Y38569D01*
Y38591D01*
Y38614D01*
Y38636D01*
Y38659D01*
Y38681D01*
Y38703D01*
Y38726D01*
Y38748D01*
Y38771D01*
Y38793D01*
Y38816D01*
Y38838D01*
Y38860D01*
Y38883D01*
Y38905D01*
Y38928D01*
Y38950D01*
Y38972D01*
Y38995D01*
Y39017D01*
Y39040D01*
Y39062D01*
Y39085D01*
Y39107D01*
Y39129D01*
Y39152D01*
Y39174D01*
Y39197D01*
Y39219D01*
Y39241D01*
Y39264D01*
Y39286D01*
Y39309D01*
Y39331D01*
Y39353D01*
Y39376D01*
Y39398D01*
Y39421D01*
Y39443D01*
Y39466D01*
Y39488D01*
Y39510D01*
Y39533D01*
X84154D01*
Y39510D01*
D02*
G37*
G36*
X85679D02*
Y39488D01*
Y39466D01*
Y39443D01*
Y39421D01*
Y39398D01*
Y39376D01*
Y39353D01*
Y39331D01*
Y39309D01*
Y39286D01*
Y39264D01*
Y39241D01*
Y39219D01*
Y39197D01*
Y39174D01*
Y39152D01*
Y39129D01*
Y39107D01*
Y39085D01*
Y39062D01*
Y39040D01*
Y39017D01*
Y38995D01*
Y38972D01*
Y38950D01*
Y38928D01*
Y38905D01*
Y38883D01*
Y38860D01*
Y38838D01*
Y38816D01*
Y38793D01*
Y38771D01*
Y38748D01*
Y38726D01*
Y38703D01*
Y38681D01*
Y38659D01*
Y38636D01*
Y38614D01*
Y38591D01*
Y38569D01*
Y38547D01*
Y38524D01*
Y38502D01*
Y38479D01*
Y38457D01*
Y38434D01*
Y38412D01*
Y38390D01*
Y38367D01*
Y38345D01*
Y38322D01*
Y38300D01*
Y38278D01*
Y38255D01*
Y38233D01*
Y38210D01*
Y38188D01*
Y38166D01*
Y38143D01*
Y38121D01*
Y38098D01*
Y38076D01*
Y38053D01*
Y38031D01*
Y38009D01*
Y37986D01*
Y37964D01*
Y37941D01*
Y37919D01*
Y37896D01*
Y37874D01*
Y37852D01*
Y37829D01*
Y37807D01*
Y37784D01*
Y37762D01*
Y37740D01*
Y37717D01*
Y37695D01*
Y37672D01*
Y37650D01*
Y37628D01*
Y37605D01*
Y37583D01*
Y37560D01*
Y37538D01*
Y37515D01*
Y37493D01*
Y37471D01*
Y37448D01*
Y37426D01*
Y37403D01*
Y37381D01*
Y37358D01*
Y37336D01*
Y37314D01*
Y37291D01*
Y37269D01*
Y37246D01*
Y37224D01*
Y37202D01*
Y37179D01*
Y37157D01*
Y37134D01*
Y37112D01*
Y37089D01*
Y37067D01*
Y37045D01*
Y37022D01*
Y37000D01*
Y36977D01*
Y36955D01*
Y36933D01*
Y36910D01*
Y36888D01*
Y36865D01*
Y36843D01*
Y36821D01*
Y36798D01*
Y36776D01*
Y36753D01*
Y36731D01*
Y36708D01*
Y36686D01*
Y36664D01*
Y36641D01*
Y36619D01*
Y36596D01*
Y36574D01*
Y36551D01*
Y36529D01*
Y36507D01*
Y36484D01*
Y36462D01*
Y36439D01*
Y36417D01*
Y36395D01*
Y36372D01*
Y36350D01*
Y36327D01*
Y36305D01*
Y36283D01*
Y36260D01*
Y36238D01*
Y36215D01*
Y36193D01*
Y36170D01*
Y36148D01*
Y36126D01*
Y36103D01*
Y36081D01*
Y36058D01*
Y36036D01*
Y36013D01*
Y35991D01*
Y35969D01*
Y35946D01*
Y35924D01*
Y35901D01*
Y35879D01*
Y35857D01*
Y35834D01*
Y35812D01*
Y35789D01*
Y35767D01*
Y35745D01*
Y35722D01*
Y35700D01*
Y35677D01*
Y35655D01*
Y35632D01*
Y35610D01*
Y35588D01*
Y35565D01*
Y35543D01*
Y35520D01*
Y35498D01*
Y35476D01*
Y35453D01*
Y35431D01*
Y35408D01*
Y35386D01*
Y35363D01*
Y35341D01*
Y35319D01*
Y35296D01*
Y35274D01*
Y35251D01*
Y35229D01*
Y35206D01*
Y35184D01*
Y35162D01*
Y35139D01*
Y35117D01*
Y35094D01*
Y35072D01*
Y35050D01*
Y35027D01*
Y35005D01*
Y34982D01*
Y34960D01*
Y34938D01*
Y34915D01*
Y34893D01*
Y34870D01*
Y34848D01*
Y34825D01*
Y34803D01*
Y34781D01*
Y34758D01*
Y34736D01*
Y34713D01*
Y34691D01*
Y34668D01*
Y34646D01*
Y34624D01*
Y34601D01*
Y34579D01*
Y34556D01*
Y34534D01*
Y34512D01*
Y34489D01*
Y34467D01*
Y34444D01*
Y34422D01*
Y34400D01*
Y34377D01*
Y34355D01*
Y34332D01*
Y34310D01*
Y34287D01*
Y34265D01*
Y34243D01*
Y34220D01*
Y34198D01*
Y34175D01*
Y34153D01*
Y34130D01*
Y34108D01*
Y34086D01*
Y34063D01*
Y34041D01*
Y34018D01*
Y33996D01*
Y33974D01*
Y33951D01*
Y33929D01*
Y33906D01*
Y33884D01*
Y33862D01*
Y33839D01*
Y33817D01*
Y33794D01*
Y33772D01*
Y33749D01*
Y33727D01*
Y33705D01*
Y33682D01*
Y33660D01*
Y33637D01*
Y33615D01*
Y33593D01*
Y33570D01*
Y33548D01*
Y33525D01*
Y33503D01*
Y33480D01*
Y33458D01*
Y33436D01*
Y33413D01*
Y33391D01*
Y33368D01*
Y33346D01*
Y33323D01*
Y33301D01*
Y33279D01*
Y33256D01*
Y33234D01*
Y33211D01*
Y33189D01*
Y33167D01*
Y33144D01*
Y33122D01*
Y33099D01*
Y33077D01*
Y33055D01*
Y33032D01*
Y33010D01*
Y32987D01*
Y32965D01*
Y32942D01*
Y32920D01*
Y32898D01*
Y32875D01*
Y32853D01*
Y32830D01*
Y32808D01*
Y32785D01*
Y32763D01*
Y32741D01*
Y32718D01*
Y32696D01*
Y32673D01*
Y32651D01*
Y32629D01*
Y32606D01*
Y32584D01*
Y32561D01*
Y32539D01*
Y32517D01*
Y32494D01*
Y32472D01*
Y32449D01*
Y32427D01*
Y32405D01*
Y32382D01*
Y32360D01*
Y32337D01*
Y32315D01*
Y32292D01*
Y32270D01*
Y32248D01*
Y32225D01*
Y32203D01*
Y32180D01*
Y32158D01*
Y32135D01*
Y32113D01*
Y32091D01*
Y32068D01*
Y32046D01*
Y32023D01*
Y32001D01*
Y31979D01*
Y31956D01*
Y31934D01*
Y31911D01*
Y31889D01*
Y31866D01*
Y31844D01*
Y31822D01*
Y31799D01*
Y31777D01*
Y31754D01*
Y31732D01*
Y31710D01*
Y31687D01*
Y31665D01*
Y31642D01*
Y31620D01*
Y31598D01*
Y31575D01*
Y31553D01*
Y31530D01*
Y31508D01*
Y31485D01*
Y31463D01*
Y31441D01*
Y31418D01*
Y31396D01*
Y31373D01*
Y31351D01*
Y31328D01*
Y31306D01*
Y31284D01*
Y31261D01*
Y31239D01*
Y31216D01*
Y31194D01*
Y31172D01*
Y31149D01*
Y31127D01*
Y31104D01*
Y31082D01*
Y31060D01*
Y31037D01*
Y31015D01*
Y30992D01*
Y30970D01*
Y30947D01*
Y30925D01*
Y30903D01*
Y30880D01*
Y30858D01*
Y30835D01*
Y30813D01*
Y30790D01*
Y30768D01*
Y30746D01*
Y30723D01*
Y30701D01*
Y30678D01*
Y30656D01*
Y30634D01*
Y30611D01*
Y30589D01*
Y30566D01*
Y30544D01*
Y30522D01*
Y30499D01*
Y30477D01*
Y30454D01*
Y30432D01*
Y30409D01*
Y30387D01*
Y30365D01*
Y30342D01*
Y30320D01*
Y30297D01*
Y30275D01*
Y30253D01*
Y30230D01*
Y30208D01*
Y30185D01*
Y30163D01*
Y30140D01*
Y30118D01*
Y30096D01*
Y30073D01*
Y30051D01*
Y30028D01*
Y30006D01*
Y29983D01*
Y29961D01*
Y29939D01*
Y29916D01*
Y29894D01*
Y29871D01*
Y29849D01*
Y29827D01*
Y29804D01*
Y29782D01*
Y29759D01*
Y29737D01*
Y29715D01*
Y29692D01*
Y29670D01*
Y29647D01*
Y29625D01*
Y29602D01*
Y29580D01*
Y29558D01*
Y29535D01*
Y29513D01*
Y29490D01*
Y29468D01*
Y29445D01*
Y29423D01*
Y29401D01*
Y29378D01*
Y29356D01*
Y29333D01*
Y29311D01*
Y29289D01*
Y29266D01*
Y29244D01*
Y29221D01*
Y29199D01*
Y29177D01*
Y29154D01*
Y29132D01*
Y29109D01*
Y29087D01*
Y29064D01*
Y29042D01*
Y29020D01*
Y28997D01*
Y28975D01*
Y28952D01*
Y28930D01*
Y28907D01*
Y28885D01*
Y28863D01*
Y28840D01*
Y28818D01*
Y28795D01*
Y28773D01*
Y28751D01*
Y28728D01*
Y28706D01*
Y28683D01*
Y28661D01*
Y28638D01*
Y28616D01*
Y28594D01*
Y28571D01*
Y28549D01*
Y28526D01*
Y28504D01*
Y28482D01*
Y28459D01*
Y28437D01*
Y28414D01*
Y28392D01*
Y28370D01*
Y28347D01*
Y28325D01*
Y28302D01*
Y28280D01*
Y28257D01*
Y28235D01*
Y28213D01*
Y28190D01*
Y28168D01*
Y28145D01*
Y28123D01*
Y28100D01*
Y28078D01*
Y28056D01*
Y28033D01*
Y28011D01*
Y27988D01*
Y27966D01*
Y27944D01*
Y27921D01*
Y27899D01*
Y27876D01*
Y27854D01*
Y27832D01*
Y27809D01*
Y27787D01*
Y27764D01*
Y27742D01*
Y27719D01*
Y27697D01*
Y27675D01*
Y27652D01*
Y27630D01*
Y27607D01*
Y27585D01*
Y27562D01*
Y27540D01*
Y27518D01*
Y27495D01*
Y27473D01*
Y27450D01*
Y27428D01*
Y27406D01*
Y27383D01*
Y27361D01*
Y27338D01*
Y27316D01*
Y27294D01*
Y27271D01*
Y27249D01*
Y27226D01*
Y27204D01*
Y27181D01*
Y27159D01*
Y27137D01*
Y27114D01*
Y27092D01*
Y27069D01*
Y27047D01*
Y27024D01*
Y27002D01*
Y26980D01*
Y26957D01*
Y26935D01*
Y26912D01*
Y26890D01*
Y26868D01*
Y26845D01*
Y26823D01*
Y26800D01*
Y26778D01*
Y26755D01*
Y26733D01*
Y26711D01*
Y26688D01*
Y26666D01*
Y26643D01*
Y26621D01*
Y26599D01*
Y26576D01*
Y26554D01*
Y26531D01*
Y26509D01*
Y26487D01*
Y26464D01*
Y26442D01*
Y26419D01*
Y26397D01*
Y26375D01*
Y26352D01*
Y26330D01*
Y26307D01*
Y26285D01*
Y26262D01*
Y26240D01*
Y26217D01*
Y26195D01*
Y26173D01*
Y26150D01*
Y26128D01*
Y26105D01*
Y26083D01*
Y26061D01*
Y26038D01*
Y26016D01*
Y25993D01*
Y25971D01*
Y25949D01*
Y25926D01*
Y25904D01*
Y25881D01*
Y25859D01*
Y25837D01*
Y25814D01*
Y25792D01*
Y25769D01*
Y25747D01*
Y25724D01*
Y25702D01*
Y25679D01*
Y25657D01*
Y25635D01*
Y25612D01*
Y25590D01*
Y25567D01*
Y25545D01*
Y25523D01*
Y25500D01*
Y25478D01*
Y25455D01*
Y25433D01*
Y25411D01*
Y25388D01*
Y25366D01*
Y25343D01*
Y25321D01*
Y25298D01*
Y25276D01*
Y25254D01*
Y25231D01*
Y25209D01*
Y25186D01*
Y25164D01*
Y25142D01*
Y25119D01*
Y25097D01*
Y25074D01*
Y25052D01*
Y25030D01*
Y25007D01*
Y24985D01*
Y24962D01*
Y24940D01*
Y24917D01*
Y24895D01*
Y24873D01*
Y24850D01*
Y24828D01*
Y24805D01*
Y24783D01*
Y24760D01*
Y24738D01*
Y24716D01*
Y24693D01*
Y24671D01*
Y24648D01*
Y24626D01*
Y24604D01*
Y24581D01*
Y24559D01*
Y24536D01*
Y24514D01*
Y24491D01*
Y24469D01*
Y24447D01*
Y24424D01*
Y24402D01*
Y24379D01*
Y24357D01*
Y24335D01*
Y24312D01*
Y24290D01*
Y24267D01*
Y24245D01*
Y24223D01*
Y24200D01*
Y24178D01*
Y24155D01*
Y24133D01*
Y24110D01*
Y24088D01*
Y24066D01*
Y24043D01*
Y24021D01*
Y23998D01*
Y23976D01*
Y23954D01*
Y23931D01*
Y23909D01*
Y23886D01*
Y23864D01*
Y23841D01*
Y23819D01*
Y23797D01*
Y23774D01*
Y23752D01*
Y23729D01*
Y23707D01*
Y23685D01*
Y23662D01*
Y23640D01*
Y23617D01*
Y23595D01*
Y23572D01*
Y23550D01*
Y23528D01*
Y23505D01*
Y23483D01*
Y23460D01*
Y23438D01*
Y23415D01*
Y23393D01*
Y23371D01*
Y23348D01*
Y23326D01*
Y23303D01*
Y23281D01*
Y23259D01*
Y23236D01*
Y23214D01*
Y23191D01*
Y23169D01*
Y23146D01*
Y23124D01*
Y23102D01*
Y23079D01*
Y23057D01*
Y23034D01*
Y23012D01*
Y22990D01*
Y22967D01*
Y22945D01*
Y22922D01*
Y22900D01*
Y22877D01*
Y22855D01*
Y22833D01*
Y22810D01*
Y22788D01*
Y22765D01*
Y22743D01*
Y22721D01*
Y22698D01*
Y22676D01*
Y22653D01*
Y22631D01*
Y22609D01*
Y22586D01*
Y22564D01*
Y22541D01*
Y22519D01*
Y22496D01*
Y22474D01*
Y22452D01*
Y22429D01*
Y22407D01*
Y22384D01*
Y22362D01*
Y22340D01*
Y22317D01*
Y22295D01*
Y22272D01*
Y22250D01*
Y22227D01*
Y22205D01*
Y22183D01*
Y22160D01*
Y22138D01*
Y22115D01*
Y22093D01*
Y22071D01*
Y22048D01*
Y22026D01*
Y22003D01*
Y21981D01*
Y21958D01*
Y21936D01*
Y21914D01*
Y21891D01*
Y21869D01*
Y21846D01*
Y21824D01*
Y21802D01*
Y21779D01*
Y21757D01*
Y21734D01*
Y21712D01*
Y21689D01*
Y21667D01*
Y21645D01*
Y21622D01*
Y21600D01*
Y21577D01*
Y21555D01*
Y21532D01*
Y21510D01*
Y21488D01*
Y21465D01*
Y21443D01*
Y21420D01*
Y21398D01*
Y21376D01*
Y21353D01*
Y21331D01*
Y21308D01*
Y21286D01*
Y21263D01*
Y21241D01*
Y21219D01*
Y21196D01*
Y21174D01*
Y21151D01*
Y21129D01*
Y21107D01*
Y21084D01*
Y21062D01*
Y21039D01*
Y21017D01*
Y20994D01*
Y20972D01*
Y20950D01*
Y20927D01*
Y20905D01*
Y20882D01*
Y20860D01*
Y20838D01*
Y20815D01*
Y20793D01*
Y20770D01*
Y20748D01*
Y20726D01*
Y20703D01*
Y20681D01*
Y20658D01*
Y20636D01*
Y20613D01*
Y20591D01*
Y20569D01*
Y20546D01*
Y20524D01*
Y20501D01*
Y20479D01*
Y20457D01*
Y20434D01*
Y20412D01*
Y20389D01*
Y20367D01*
Y20344D01*
Y20322D01*
Y20300D01*
Y20277D01*
Y20255D01*
Y20232D01*
Y20210D01*
Y20188D01*
Y20165D01*
Y20143D01*
Y20120D01*
Y20098D01*
Y20075D01*
Y20053D01*
Y20031D01*
Y20008D01*
Y19986D01*
Y19963D01*
X85746D01*
Y19986D01*
Y20008D01*
X85768D01*
Y20031D01*
X85791D01*
Y20053D01*
Y20075D01*
X85813D01*
Y20098D01*
X85835D01*
Y20120D01*
Y20143D01*
X85858D01*
Y20165D01*
Y20188D01*
X85880D01*
Y20210D01*
X85903D01*
Y20232D01*
Y20255D01*
X85925D01*
Y20277D01*
X85948D01*
Y20300D01*
Y20322D01*
X85970D01*
Y20344D01*
X85992D01*
Y20367D01*
Y20389D01*
X86015D01*
Y20412D01*
X86037D01*
Y20434D01*
Y20457D01*
X86060D01*
Y20479D01*
Y20501D01*
X86082D01*
Y20524D01*
X86105D01*
Y20546D01*
Y20569D01*
X86127D01*
Y20591D01*
X86149D01*
Y20613D01*
Y20636D01*
X86172D01*
Y20658D01*
Y20681D01*
X86194D01*
Y20703D01*
X86217D01*
Y20726D01*
Y20748D01*
X86239D01*
Y20770D01*
X86261D01*
Y20793D01*
Y20815D01*
X86284D01*
Y20838D01*
X86306D01*
Y20860D01*
Y20882D01*
X86329D01*
Y20905D01*
Y20927D01*
X86351D01*
Y20950D01*
X86374D01*
Y20972D01*
Y20994D01*
X86396D01*
Y21017D01*
X86418D01*
Y21039D01*
Y21062D01*
X86441D01*
Y21084D01*
Y21107D01*
X86463D01*
Y21129D01*
X86486D01*
Y21151D01*
Y21174D01*
X86508D01*
Y21196D01*
X86530D01*
Y21219D01*
Y21241D01*
X86553D01*
Y21263D01*
X86575D01*
Y21286D01*
Y21308D01*
X86598D01*
Y21331D01*
Y21353D01*
X86620D01*
Y21376D01*
X86642D01*
Y21398D01*
Y21420D01*
X86665D01*
Y21443D01*
X86687D01*
Y21465D01*
Y21488D01*
X86710D01*
Y21510D01*
Y21532D01*
X86732D01*
Y21555D01*
X86755D01*
Y21577D01*
Y21600D01*
X86777D01*
Y21622D01*
X86799D01*
Y21645D01*
Y21667D01*
X86822D01*
Y21689D01*
X86844D01*
Y21712D01*
Y21734D01*
X86867D01*
Y21757D01*
Y21779D01*
X86889D01*
Y21802D01*
X86911D01*
Y21824D01*
Y21846D01*
X86934D01*
Y21869D01*
X86956D01*
Y21891D01*
Y21914D01*
X86979D01*
Y21936D01*
Y21958D01*
X87001D01*
Y21981D01*
X87024D01*
Y22003D01*
Y22026D01*
X87046D01*
Y22048D01*
X87068D01*
Y22071D01*
Y22093D01*
X87091D01*
Y22115D01*
X87113D01*
Y22138D01*
Y22160D01*
X87136D01*
Y22183D01*
Y22205D01*
X87158D01*
Y22227D01*
X87181D01*
Y22250D01*
Y22272D01*
X87203D01*
Y22295D01*
X87225D01*
Y22317D01*
Y22340D01*
X87248D01*
Y22362D01*
Y22384D01*
X87270D01*
Y22407D01*
X87293D01*
Y22429D01*
Y22452D01*
X87315D01*
Y22474D01*
X87337D01*
Y22496D01*
Y22519D01*
X87360D01*
Y22541D01*
X87382D01*
Y22564D01*
Y22586D01*
X87405D01*
Y22609D01*
Y22631D01*
X87427D01*
Y22653D01*
X87450D01*
Y22676D01*
Y22698D01*
X87472D01*
Y22721D01*
X87494D01*
Y22743D01*
Y22765D01*
X87517D01*
Y22788D01*
Y22810D01*
Y22833D01*
Y22855D01*
Y22877D01*
Y22900D01*
Y22922D01*
Y22945D01*
Y22967D01*
Y22990D01*
Y23012D01*
Y23034D01*
Y23057D01*
Y23079D01*
Y23102D01*
Y23124D01*
Y23146D01*
Y23169D01*
Y23191D01*
Y23214D01*
Y23236D01*
Y23259D01*
Y23281D01*
Y23303D01*
Y23326D01*
Y23348D01*
Y23371D01*
Y23393D01*
Y23415D01*
Y23438D01*
Y23460D01*
Y23483D01*
Y23505D01*
Y23528D01*
Y23550D01*
Y23572D01*
Y23595D01*
Y23617D01*
Y23640D01*
Y23662D01*
Y23685D01*
Y23707D01*
Y23729D01*
Y23752D01*
Y23774D01*
Y23797D01*
Y23819D01*
Y23841D01*
Y23864D01*
Y23886D01*
Y23909D01*
Y23931D01*
Y23954D01*
Y23976D01*
Y23998D01*
Y24021D01*
Y24043D01*
Y24066D01*
Y24088D01*
Y24110D01*
Y24133D01*
Y24155D01*
Y24178D01*
Y24200D01*
Y24223D01*
Y24245D01*
Y24267D01*
Y24290D01*
Y24312D01*
Y24335D01*
Y24357D01*
Y24379D01*
Y24402D01*
Y24424D01*
Y24447D01*
Y24469D01*
Y24491D01*
Y24514D01*
Y24536D01*
Y24559D01*
Y24581D01*
Y24604D01*
Y24626D01*
Y24648D01*
Y24671D01*
Y24693D01*
Y24716D01*
Y24738D01*
Y24760D01*
Y24783D01*
Y24805D01*
Y24828D01*
Y24850D01*
Y24873D01*
Y24895D01*
Y24917D01*
Y24940D01*
Y24962D01*
Y24985D01*
Y25007D01*
Y25030D01*
Y25052D01*
Y25074D01*
Y25097D01*
Y25119D01*
Y25142D01*
Y25164D01*
Y25186D01*
Y25209D01*
Y25231D01*
Y25254D01*
Y25276D01*
Y25298D01*
Y25321D01*
Y25343D01*
Y25366D01*
Y25388D01*
Y25411D01*
Y25433D01*
Y25455D01*
Y25478D01*
Y25500D01*
Y25523D01*
Y25545D01*
Y25567D01*
Y25590D01*
Y25612D01*
Y25635D01*
Y25657D01*
Y25679D01*
Y25702D01*
Y25724D01*
Y25747D01*
Y25769D01*
Y25792D01*
Y25814D01*
Y25837D01*
Y25859D01*
Y25881D01*
Y25904D01*
Y25926D01*
Y25949D01*
Y25971D01*
Y25993D01*
Y26016D01*
Y26038D01*
Y26061D01*
Y26083D01*
Y26105D01*
Y26128D01*
Y26150D01*
Y26173D01*
Y26195D01*
Y26217D01*
Y26240D01*
Y26262D01*
Y26285D01*
Y26307D01*
Y26330D01*
Y26352D01*
Y26375D01*
Y26397D01*
Y26419D01*
Y26442D01*
Y26464D01*
Y26487D01*
Y26509D01*
Y26531D01*
Y26554D01*
Y26576D01*
Y26599D01*
Y26621D01*
Y26643D01*
Y26666D01*
Y26688D01*
Y26711D01*
Y26733D01*
Y26755D01*
Y26778D01*
Y26800D01*
Y26823D01*
Y26845D01*
Y26868D01*
Y26890D01*
Y26912D01*
Y26935D01*
Y26957D01*
Y26980D01*
Y27002D01*
Y27024D01*
Y27047D01*
Y27069D01*
Y27092D01*
Y27114D01*
Y27137D01*
Y27159D01*
Y27181D01*
Y27204D01*
Y27226D01*
Y27249D01*
Y27271D01*
Y27294D01*
Y27316D01*
Y27338D01*
Y27361D01*
Y27383D01*
Y27406D01*
Y27428D01*
Y27450D01*
Y27473D01*
Y27495D01*
Y27518D01*
Y27540D01*
Y27562D01*
Y27585D01*
Y27607D01*
Y27630D01*
Y27652D01*
Y27675D01*
Y27697D01*
Y27719D01*
Y27742D01*
Y27764D01*
Y27787D01*
Y27809D01*
Y27832D01*
Y27854D01*
Y27876D01*
Y27899D01*
Y27921D01*
Y27944D01*
Y27966D01*
Y27988D01*
Y28011D01*
Y28033D01*
Y28056D01*
Y28078D01*
Y28100D01*
Y28123D01*
Y28145D01*
Y28168D01*
Y28190D01*
Y28213D01*
Y28235D01*
Y28257D01*
Y28280D01*
Y28302D01*
Y28325D01*
Y28347D01*
Y28370D01*
Y28392D01*
Y28414D01*
Y28437D01*
Y28459D01*
Y28482D01*
Y28504D01*
Y28526D01*
Y28549D01*
Y28571D01*
Y28594D01*
Y28616D01*
Y28638D01*
Y28661D01*
Y28683D01*
Y28706D01*
Y28728D01*
Y28751D01*
Y28773D01*
Y28795D01*
Y28818D01*
Y28840D01*
Y28863D01*
Y28885D01*
Y28907D01*
Y28930D01*
Y28952D01*
Y28975D01*
Y28997D01*
Y29020D01*
Y29042D01*
Y29064D01*
Y29087D01*
Y29109D01*
Y29132D01*
Y29154D01*
Y29177D01*
Y29199D01*
Y29221D01*
Y29244D01*
Y29266D01*
Y29289D01*
Y29311D01*
Y29333D01*
Y29356D01*
Y29378D01*
Y29401D01*
Y29423D01*
Y29445D01*
Y29468D01*
Y29490D01*
Y29513D01*
Y29535D01*
Y29558D01*
Y29580D01*
Y29602D01*
Y29625D01*
Y29647D01*
Y29670D01*
Y29692D01*
Y29715D01*
Y29737D01*
Y29759D01*
Y29782D01*
Y29804D01*
Y29827D01*
Y29849D01*
Y29871D01*
Y29894D01*
Y29916D01*
Y29939D01*
Y29961D01*
Y29983D01*
Y30006D01*
Y30028D01*
Y30051D01*
Y30073D01*
Y30096D01*
Y30118D01*
Y30140D01*
Y30163D01*
Y30185D01*
Y30208D01*
Y30230D01*
Y30253D01*
Y30275D01*
Y30297D01*
Y30320D01*
Y30342D01*
Y30365D01*
Y30387D01*
Y30409D01*
Y30432D01*
Y30454D01*
Y30477D01*
Y30499D01*
Y30522D01*
Y30544D01*
Y30566D01*
Y30589D01*
Y30611D01*
Y30634D01*
Y30656D01*
Y30678D01*
Y30701D01*
Y30723D01*
Y30746D01*
Y30768D01*
Y30790D01*
Y30813D01*
Y30835D01*
Y30858D01*
Y30880D01*
Y30903D01*
Y30925D01*
Y30947D01*
Y30970D01*
Y30992D01*
Y31015D01*
Y31037D01*
Y31060D01*
Y31082D01*
Y31104D01*
Y31127D01*
Y31149D01*
Y31172D01*
Y31194D01*
Y31216D01*
Y31239D01*
Y31261D01*
Y31284D01*
Y31306D01*
Y31328D01*
Y31351D01*
Y31373D01*
Y31396D01*
Y31418D01*
Y31441D01*
Y31463D01*
Y31485D01*
Y31508D01*
Y31530D01*
Y31553D01*
Y31575D01*
Y31598D01*
Y31620D01*
Y31642D01*
Y31665D01*
Y31687D01*
Y31710D01*
Y31732D01*
Y31754D01*
Y31777D01*
Y31799D01*
Y31822D01*
Y31844D01*
Y31866D01*
Y31889D01*
Y31911D01*
Y31934D01*
Y31956D01*
X88481D01*
Y31934D01*
X88682D01*
Y31911D01*
X88794D01*
Y31889D01*
X88907D01*
Y31866D01*
X88974D01*
Y31844D01*
X89041D01*
Y31822D01*
X89086D01*
Y31799D01*
X89131D01*
Y31777D01*
X89175D01*
Y31754D01*
X89220D01*
Y31732D01*
X89265D01*
Y31710D01*
X89288D01*
Y31687D01*
X89310D01*
Y31665D01*
X89355D01*
Y31642D01*
X89377D01*
Y31620D01*
X89400D01*
Y31598D01*
X89422D01*
Y31575D01*
X89445D01*
Y31553D01*
X89467D01*
Y31530D01*
Y31508D01*
X89489D01*
Y31485D01*
X89512D01*
Y31463D01*
X89534D01*
Y31441D01*
Y31418D01*
X89557D01*
Y31396D01*
Y31373D01*
X89579D01*
Y31351D01*
X89601D01*
Y31328D01*
Y31306D01*
X89624D01*
Y31284D01*
Y31261D01*
Y31239D01*
X89646D01*
Y31216D01*
Y31194D01*
X89669D01*
Y31172D01*
Y31149D01*
Y31127D01*
Y31104D01*
X89691D01*
Y31082D01*
Y31060D01*
Y31037D01*
X89714D01*
Y31015D01*
Y30992D01*
Y30970D01*
Y30947D01*
Y30925D01*
X89736D01*
Y30903D01*
Y30880D01*
Y30858D01*
Y30835D01*
Y30813D01*
X89758D01*
Y30790D01*
Y30768D01*
Y30746D01*
Y30723D01*
Y30701D01*
Y30678D01*
Y30656D01*
Y30634D01*
Y30611D01*
Y30589D01*
X89781D01*
Y30566D01*
Y30544D01*
Y30522D01*
Y30499D01*
Y30477D01*
Y30454D01*
Y30432D01*
Y30409D01*
Y30387D01*
Y30365D01*
Y30342D01*
Y30320D01*
Y30297D01*
Y30275D01*
Y30253D01*
Y30230D01*
Y30208D01*
Y30185D01*
Y30163D01*
Y30140D01*
Y30118D01*
Y30096D01*
Y30073D01*
Y30051D01*
Y30028D01*
Y30006D01*
Y29983D01*
Y29961D01*
Y29939D01*
Y29916D01*
Y29894D01*
Y29871D01*
Y29849D01*
Y29827D01*
Y29804D01*
Y29782D01*
Y29759D01*
Y29737D01*
Y29715D01*
Y29692D01*
Y29670D01*
Y29647D01*
Y29625D01*
Y29602D01*
Y29580D01*
Y29558D01*
Y29535D01*
Y29513D01*
Y29490D01*
Y29468D01*
Y29445D01*
Y29423D01*
Y29401D01*
Y29378D01*
Y29356D01*
Y29333D01*
Y29311D01*
Y29289D01*
Y29266D01*
Y29244D01*
Y29221D01*
Y29199D01*
Y29177D01*
Y29154D01*
Y29132D01*
Y29109D01*
Y29087D01*
Y29064D01*
Y29042D01*
Y29020D01*
Y28997D01*
Y28975D01*
Y28952D01*
Y28930D01*
Y28907D01*
Y28885D01*
Y28863D01*
Y28840D01*
Y28818D01*
Y28795D01*
Y28773D01*
Y28751D01*
Y28728D01*
Y28706D01*
Y28683D01*
Y28661D01*
Y28638D01*
Y28616D01*
Y28594D01*
Y28571D01*
Y28549D01*
Y28526D01*
Y28504D01*
Y28482D01*
Y28459D01*
Y28437D01*
Y28414D01*
Y28392D01*
Y28370D01*
Y28347D01*
Y28325D01*
Y28302D01*
Y28280D01*
Y28257D01*
Y28235D01*
Y28213D01*
Y28190D01*
Y28168D01*
Y28145D01*
Y28123D01*
Y28100D01*
Y28078D01*
Y28056D01*
Y28033D01*
Y28011D01*
Y27988D01*
Y27966D01*
Y27944D01*
Y27921D01*
Y27899D01*
Y27876D01*
Y27854D01*
Y27832D01*
X89803D01*
Y27809D01*
Y27787D01*
Y27764D01*
Y27742D01*
Y27719D01*
Y27697D01*
Y27675D01*
Y27652D01*
Y27630D01*
Y27607D01*
Y27585D01*
X89826D01*
Y27562D01*
Y27540D01*
Y27518D01*
Y27495D01*
Y27473D01*
Y27450D01*
Y27428D01*
X89848D01*
Y27406D01*
Y27383D01*
Y27361D01*
Y27338D01*
Y27316D01*
Y27294D01*
X89871D01*
Y27271D01*
Y27249D01*
Y27226D01*
Y27204D01*
X89893D01*
Y27181D01*
Y27159D01*
Y27137D01*
Y27114D01*
X89915D01*
Y27092D01*
Y27069D01*
Y27047D01*
X89938D01*
Y27024D01*
Y27002D01*
Y26980D01*
X89960D01*
Y26957D01*
Y26935D01*
X89982D01*
Y26912D01*
Y26890D01*
Y26868D01*
X90005D01*
Y26845D01*
Y26823D01*
X90027D01*
Y26800D01*
Y26778D01*
Y26755D01*
X90050D01*
Y26733D01*
Y26711D01*
X90072D01*
Y26688D01*
Y26666D01*
X91597D01*
Y26688D01*
X91619D01*
Y26711D01*
X91641D01*
Y26733D01*
Y26755D01*
X91664D01*
Y26778D01*
Y26800D01*
X91686D01*
Y26823D01*
X91709D01*
Y26845D01*
Y26868D01*
X91731D01*
Y26890D01*
Y26912D01*
X91753D01*
Y26935D01*
X91776D01*
Y26957D01*
Y26980D01*
X91798D01*
Y27002D01*
Y27024D01*
X91776D01*
Y27047D01*
Y27069D01*
X91753D01*
Y27092D01*
Y27114D01*
Y27137D01*
X91731D01*
Y27159D01*
Y27181D01*
Y27204D01*
X91709D01*
Y27226D01*
Y27249D01*
Y27271D01*
X91686D01*
Y27294D01*
Y27316D01*
Y27338D01*
X91664D01*
Y27361D01*
Y27383D01*
Y27406D01*
Y27428D01*
Y27450D01*
X91641D01*
Y27473D01*
Y27495D01*
Y27518D01*
Y27540D01*
Y27562D01*
Y27585D01*
X91619D01*
Y27607D01*
Y27630D01*
Y27652D01*
Y27675D01*
Y27697D01*
Y27719D01*
Y27742D01*
Y27764D01*
X91597D01*
Y27787D01*
Y27809D01*
Y27832D01*
Y27854D01*
Y27876D01*
Y27899D01*
Y27921D01*
Y27944D01*
Y27966D01*
Y27988D01*
Y28011D01*
Y28033D01*
Y28056D01*
Y28078D01*
Y28100D01*
Y28123D01*
Y28145D01*
Y28168D01*
Y28190D01*
Y28213D01*
Y28235D01*
Y28257D01*
Y28280D01*
Y28302D01*
Y28325D01*
Y28347D01*
Y28370D01*
Y28392D01*
Y28414D01*
Y28437D01*
Y28459D01*
Y28482D01*
Y28504D01*
Y28526D01*
Y28549D01*
Y28571D01*
Y28594D01*
Y28616D01*
Y28638D01*
Y28661D01*
Y28683D01*
Y28706D01*
Y28728D01*
Y28751D01*
Y28773D01*
Y28795D01*
Y28818D01*
Y28840D01*
Y28863D01*
Y28885D01*
Y28907D01*
Y28930D01*
Y28952D01*
Y28975D01*
Y28997D01*
Y29020D01*
Y29042D01*
Y29064D01*
Y29087D01*
Y29109D01*
Y29132D01*
Y29154D01*
Y29177D01*
Y29199D01*
Y29221D01*
Y29244D01*
Y29266D01*
Y29289D01*
Y29311D01*
Y29333D01*
Y29356D01*
Y29378D01*
Y29401D01*
Y29423D01*
Y29445D01*
Y29468D01*
Y29490D01*
Y29513D01*
Y29535D01*
Y29558D01*
Y29580D01*
Y29602D01*
Y29625D01*
Y29647D01*
Y29670D01*
Y29692D01*
Y29715D01*
Y29737D01*
Y29759D01*
Y29782D01*
Y29804D01*
Y29827D01*
Y29849D01*
Y29871D01*
Y29894D01*
Y29916D01*
Y29939D01*
Y29961D01*
Y29983D01*
Y30006D01*
Y30028D01*
Y30051D01*
Y30073D01*
Y30096D01*
Y30118D01*
Y30140D01*
Y30163D01*
Y30185D01*
Y30208D01*
Y30230D01*
Y30253D01*
Y30275D01*
Y30297D01*
Y30320D01*
Y30342D01*
Y30365D01*
Y30387D01*
Y30409D01*
Y30432D01*
Y30454D01*
Y30477D01*
Y30499D01*
X91574D01*
Y30522D01*
Y30544D01*
Y30566D01*
Y30589D01*
Y30611D01*
Y30634D01*
Y30656D01*
Y30678D01*
Y30701D01*
Y30723D01*
Y30746D01*
Y30768D01*
Y30790D01*
Y30813D01*
Y30835D01*
Y30858D01*
X91552D01*
Y30880D01*
Y30903D01*
Y30925D01*
Y30947D01*
Y30970D01*
Y30992D01*
Y31015D01*
Y31037D01*
X91529D01*
Y31060D01*
Y31082D01*
Y31104D01*
Y31127D01*
Y31149D01*
Y31172D01*
Y31194D01*
X91507D01*
Y31216D01*
Y31239D01*
Y31261D01*
Y31284D01*
Y31306D01*
X91484D01*
Y31328D01*
Y31351D01*
Y31373D01*
Y31396D01*
X91462D01*
Y31418D01*
Y31441D01*
Y31463D01*
Y31485D01*
X91440D01*
Y31508D01*
Y31530D01*
Y31553D01*
X91417D01*
Y31575D01*
Y31598D01*
Y31620D01*
Y31642D01*
X91395D01*
Y31665D01*
Y31687D01*
Y31710D01*
X91372D01*
Y31732D01*
Y31754D01*
X91350D01*
Y31777D01*
Y31799D01*
Y31822D01*
X91328D01*
Y31844D01*
Y31866D01*
X91305D01*
Y31889D01*
Y31911D01*
Y31934D01*
X91283D01*
Y31956D01*
Y31979D01*
X91260D01*
Y32001D01*
Y32023D01*
X91238D01*
Y32046D01*
Y32068D01*
X91215D01*
Y32091D01*
X91193D01*
Y32113D01*
Y32135D01*
X91171D01*
Y32158D01*
Y32180D01*
X91148D01*
Y32203D01*
X91126D01*
Y32225D01*
Y32248D01*
X91103D01*
Y32270D01*
X91081D01*
Y32292D01*
Y32315D01*
X91058D01*
Y32337D01*
X91036D01*
Y32360D01*
X91014D01*
Y32382D01*
Y32405D01*
X90991D01*
Y32427D01*
X90969D01*
Y32449D01*
X90947D01*
Y32472D01*
X90924D01*
Y32494D01*
X90902D01*
Y32517D01*
X90879D01*
Y32539D01*
X90857D01*
Y32561D01*
X90834D01*
Y32584D01*
X90812D01*
Y32606D01*
X90790D01*
Y32629D01*
X90767D01*
Y32651D01*
X90745D01*
Y32673D01*
X90722D01*
Y32696D01*
X90700D01*
Y32718D01*
X90655D01*
Y32741D01*
X90633D01*
Y32763D01*
X90610D01*
Y32785D01*
X90588D01*
Y32808D01*
X90543D01*
Y32830D01*
X90521D01*
Y32853D01*
X90476D01*
Y32875D01*
X90453D01*
Y32898D01*
X90431D01*
Y32920D01*
X90453D01*
Y32942D01*
X90498D01*
Y32965D01*
X90521D01*
Y32987D01*
X90565D01*
Y33010D01*
X90588D01*
Y33032D01*
X90610D01*
Y33055D01*
X90655D01*
Y33077D01*
X90677D01*
Y33099D01*
X90700D01*
Y33122D01*
X90722D01*
Y33144D01*
X90745D01*
Y33167D01*
X90767D01*
Y33189D01*
X90812D01*
Y33211D01*
X90834D01*
Y33234D01*
X90857D01*
Y33256D01*
X90879D01*
Y33279D01*
X90902D01*
Y33301D01*
Y33323D01*
X90924D01*
Y33346D01*
X90947D01*
Y33368D01*
X90969D01*
Y33391D01*
X90991D01*
Y33413D01*
X91014D01*
Y33436D01*
Y33458D01*
X91036D01*
Y33480D01*
X91058D01*
Y33503D01*
X91081D01*
Y33525D01*
Y33548D01*
X91103D01*
Y33570D01*
X91126D01*
Y33593D01*
Y33615D01*
X91148D01*
Y33637D01*
X91171D01*
Y33660D01*
Y33682D01*
X91193D01*
Y33705D01*
Y33727D01*
X91215D01*
Y33749D01*
Y33772D01*
X91238D01*
Y33794D01*
Y33817D01*
X91260D01*
Y33839D01*
Y33862D01*
X91283D01*
Y33884D01*
Y33906D01*
X91305D01*
Y33929D01*
Y33951D01*
X91328D01*
Y33974D01*
Y33996D01*
Y34018D01*
X91350D01*
Y34041D01*
Y34063D01*
X91372D01*
Y34086D01*
Y34108D01*
Y34130D01*
X91395D01*
Y34153D01*
Y34175D01*
Y34198D01*
X91417D01*
Y34220D01*
Y34243D01*
Y34265D01*
Y34287D01*
X91440D01*
Y34310D01*
Y34332D01*
Y34355D01*
X91462D01*
Y34377D01*
Y34400D01*
Y34422D01*
Y34444D01*
Y34467D01*
X91484D01*
Y34489D01*
Y34512D01*
Y34534D01*
Y34556D01*
X91507D01*
Y34579D01*
Y34601D01*
Y34624D01*
Y34646D01*
Y34668D01*
Y34691D01*
X91529D01*
Y34713D01*
Y34736D01*
Y34758D01*
Y34781D01*
Y34803D01*
Y34825D01*
Y34848D01*
Y34870D01*
X91552D01*
Y34893D01*
Y34915D01*
Y34938D01*
Y34960D01*
Y34982D01*
Y35005D01*
Y35027D01*
Y35050D01*
Y35072D01*
Y35094D01*
Y35117D01*
Y35139D01*
X91574D01*
Y35162D01*
Y35184D01*
Y35206D01*
Y35229D01*
Y35251D01*
Y35274D01*
Y35296D01*
Y35319D01*
Y35341D01*
Y35363D01*
Y35386D01*
Y35408D01*
Y35431D01*
Y35453D01*
Y35476D01*
Y35498D01*
Y35520D01*
Y35543D01*
Y35565D01*
Y35588D01*
Y35610D01*
Y35632D01*
Y35655D01*
Y35677D01*
Y35700D01*
Y35722D01*
Y35745D01*
Y35767D01*
Y35789D01*
Y35812D01*
Y35834D01*
Y35857D01*
Y35879D01*
Y35901D01*
Y35924D01*
Y35946D01*
Y35969D01*
Y35991D01*
Y36013D01*
Y36036D01*
Y36058D01*
Y36081D01*
Y36103D01*
Y36126D01*
Y36148D01*
Y36170D01*
Y36193D01*
Y36215D01*
Y36238D01*
Y36260D01*
Y36283D01*
Y36305D01*
Y36327D01*
Y36350D01*
Y36372D01*
Y36395D01*
Y36417D01*
Y36439D01*
Y36462D01*
Y36484D01*
Y36507D01*
Y36529D01*
Y36551D01*
Y36574D01*
Y36596D01*
Y36619D01*
Y36641D01*
Y36664D01*
Y36686D01*
Y36708D01*
Y36731D01*
Y36753D01*
X91552D01*
Y36776D01*
Y36798D01*
Y36821D01*
Y36843D01*
Y36865D01*
Y36888D01*
Y36910D01*
Y36933D01*
Y36955D01*
Y36977D01*
Y37000D01*
Y37022D01*
Y37045D01*
X91529D01*
Y37067D01*
Y37089D01*
Y37112D01*
Y37134D01*
Y37157D01*
Y37179D01*
Y37202D01*
Y37224D01*
X91507D01*
Y37246D01*
Y37269D01*
Y37291D01*
Y37314D01*
Y37336D01*
Y37358D01*
X91484D01*
Y37381D01*
Y37403D01*
Y37426D01*
Y37448D01*
Y37471D01*
X91462D01*
Y37493D01*
Y37515D01*
Y37538D01*
Y37560D01*
Y37583D01*
X91440D01*
Y37605D01*
Y37628D01*
Y37650D01*
X91417D01*
Y37672D01*
Y37695D01*
Y37717D01*
Y37740D01*
X91395D01*
Y37762D01*
Y37784D01*
Y37807D01*
X91372D01*
Y37829D01*
Y37852D01*
Y37874D01*
X91350D01*
Y37896D01*
Y37919D01*
Y37941D01*
X91328D01*
Y37964D01*
Y37986D01*
X91305D01*
Y38009D01*
Y38031D01*
Y38053D01*
X91283D01*
Y38076D01*
Y38098D01*
X91260D01*
Y38121D01*
Y38143D01*
X91238D01*
Y38166D01*
Y38188D01*
X91215D01*
Y38210D01*
Y38233D01*
X91193D01*
Y38255D01*
Y38278D01*
X91171D01*
Y38300D01*
Y38322D01*
X91148D01*
Y38345D01*
Y38367D01*
X91126D01*
Y38390D01*
X91103D01*
Y38412D01*
Y38434D01*
X91081D01*
Y38457D01*
X91058D01*
Y38479D01*
Y38502D01*
X91036D01*
Y38524D01*
X91014D01*
Y38547D01*
X90991D01*
Y38569D01*
Y38591D01*
X90969D01*
Y38614D01*
X90947D01*
Y38636D01*
X90924D01*
Y38659D01*
X90902D01*
Y38681D01*
Y38703D01*
X90879D01*
Y38726D01*
X90857D01*
Y38748D01*
X90834D01*
Y38771D01*
X90812D01*
Y38793D01*
X90790D01*
Y38816D01*
X90767D01*
Y38838D01*
X90745D01*
Y38860D01*
X90722D01*
Y38883D01*
X90677D01*
Y38905D01*
X90655D01*
Y38928D01*
X90633D01*
Y38950D01*
X90610D01*
Y38972D01*
X90565D01*
Y38995D01*
X90543D01*
Y39017D01*
X90521D01*
Y39040D01*
X90476D01*
Y39062D01*
X90453D01*
Y39085D01*
X90408D01*
Y39107D01*
X90364D01*
Y39129D01*
X90341D01*
Y39152D01*
X90296D01*
Y39174D01*
X90251D01*
Y39197D01*
X90207D01*
Y39219D01*
X90162D01*
Y39241D01*
X90095D01*
Y39264D01*
X90050D01*
Y39286D01*
X89982D01*
Y39309D01*
X89938D01*
Y39331D01*
X89871D01*
Y39353D01*
X89803D01*
Y39376D01*
X89714D01*
Y39398D01*
X89624D01*
Y39421D01*
X89512D01*
Y39443D01*
X89400D01*
Y39466D01*
X89243D01*
Y39488D01*
X89041D01*
Y39510D01*
X86172D01*
Y39533D01*
X85679D01*
Y39510D01*
D02*
G37*
G36*
X14346Y54812D02*
X14473Y54794D01*
X14532Y54783D01*
X14586Y54772D01*
X14641Y54757D01*
X14688Y54743D01*
X14732Y54728D01*
X14768Y54714D01*
X14805Y54703D01*
X14830Y54692D01*
X14855Y54681D01*
X14870Y54674D01*
X14881Y54666D01*
X14885D01*
X14990Y54601D01*
X15081Y54528D01*
X15161Y54452D01*
X15227Y54379D01*
X15278Y54310D01*
X15296Y54284D01*
X15314Y54259D01*
X15325Y54237D01*
X15336Y54222D01*
X15340Y54211D01*
X15343Y54208D01*
X15372Y54150D01*
X15394Y54091D01*
X15434Y53975D01*
X15460Y53862D01*
X15482Y53756D01*
X15485Y53709D01*
X15493Y53665D01*
X15496Y53625D01*
Y53593D01*
X15500Y53567D01*
Y53531D01*
X15496Y53429D01*
X15485Y53331D01*
X15467Y53240D01*
X15449Y53159D01*
X15442Y53127D01*
X15434Y53094D01*
X15423Y53065D01*
X15416Y53039D01*
X15409Y53021D01*
X15405Y53007D01*
X15402Y52999D01*
Y52996D01*
X15361Y52897D01*
X15314Y52806D01*
X15263Y52719D01*
X15216Y52643D01*
X15194Y52610D01*
X15172Y52577D01*
X15154Y52552D01*
X15139Y52530D01*
X15125Y52512D01*
X15114Y52497D01*
X15110Y52490D01*
X15107Y52486D01*
X14171D01*
Y53556D01*
X14470D01*
Y52814D01*
X14943D01*
X14979Y52857D01*
X15012Y52908D01*
X15041Y52963D01*
X15067Y53014D01*
X15089Y53058D01*
X15107Y53098D01*
X15114Y53112D01*
X15118Y53119D01*
X15121Y53127D01*
Y53130D01*
X15147Y53207D01*
X15169Y53283D01*
X15183Y53352D01*
X15190Y53418D01*
X15198Y53473D01*
Y53494D01*
X15201Y53516D01*
Y53553D01*
X15198Y53644D01*
X15183Y53731D01*
X15165Y53811D01*
X15147Y53884D01*
X15125Y53942D01*
X15118Y53968D01*
X15110Y53986D01*
X15103Y54004D01*
X15096Y54015D01*
X15092Y54022D01*
Y54026D01*
X15045Y54102D01*
X14994Y54171D01*
X14939Y54230D01*
X14885Y54277D01*
X14834Y54317D01*
X14794Y54343D01*
X14779Y54353D01*
X14768Y54357D01*
X14761Y54364D01*
X14757D01*
X14666Y54401D01*
X14572Y54430D01*
X14477Y54448D01*
X14386Y54463D01*
X14346Y54466D01*
X14310Y54470D01*
X14273Y54474D01*
X14244D01*
X14222Y54477D01*
X14204D01*
X14193D01*
X14189D01*
X14087Y54474D01*
X13996Y54463D01*
X13909Y54448D01*
X13833Y54430D01*
X13800Y54423D01*
X13771Y54412D01*
X13745Y54404D01*
X13724Y54397D01*
X13705Y54390D01*
X13694Y54386D01*
X13687Y54382D01*
X13683D01*
X13633Y54357D01*
X13585Y54332D01*
X13542Y54306D01*
X13505Y54281D01*
X13476Y54259D01*
X13451Y54241D01*
X13436Y54226D01*
X13432Y54222D01*
X13392Y54182D01*
X13356Y54139D01*
X13327Y54091D01*
X13298Y54048D01*
X13279Y54011D01*
X13261Y53982D01*
X13254Y53960D01*
X13250Y53953D01*
X13225Y53887D01*
X13207Y53822D01*
X13196Y53753D01*
X13185Y53691D01*
X13181Y53636D01*
Y53614D01*
X13178Y53596D01*
Y53556D01*
X13181Y53487D01*
X13188Y53422D01*
X13199Y53363D01*
X13210Y53312D01*
X13225Y53269D01*
X13236Y53236D01*
X13243Y53218D01*
X13247Y53210D01*
X13272Y53156D01*
X13301Y53109D01*
X13330Y53065D01*
X13360Y53032D01*
X13385Y53007D01*
X13403Y52985D01*
X13418Y52974D01*
X13421Y52970D01*
X13465Y52937D01*
X13516Y52912D01*
X13563Y52886D01*
X13614Y52865D01*
X13658Y52850D01*
X13691Y52839D01*
X13705Y52836D01*
X13716Y52832D01*
X13720Y52828D01*
X13724D01*
X13643Y52526D01*
X13552Y52552D01*
X13472Y52584D01*
X13399Y52617D01*
X13341Y52646D01*
X13294Y52675D01*
X13261Y52697D01*
X13239Y52712D01*
X13232Y52719D01*
X13174Y52770D01*
X13126Y52825D01*
X13083Y52883D01*
X13046Y52937D01*
X13021Y52988D01*
X12999Y53028D01*
X12992Y53043D01*
X12988Y53054D01*
X12985Y53061D01*
Y53065D01*
X12955Y53149D01*
X12934Y53236D01*
X12915Y53316D01*
X12904Y53392D01*
X12897Y53462D01*
Y53491D01*
X12894Y53513D01*
Y53629D01*
X12901Y53695D01*
X12919Y53822D01*
X12930Y53880D01*
X12945Y53935D01*
X12955Y53986D01*
X12970Y54033D01*
X12985Y54077D01*
X12999Y54113D01*
X13014Y54146D01*
X13025Y54175D01*
X13036Y54197D01*
X13043Y54211D01*
X13046Y54222D01*
X13050Y54226D01*
X13083Y54277D01*
X13116Y54328D01*
X13192Y54415D01*
X13269Y54492D01*
X13349Y54554D01*
X13418Y54605D01*
X13447Y54623D01*
X13476Y54637D01*
X13498Y54652D01*
X13512Y54659D01*
X13523Y54663D01*
X13527Y54666D01*
X13647Y54717D01*
X13767Y54754D01*
X13884Y54783D01*
X13938Y54790D01*
X13989Y54801D01*
X14037Y54805D01*
X14077Y54812D01*
X14117Y54816D01*
X14149D01*
X14175Y54819D01*
X14193D01*
X14208D01*
X14211D01*
X14346Y54812D01*
D02*
G37*
G36*
X15456Y51678D02*
X13480D01*
X15456Y50360D01*
Y50015D01*
X12937D01*
Y50335D01*
X14917D01*
X12937Y51656D01*
Y51998D01*
X15456D01*
Y51678D01*
D02*
G37*
G36*
Y48548D02*
X15452Y48464D01*
X15449Y48387D01*
X15442Y48318D01*
X15434Y48260D01*
X15427Y48209D01*
X15423Y48173D01*
X15420Y48162D01*
X15416Y48151D01*
Y48144D01*
X15398Y48078D01*
X15376Y48020D01*
X15358Y47969D01*
X15336Y47925D01*
X15318Y47889D01*
X15303Y47863D01*
X15292Y47849D01*
X15289Y47841D01*
X15256Y47794D01*
X15216Y47754D01*
X15179Y47714D01*
X15143Y47681D01*
X15110Y47652D01*
X15085Y47630D01*
X15067Y47616D01*
X15059Y47612D01*
X15001Y47576D01*
X14939Y47539D01*
X14881Y47510D01*
X14823Y47488D01*
X14772Y47466D01*
X14732Y47452D01*
X14717Y47448D01*
X14706Y47445D01*
X14699Y47441D01*
X14695D01*
X14608Y47419D01*
X14521Y47401D01*
X14437Y47390D01*
X14357Y47379D01*
X14288Y47376D01*
X14259D01*
X14233Y47372D01*
X14215D01*
X14197D01*
X14189D01*
X14186D01*
X14062Y47376D01*
X13949Y47386D01*
X13847Y47405D01*
X13800Y47412D01*
X13760Y47423D01*
X13720Y47434D01*
X13687Y47441D01*
X13658Y47448D01*
X13633Y47459D01*
X13611Y47463D01*
X13596Y47470D01*
X13589Y47474D01*
X13585D01*
X13490Y47514D01*
X13407Y47561D01*
X13334Y47612D01*
X13272Y47659D01*
X13221Y47703D01*
X13185Y47739D01*
X13174Y47754D01*
X13163Y47765D01*
X13159Y47769D01*
X13156Y47772D01*
X13108Y47831D01*
X13072Y47892D01*
X13039Y47954D01*
X13014Y48013D01*
X12995Y48063D01*
X12985Y48103D01*
X12977Y48118D01*
Y48129D01*
X12974Y48136D01*
Y48140D01*
X12963Y48202D01*
X12952Y48275D01*
X12945Y48347D01*
X12941Y48420D01*
X12937Y48486D01*
Y49454D01*
X15456D01*
Y48548D01*
D02*
G37*
G36*
X15500Y43157D02*
X12981D01*
Y43492D01*
X15500D01*
Y43157D01*
D02*
G37*
G36*
Y42251D02*
X13523D01*
X15500Y40933D01*
Y40587D01*
X12981D01*
Y40907D01*
X14961D01*
X12981Y42229D01*
Y42571D01*
X15500D01*
Y42251D01*
D02*
G37*
G36*
X13279Y39386D02*
X15500D01*
Y39051D01*
X13279D01*
Y38221D01*
X12981D01*
Y40216D01*
X13279D01*
Y39386D01*
D02*
G37*
G36*
X14739Y23652D02*
X14826Y23638D01*
X14903Y23616D01*
X14972Y23591D01*
X15027Y23565D01*
X15048Y23554D01*
X15067Y23547D01*
X15081Y23536D01*
X15092Y23532D01*
X15099Y23525D01*
X15103D01*
X15172Y23470D01*
X15234Y23412D01*
X15285Y23350D01*
X15329Y23292D01*
X15361Y23241D01*
X15383Y23197D01*
X15391Y23183D01*
X15398Y23172D01*
X15402Y23165D01*
Y23161D01*
X15434Y23070D01*
X15460Y22975D01*
X15474Y22881D01*
X15489Y22790D01*
X15493Y22746D01*
X15496Y22710D01*
Y22677D01*
X15500Y22648D01*
Y22590D01*
X15496Y22491D01*
X15485Y22400D01*
X15467Y22317D01*
X15449Y22247D01*
X15434Y22189D01*
X15423Y22164D01*
X15416Y22142D01*
X15409Y22127D01*
X15405Y22116D01*
X15402Y22109D01*
Y22105D01*
X15361Y22029D01*
X15318Y21963D01*
X15270Y21905D01*
X15227Y21858D01*
X15190Y21822D01*
X15158Y21796D01*
X15136Y21778D01*
X15132Y21774D01*
X15128D01*
X15059Y21734D01*
X14994Y21705D01*
X14932Y21687D01*
X14874Y21672D01*
X14823Y21665D01*
X14783Y21658D01*
X14768D01*
X14757D01*
X14754D01*
X14750D01*
X14677Y21661D01*
X14608Y21672D01*
X14546Y21690D01*
X14495Y21709D01*
X14451Y21731D01*
X14419Y21745D01*
X14401Y21760D01*
X14393Y21763D01*
X14339Y21807D01*
X14288Y21858D01*
X14244Y21913D01*
X14204Y21967D01*
X14175Y22014D01*
X14153Y22054D01*
X14146Y22069D01*
X14139Y22080D01*
X14135Y22087D01*
Y22091D01*
X14120Y22120D01*
X14109Y22156D01*
X14095Y22196D01*
X14080Y22240D01*
X14055Y22331D01*
X14029Y22426D01*
X14018Y22469D01*
X14007Y22509D01*
X13996Y22549D01*
X13989Y22582D01*
X13982Y22608D01*
X13978Y22629D01*
X13975Y22644D01*
Y22648D01*
X13957Y22720D01*
X13942Y22786D01*
X13924Y22844D01*
X13909Y22895D01*
X13891Y22943D01*
X13876Y22983D01*
X13862Y23019D01*
X13851Y23052D01*
X13836Y23077D01*
X13825Y23099D01*
X13818Y23114D01*
X13807Y23128D01*
X13796Y23146D01*
X13793Y23150D01*
X13756Y23183D01*
X13720Y23205D01*
X13683Y23223D01*
X13647Y23234D01*
X13618Y23241D01*
X13592Y23245D01*
X13578D01*
X13571D01*
X13512Y23237D01*
X13461Y23223D01*
X13418Y23201D01*
X13378Y23176D01*
X13349Y23154D01*
X13323Y23132D01*
X13308Y23117D01*
X13305Y23110D01*
X13287Y23081D01*
X13269Y23052D01*
X13239Y22983D01*
X13221Y22910D01*
X13207Y22837D01*
X13199Y22772D01*
X13196Y22742D01*
X13192Y22720D01*
Y22670D01*
X13196Y22568D01*
X13210Y22477D01*
X13232Y22404D01*
X13254Y22342D01*
X13276Y22295D01*
X13298Y22258D01*
X13312Y22240D01*
X13316Y22233D01*
X13367Y22182D01*
X13421Y22142D01*
X13480Y22109D01*
X13538Y22087D01*
X13592Y22073D01*
X13633Y22062D01*
X13651Y22058D01*
X13662Y22054D01*
X13669D01*
X13672D01*
X13647Y21734D01*
X13567Y21741D01*
X13494Y21760D01*
X13425Y21778D01*
X13367Y21803D01*
X13319Y21825D01*
X13283Y21843D01*
X13272Y21851D01*
X13261Y21858D01*
X13258Y21861D01*
X13254D01*
X13192Y21909D01*
X13137Y21960D01*
X13090Y22014D01*
X13054Y22069D01*
X13021Y22116D01*
X13003Y22153D01*
X12995Y22167D01*
X12988Y22178D01*
X12985Y22185D01*
Y22189D01*
X12956Y22269D01*
X12934Y22356D01*
X12915Y22437D01*
X12904Y22513D01*
X12897Y22582D01*
Y22608D01*
X12894Y22633D01*
Y22681D01*
X12897Y22775D01*
X12908Y22859D01*
X12923Y22939D01*
X12937Y23008D01*
X12952Y23063D01*
X12959Y23088D01*
X12966Y23106D01*
X12974Y23121D01*
X12977Y23132D01*
X12981Y23139D01*
Y23143D01*
X13017Y23216D01*
X13057Y23281D01*
X13101Y23336D01*
X13141Y23379D01*
X13178Y23412D01*
X13207Y23438D01*
X13228Y23456D01*
X13232Y23460D01*
X13236D01*
X13298Y23496D01*
X13360Y23521D01*
X13421Y23539D01*
X13476Y23550D01*
X13523Y23558D01*
X13560Y23565D01*
X13574D01*
X13585D01*
X13589D01*
X13592D01*
X13654Y23561D01*
X13713Y23550D01*
X13767Y23536D01*
X13814Y23521D01*
X13851Y23507D01*
X13880Y23492D01*
X13898Y23481D01*
X13905Y23478D01*
X13957Y23441D01*
X14004Y23398D01*
X14044Y23354D01*
X14077Y23310D01*
X14106Y23274D01*
X14124Y23241D01*
X14139Y23219D01*
X14142Y23216D01*
Y23212D01*
X14157Y23183D01*
X14171Y23150D01*
X14197Y23077D01*
X14222Y22994D01*
X14248Y22914D01*
X14269Y22841D01*
X14277Y22808D01*
X14284Y22779D01*
X14291Y22757D01*
X14295Y22739D01*
X14299Y22728D01*
Y22724D01*
X14313Y22662D01*
X14328Y22604D01*
X14342Y22553D01*
X14353Y22509D01*
X14364Y22466D01*
X14375Y22429D01*
X14382Y22397D01*
X14393Y22371D01*
X14401Y22346D01*
X14404Y22327D01*
X14415Y22298D01*
X14419Y22280D01*
X14422Y22276D01*
X14444Y22222D01*
X14470Y22174D01*
X14495Y22135D01*
X14517Y22105D01*
X14539Y22080D01*
X14553Y22065D01*
X14564Y22054D01*
X14568Y22051D01*
X14601Y22025D01*
X14637Y22007D01*
X14673Y21996D01*
X14703Y21985D01*
X14732Y21982D01*
X14754Y21978D01*
X14772D01*
X14775D01*
X14819Y21982D01*
X14859Y21989D01*
X14896Y22000D01*
X14925Y22014D01*
X14954Y22029D01*
X14972Y22040D01*
X14987Y22047D01*
X14990Y22051D01*
X15027Y22080D01*
X15056Y22116D01*
X15081Y22153D01*
X15107Y22185D01*
X15121Y22218D01*
X15136Y22244D01*
X15143Y22262D01*
X15147Y22269D01*
X15165Y22324D01*
X15179Y22382D01*
X15187Y22440D01*
X15194Y22491D01*
X15198Y22535D01*
X15201Y22571D01*
Y22604D01*
X15198Y22684D01*
X15190Y22757D01*
X15179Y22822D01*
X15165Y22881D01*
X15150Y22928D01*
X15139Y22964D01*
X15136Y22975D01*
X15132Y22986D01*
X15128Y22990D01*
Y22994D01*
X15099Y23052D01*
X15067Y23106D01*
X15034Y23146D01*
X15001Y23183D01*
X14976Y23212D01*
X14950Y23230D01*
X14936Y23241D01*
X14932Y23245D01*
X14885Y23270D01*
X14834Y23296D01*
X14779Y23310D01*
X14732Y23325D01*
X14684Y23336D01*
X14652Y23343D01*
X14637D01*
X14626Y23347D01*
X14623D01*
X14619D01*
X14648Y23660D01*
X14739Y23652D01*
D02*
G37*
G36*
X14310Y21290D02*
X14437Y21275D01*
X14550Y21257D01*
X14604Y21243D01*
X14652Y21232D01*
X14695Y21221D01*
X14735Y21206D01*
X14772Y21195D01*
X14801Y21188D01*
X14823Y21177D01*
X14841Y21173D01*
X14852Y21166D01*
X14855D01*
X14965Y21112D01*
X15063Y21050D01*
X15147Y20984D01*
X15179Y20952D01*
X15212Y20922D01*
X15241Y20893D01*
X15267Y20864D01*
X15289Y20839D01*
X15303Y20817D01*
X15318Y20802D01*
X15329Y20788D01*
X15332Y20780D01*
X15336Y20777D01*
X15365Y20726D01*
X15391Y20675D01*
X15431Y20566D01*
X15460Y20457D01*
X15478Y20351D01*
X15485Y20300D01*
X15493Y20256D01*
X15496Y20216D01*
Y20184D01*
X15500Y20154D01*
Y20114D01*
X15496Y20042D01*
X15489Y19972D01*
X15482Y19907D01*
X15467Y19845D01*
X15449Y19787D01*
X15431Y19732D01*
X15413Y19681D01*
X15391Y19634D01*
X15372Y19594D01*
X15354Y19554D01*
X15336Y19525D01*
X15318Y19496D01*
X15303Y19477D01*
X15296Y19459D01*
X15289Y19452D01*
X15285Y19448D01*
X15241Y19397D01*
X15198Y19354D01*
X15147Y19313D01*
X15096Y19274D01*
X14994Y19208D01*
X14892Y19157D01*
X14845Y19135D01*
X14801Y19117D01*
X14761Y19102D01*
X14728Y19092D01*
X14699Y19081D01*
X14677Y19073D01*
X14663Y19070D01*
X14659D01*
X14575Y19405D01*
X14634Y19419D01*
X14688Y19437D01*
X14739Y19455D01*
X14786Y19474D01*
X14830Y19496D01*
X14866Y19517D01*
X14903Y19543D01*
X14936Y19565D01*
X14965Y19583D01*
X14987Y19605D01*
X15008Y19623D01*
X15027Y19637D01*
X15037Y19652D01*
X15048Y19663D01*
X15052Y19667D01*
X15056Y19670D01*
X15085Y19707D01*
X15107Y19747D01*
X15147Y19827D01*
X15176Y19903D01*
X15194Y19980D01*
X15209Y20045D01*
X15212Y20071D01*
Y20096D01*
X15216Y20118D01*
Y20143D01*
X15212Y20227D01*
X15198Y20307D01*
X15179Y20380D01*
X15158Y20446D01*
X15136Y20496D01*
X15125Y20518D01*
X15118Y20537D01*
X15110Y20551D01*
X15103Y20562D01*
X15099Y20569D01*
Y20573D01*
X15048Y20642D01*
X14994Y20700D01*
X14932Y20751D01*
X14874Y20791D01*
X14823Y20824D01*
X14779Y20846D01*
X14761Y20853D01*
X14750Y20861D01*
X14743Y20864D01*
X14739D01*
X14644Y20893D01*
X14550Y20915D01*
X14455Y20933D01*
X14368Y20944D01*
X14328Y20948D01*
X14291Y20952D01*
X14259D01*
X14233Y20955D01*
X14211D01*
X14193D01*
X14182D01*
X14178D01*
X14084Y20952D01*
X13996Y20944D01*
X13916Y20930D01*
X13844Y20915D01*
X13782Y20904D01*
X13756Y20897D01*
X13734Y20890D01*
X13716Y20886D01*
X13705Y20882D01*
X13698Y20879D01*
X13694D01*
X13611Y20842D01*
X13534Y20802D01*
X13472Y20759D01*
X13418Y20711D01*
X13374Y20671D01*
X13345Y20639D01*
X13327Y20613D01*
X13319Y20609D01*
Y20606D01*
X13272Y20529D01*
X13236Y20446D01*
X13210Y20366D01*
X13196Y20289D01*
X13185Y20220D01*
X13181Y20191D01*
Y20165D01*
X13178Y20147D01*
Y20118D01*
X13181Y20027D01*
X13196Y19943D01*
X13217Y19874D01*
X13239Y19812D01*
X13265Y19765D01*
X13283Y19728D01*
X13298Y19707D01*
X13305Y19699D01*
X13360Y19641D01*
X13421Y19587D01*
X13487Y19543D01*
X13552Y19506D01*
X13611Y19477D01*
X13640Y19466D01*
X13662Y19459D01*
X13680Y19452D01*
X13694Y19444D01*
X13702Y19441D01*
X13705D01*
X13629Y19113D01*
X13563Y19135D01*
X13505Y19157D01*
X13451Y19186D01*
X13396Y19212D01*
X13349Y19241D01*
X13305Y19274D01*
X13261Y19303D01*
X13225Y19332D01*
X13196Y19361D01*
X13167Y19386D01*
X13141Y19412D01*
X13123Y19430D01*
X13105Y19448D01*
X13094Y19463D01*
X13090Y19470D01*
X13086Y19474D01*
X13054Y19525D01*
X13021Y19576D01*
X12995Y19626D01*
X12974Y19681D01*
X12941Y19790D01*
X12919Y19889D01*
X12908Y19936D01*
X12904Y19976D01*
X12901Y20016D01*
X12897Y20049D01*
X12894Y20074D01*
Y20111D01*
X12901Y20231D01*
X12919Y20347D01*
X12941Y20449D01*
X12956Y20496D01*
X12970Y20540D01*
X12985Y20580D01*
X12999Y20617D01*
X13010Y20646D01*
X13021Y20675D01*
X13032Y20693D01*
X13039Y20708D01*
X13043Y20719D01*
X13047Y20722D01*
X13108Y20820D01*
X13181Y20904D01*
X13254Y20977D01*
X13327Y21039D01*
X13392Y21086D01*
X13421Y21104D01*
X13447Y21119D01*
X13465Y21134D01*
X13480Y21141D01*
X13490Y21144D01*
X13494Y21148D01*
X13607Y21199D01*
X13724Y21235D01*
X13840Y21261D01*
X13946Y21279D01*
X13993Y21286D01*
X14040Y21290D01*
X14077Y21294D01*
X14113D01*
X14139Y21297D01*
X14160D01*
X14175D01*
X14178D01*
X14310Y21290D01*
D02*
G37*
G36*
X15456Y17097D02*
X15158D01*
Y18338D01*
X12937D01*
Y18673D01*
X15456D01*
Y17097D01*
D02*
G37*
G36*
X15456Y12804D02*
Y12454D01*
X12937Y11471D01*
Y11810D01*
X14768Y12494D01*
X14845Y12523D01*
X14917Y12549D01*
X14987Y12571D01*
X15048Y12589D01*
X15103Y12607D01*
X15143Y12618D01*
X15158Y12622D01*
X15169Y12625D01*
X15176Y12629D01*
X15179D01*
X15034Y12673D01*
X14965Y12694D01*
X14903Y12716D01*
X14848Y12734D01*
X14826Y12742D01*
X14805Y12745D01*
X14790Y12753D01*
X14779Y12756D01*
X14772Y12760D01*
X14768D01*
X12937Y13415D01*
Y13779D01*
X15456Y12804D01*
D02*
G37*
G36*
X14310Y11260D02*
X14437Y11246D01*
X14550Y11227D01*
X14604Y11213D01*
X14652Y11202D01*
X14695Y11191D01*
X14735Y11176D01*
X14772Y11166D01*
X14801Y11158D01*
X14823Y11147D01*
X14841Y11144D01*
X14852Y11136D01*
X14855D01*
X14965Y11082D01*
X15063Y11020D01*
X15147Y10954D01*
X15179Y10922D01*
X15212Y10893D01*
X15241Y10863D01*
X15267Y10834D01*
X15289Y10809D01*
X15303Y10787D01*
X15318Y10772D01*
X15329Y10758D01*
X15332Y10751D01*
X15336Y10747D01*
X15365Y10696D01*
X15391Y10645D01*
X15431Y10536D01*
X15460Y10427D01*
X15478Y10321D01*
X15485Y10270D01*
X15493Y10226D01*
X15496Y10186D01*
Y10154D01*
X15500Y10125D01*
Y10085D01*
X15496Y10012D01*
X15489Y9943D01*
X15482Y9877D01*
X15467Y9815D01*
X15449Y9757D01*
X15431Y9702D01*
X15413Y9651D01*
X15391Y9604D01*
X15372Y9564D01*
X15354Y9524D01*
X15336Y9495D01*
X15318Y9466D01*
X15303Y9448D01*
X15296Y9429D01*
X15289Y9422D01*
X15285Y9418D01*
X15241Y9367D01*
X15198Y9324D01*
X15147Y9284D01*
X15096Y9244D01*
X14994Y9178D01*
X14892Y9127D01*
X14845Y9105D01*
X14801Y9087D01*
X14761Y9073D01*
X14728Y9062D01*
X14699Y9051D01*
X14677Y9043D01*
X14663Y9040D01*
X14659D01*
X14575Y9375D01*
X14634Y9389D01*
X14688Y9407D01*
X14739Y9426D01*
X14786Y9444D01*
X14830Y9466D01*
X14866Y9488D01*
X14903Y9513D01*
X14936Y9535D01*
X14965Y9553D01*
X14987Y9575D01*
X15008Y9593D01*
X15027Y9608D01*
X15037Y9622D01*
X15048Y9633D01*
X15052Y9637D01*
X15056Y9640D01*
X15085Y9677D01*
X15107Y9717D01*
X15147Y9797D01*
X15176Y9873D01*
X15194Y9950D01*
X15209Y10015D01*
X15212Y10041D01*
Y10066D01*
X15216Y10088D01*
Y10114D01*
X15212Y10197D01*
X15198Y10277D01*
X15179Y10350D01*
X15158Y10416D01*
X15136Y10467D01*
X15125Y10488D01*
X15118Y10507D01*
X15110Y10521D01*
X15103Y10532D01*
X15099Y10539D01*
Y10543D01*
X15048Y10612D01*
X14994Y10671D01*
X14932Y10722D01*
X14874Y10762D01*
X14823Y10794D01*
X14779Y10816D01*
X14761Y10823D01*
X14750Y10831D01*
X14743Y10834D01*
X14739D01*
X14644Y10863D01*
X14550Y10885D01*
X14455Y10904D01*
X14368Y10914D01*
X14328Y10918D01*
X14291Y10922D01*
X14259D01*
X14233Y10925D01*
X14211D01*
X14193D01*
X14182D01*
X14178D01*
X14084Y10922D01*
X13996Y10914D01*
X13916Y10900D01*
X13844Y10885D01*
X13782Y10874D01*
X13756Y10867D01*
X13734Y10860D01*
X13716Y10856D01*
X13705Y10853D01*
X13698Y10849D01*
X13694D01*
X13611Y10813D01*
X13534Y10772D01*
X13472Y10729D01*
X13418Y10681D01*
X13374Y10641D01*
X13345Y10609D01*
X13327Y10583D01*
X13319Y10580D01*
Y10576D01*
X13272Y10499D01*
X13236Y10416D01*
X13210Y10336D01*
X13196Y10259D01*
X13185Y10190D01*
X13181Y10161D01*
Y10135D01*
X13178Y10117D01*
Y10088D01*
X13181Y9997D01*
X13196Y9913D01*
X13217Y9844D01*
X13239Y9782D01*
X13265Y9735D01*
X13283Y9699D01*
X13298Y9677D01*
X13305Y9669D01*
X13360Y9611D01*
X13421Y9557D01*
X13487Y9513D01*
X13552Y9477D01*
X13611Y9448D01*
X13640Y9437D01*
X13662Y9429D01*
X13680Y9422D01*
X13694Y9415D01*
X13702Y9411D01*
X13705D01*
X13629Y9083D01*
X13563Y9105D01*
X13505Y9127D01*
X13451Y9156D01*
X13396Y9182D01*
X13349Y9211D01*
X13305Y9244D01*
X13261Y9273D01*
X13225Y9302D01*
X13196Y9331D01*
X13167Y9357D01*
X13141Y9382D01*
X13123Y9400D01*
X13105Y9418D01*
X13094Y9433D01*
X13090Y9440D01*
X13086Y9444D01*
X13054Y9495D01*
X13021Y9546D01*
X12995Y9597D01*
X12974Y9651D01*
X12941Y9760D01*
X12919Y9859D01*
X12908Y9906D01*
X12904Y9946D01*
X12901Y9986D01*
X12897Y10019D01*
X12894Y10044D01*
Y10081D01*
X12901Y10201D01*
X12919Y10317D01*
X12941Y10419D01*
X12955Y10467D01*
X12970Y10510D01*
X12985Y10550D01*
X12999Y10587D01*
X13010Y10616D01*
X13021Y10645D01*
X13032Y10663D01*
X13039Y10678D01*
X13043Y10689D01*
X13046Y10692D01*
X13108Y10791D01*
X13181Y10874D01*
X13254Y10947D01*
X13327Y11009D01*
X13392Y11056D01*
X13421Y11075D01*
X13447Y11089D01*
X13465Y11104D01*
X13480Y11111D01*
X13490Y11115D01*
X13494Y11118D01*
X13607Y11169D01*
X13724Y11206D01*
X13840Y11231D01*
X13946Y11249D01*
X13993Y11257D01*
X14040Y11260D01*
X14077Y11264D01*
X14113D01*
X14139Y11268D01*
X14160D01*
X14175D01*
X14178D01*
X14310Y11260D01*
D02*
G37*
G36*
Y8720D02*
X14437Y8705D01*
X14550Y8687D01*
X14604Y8672D01*
X14652Y8661D01*
X14695Y8650D01*
X14735Y8636D01*
X14772Y8625D01*
X14801Y8618D01*
X14823Y8607D01*
X14841Y8603D01*
X14852Y8596D01*
X14855D01*
X14965Y8541D01*
X15063Y8479D01*
X15147Y8414D01*
X15179Y8381D01*
X15212Y8352D01*
X15241Y8323D01*
X15267Y8294D01*
X15289Y8268D01*
X15303Y8246D01*
X15318Y8232D01*
X15329Y8217D01*
X15332Y8210D01*
X15336Y8206D01*
X15365Y8155D01*
X15391Y8104D01*
X15431Y7995D01*
X15460Y7886D01*
X15478Y7780D01*
X15485Y7729D01*
X15493Y7686D01*
X15496Y7646D01*
Y7613D01*
X15500Y7584D01*
Y7544D01*
X15496Y7471D01*
X15489Y7402D01*
X15482Y7336D01*
X15467Y7274D01*
X15449Y7216D01*
X15431Y7162D01*
X15413Y7111D01*
X15391Y7063D01*
X15372Y7023D01*
X15354Y6983D01*
X15336Y6954D01*
X15318Y6925D01*
X15303Y6907D01*
X15296Y6889D01*
X15289Y6881D01*
X15285Y6878D01*
X15241Y6827D01*
X15198Y6783D01*
X15147Y6743D01*
X15096Y6703D01*
X14994Y6637D01*
X14892Y6586D01*
X14845Y6565D01*
X14801Y6546D01*
X14761Y6532D01*
X14728Y6521D01*
X14699Y6510D01*
X14677Y6503D01*
X14663Y6499D01*
X14659D01*
X14575Y6834D01*
X14634Y6848D01*
X14688Y6867D01*
X14739Y6885D01*
X14786Y6903D01*
X14830Y6925D01*
X14866Y6947D01*
X14903Y6972D01*
X14936Y6994D01*
X14965Y7012D01*
X14987Y7034D01*
X15008Y7052D01*
X15027Y7067D01*
X15037Y7081D01*
X15048Y7092D01*
X15052Y7096D01*
X15056Y7100D01*
X15085Y7136D01*
X15107Y7176D01*
X15147Y7256D01*
X15176Y7333D01*
X15194Y7409D01*
X15209Y7475D01*
X15212Y7500D01*
Y7526D01*
X15216Y7547D01*
Y7573D01*
X15212Y7657D01*
X15198Y7737D01*
X15179Y7809D01*
X15158Y7875D01*
X15136Y7926D01*
X15125Y7948D01*
X15118Y7966D01*
X15110Y7981D01*
X15103Y7992D01*
X15099Y7999D01*
Y8002D01*
X15048Y8072D01*
X14994Y8130D01*
X14932Y8181D01*
X14874Y8221D01*
X14823Y8254D01*
X14779Y8275D01*
X14761Y8283D01*
X14750Y8290D01*
X14743Y8294D01*
X14739D01*
X14644Y8323D01*
X14550Y8345D01*
X14455Y8363D01*
X14368Y8374D01*
X14328Y8377D01*
X14291Y8381D01*
X14259D01*
X14233Y8385D01*
X14211D01*
X14193D01*
X14182D01*
X14178D01*
X14084Y8381D01*
X13996Y8374D01*
X13916Y8359D01*
X13844Y8345D01*
X13782Y8334D01*
X13756Y8326D01*
X13734Y8319D01*
X13716Y8315D01*
X13705Y8312D01*
X13698Y8308D01*
X13694D01*
X13611Y8272D01*
X13534Y8232D01*
X13472Y8188D01*
X13418Y8141D01*
X13374Y8101D01*
X13345Y8068D01*
X13327Y8042D01*
X13319Y8039D01*
Y8035D01*
X13272Y7959D01*
X13236Y7875D01*
X13210Y7795D01*
X13196Y7718D01*
X13185Y7649D01*
X13181Y7620D01*
Y7595D01*
X13178Y7576D01*
Y7547D01*
X13181Y7456D01*
X13196Y7373D01*
X13217Y7304D01*
X13239Y7242D01*
X13265Y7194D01*
X13283Y7158D01*
X13298Y7136D01*
X13305Y7129D01*
X13360Y7071D01*
X13421Y7016D01*
X13487Y6972D01*
X13552Y6936D01*
X13611Y6907D01*
X13640Y6896D01*
X13662Y6889D01*
X13680Y6881D01*
X13694Y6874D01*
X13702Y6870D01*
X13705D01*
X13629Y6543D01*
X13563Y6565D01*
X13505Y6586D01*
X13451Y6616D01*
X13396Y6641D01*
X13349Y6670D01*
X13305Y6703D01*
X13261Y6732D01*
X13225Y6761D01*
X13196Y6790D01*
X13167Y6816D01*
X13141Y6841D01*
X13123Y6859D01*
X13105Y6878D01*
X13094Y6892D01*
X13090Y6899D01*
X13086Y6903D01*
X13054Y6954D01*
X13021Y7005D01*
X12995Y7056D01*
X12974Y7111D01*
X12941Y7220D01*
X12919Y7318D01*
X12908Y7365D01*
X12904Y7405D01*
X12901Y7446D01*
X12897Y7478D01*
X12894Y7504D01*
Y7540D01*
X12901Y7660D01*
X12919Y7777D01*
X12941Y7879D01*
X12955Y7926D01*
X12970Y7970D01*
X12985Y8010D01*
X12999Y8046D01*
X13010Y8075D01*
X13021Y8104D01*
X13032Y8123D01*
X13039Y8137D01*
X13043Y8148D01*
X13046Y8152D01*
X13108Y8250D01*
X13181Y8334D01*
X13254Y8406D01*
X13327Y8468D01*
X13392Y8516D01*
X13421Y8534D01*
X13447Y8548D01*
X13465Y8563D01*
X13480Y8570D01*
X13490Y8574D01*
X13494Y8578D01*
X13607Y8629D01*
X13724Y8665D01*
X13840Y8690D01*
X13946Y8709D01*
X13993Y8716D01*
X14040Y8720D01*
X14077Y8723D01*
X14113D01*
X14139Y8727D01*
X14160D01*
X14175D01*
X14178D01*
X14310Y8720D01*
D02*
G37*
G36*
X14739Y34150D02*
X14826Y34135D01*
X14903Y34114D01*
X14972Y34088D01*
X15027Y34063D01*
X15048Y34052D01*
X15067Y34044D01*
X15081Y34034D01*
X15092Y34030D01*
X15099Y34023D01*
X15103D01*
X15172Y33968D01*
X15234Y33910D01*
X15285Y33848D01*
X15329Y33790D01*
X15361Y33739D01*
X15383Y33695D01*
X15391Y33680D01*
X15398Y33669D01*
X15402Y33662D01*
Y33659D01*
X15434Y33568D01*
X15460Y33473D01*
X15474Y33378D01*
X15489Y33287D01*
X15493Y33244D01*
X15496Y33207D01*
Y33174D01*
X15500Y33145D01*
Y33087D01*
X15496Y32989D01*
X15485Y32898D01*
X15467Y32814D01*
X15449Y32745D01*
X15434Y32687D01*
X15423Y32661D01*
X15416Y32639D01*
X15409Y32625D01*
X15405Y32614D01*
X15402Y32607D01*
Y32603D01*
X15361Y32526D01*
X15318Y32461D01*
X15270Y32403D01*
X15227Y32355D01*
X15190Y32319D01*
X15158Y32294D01*
X15136Y32275D01*
X15132Y32272D01*
X15128D01*
X15059Y32232D01*
X14994Y32203D01*
X14932Y32184D01*
X14874Y32170D01*
X14823Y32162D01*
X14783Y32155D01*
X14768D01*
X14757D01*
X14754D01*
X14750D01*
X14677Y32159D01*
X14608Y32170D01*
X14546Y32188D01*
X14495Y32206D01*
X14451Y32228D01*
X14419Y32243D01*
X14401Y32257D01*
X14393Y32261D01*
X14339Y32304D01*
X14288Y32355D01*
X14244Y32410D01*
X14204Y32465D01*
X14175Y32512D01*
X14153Y32552D01*
X14146Y32567D01*
X14139Y32577D01*
X14135Y32585D01*
Y32588D01*
X14120Y32618D01*
X14109Y32654D01*
X14095Y32694D01*
X14080Y32738D01*
X14055Y32829D01*
X14029Y32923D01*
X14018Y32967D01*
X14007Y33007D01*
X13996Y33047D01*
X13989Y33080D01*
X13982Y33105D01*
X13978Y33127D01*
X13975Y33142D01*
Y33145D01*
X13957Y33218D01*
X13942Y33284D01*
X13924Y33342D01*
X13909Y33393D01*
X13891Y33440D01*
X13876Y33480D01*
X13862Y33517D01*
X13851Y33549D01*
X13836Y33575D01*
X13825Y33597D01*
X13818Y33611D01*
X13807Y33626D01*
X13796Y33644D01*
X13793Y33648D01*
X13756Y33680D01*
X13720Y33702D01*
X13683Y33720D01*
X13647Y33731D01*
X13618Y33739D01*
X13592Y33742D01*
X13578D01*
X13571D01*
X13512Y33735D01*
X13461Y33720D01*
X13418Y33699D01*
X13378Y33673D01*
X13349Y33651D01*
X13323Y33629D01*
X13308Y33615D01*
X13305Y33608D01*
X13287Y33579D01*
X13269Y33549D01*
X13239Y33480D01*
X13221Y33407D01*
X13207Y33335D01*
X13199Y33269D01*
X13196Y33240D01*
X13192Y33218D01*
Y33167D01*
X13196Y33065D01*
X13210Y32974D01*
X13232Y32901D01*
X13254Y32840D01*
X13276Y32792D01*
X13298Y32756D01*
X13312Y32738D01*
X13316Y32730D01*
X13367Y32679D01*
X13421Y32639D01*
X13480Y32607D01*
X13538Y32585D01*
X13592Y32570D01*
X13633Y32559D01*
X13651Y32556D01*
X13662Y32552D01*
X13669D01*
X13672D01*
X13647Y32232D01*
X13567Y32239D01*
X13494Y32257D01*
X13425Y32275D01*
X13367Y32301D01*
X13319Y32323D01*
X13283Y32341D01*
X13272Y32348D01*
X13261Y32355D01*
X13258Y32359D01*
X13254D01*
X13192Y32406D01*
X13137Y32457D01*
X13090Y32512D01*
X13054Y32567D01*
X13021Y32614D01*
X13003Y32650D01*
X12995Y32665D01*
X12988Y32676D01*
X12985Y32683D01*
Y32687D01*
X12955Y32767D01*
X12934Y32854D01*
X12915Y32934D01*
X12904Y33011D01*
X12897Y33080D01*
Y33105D01*
X12894Y33131D01*
Y33178D01*
X12897Y33273D01*
X12908Y33356D01*
X12923Y33437D01*
X12937Y33506D01*
X12952Y33560D01*
X12959Y33586D01*
X12966Y33604D01*
X12974Y33619D01*
X12977Y33629D01*
X12981Y33637D01*
Y33640D01*
X13017Y33713D01*
X13057Y33779D01*
X13101Y33833D01*
X13141Y33877D01*
X13178Y33910D01*
X13207Y33935D01*
X13228Y33953D01*
X13232Y33957D01*
X13236D01*
X13298Y33993D01*
X13360Y34019D01*
X13421Y34037D01*
X13476Y34048D01*
X13523Y34055D01*
X13560Y34063D01*
X13574D01*
X13585D01*
X13589D01*
X13592D01*
X13654Y34059D01*
X13713Y34048D01*
X13767Y34034D01*
X13814Y34019D01*
X13851Y34004D01*
X13880Y33990D01*
X13898Y33979D01*
X13905Y33975D01*
X13957Y33939D01*
X14004Y33895D01*
X14044Y33852D01*
X14077Y33808D01*
X14106Y33771D01*
X14124Y33739D01*
X14139Y33717D01*
X14142Y33713D01*
Y33709D01*
X14157Y33680D01*
X14171Y33648D01*
X14197Y33575D01*
X14222Y33491D01*
X14248Y33411D01*
X14269Y33338D01*
X14277Y33305D01*
X14284Y33276D01*
X14291Y33255D01*
X14295Y33236D01*
X14299Y33225D01*
Y33222D01*
X14313Y33160D01*
X14328Y33102D01*
X14342Y33051D01*
X14353Y33007D01*
X14364Y32963D01*
X14375Y32927D01*
X14382Y32894D01*
X14393Y32869D01*
X14401Y32843D01*
X14404Y32825D01*
X14415Y32796D01*
X14419Y32778D01*
X14422Y32774D01*
X14444Y32719D01*
X14470Y32672D01*
X14495Y32632D01*
X14517Y32603D01*
X14539Y32577D01*
X14553Y32563D01*
X14564Y32552D01*
X14568Y32548D01*
X14601Y32523D01*
X14637Y32505D01*
X14673Y32494D01*
X14703Y32483D01*
X14732Y32479D01*
X14754Y32476D01*
X14772D01*
X14775D01*
X14819Y32479D01*
X14859Y32487D01*
X14896Y32497D01*
X14925Y32512D01*
X14954Y32526D01*
X14972Y32537D01*
X14987Y32545D01*
X14990Y32548D01*
X15027Y32577D01*
X15056Y32614D01*
X15081Y32650D01*
X15107Y32683D01*
X15121Y32716D01*
X15136Y32741D01*
X15143Y32759D01*
X15147Y32767D01*
X15165Y32821D01*
X15179Y32880D01*
X15187Y32938D01*
X15194Y32989D01*
X15198Y33033D01*
X15201Y33069D01*
Y33102D01*
X15198Y33182D01*
X15190Y33255D01*
X15179Y33320D01*
X15165Y33378D01*
X15150Y33426D01*
X15139Y33462D01*
X15136Y33473D01*
X15132Y33484D01*
X15128Y33487D01*
Y33491D01*
X15099Y33549D01*
X15067Y33604D01*
X15034Y33644D01*
X15001Y33680D01*
X14976Y33709D01*
X14950Y33728D01*
X14936Y33739D01*
X14932Y33742D01*
X14885Y33768D01*
X14834Y33793D01*
X14779Y33808D01*
X14732Y33822D01*
X14684Y33833D01*
X14652Y33841D01*
X14637D01*
X14626Y33844D01*
X14623D01*
X14619D01*
X14648Y34157D01*
X14739Y34150D01*
D02*
G37*
G36*
X15456Y30790D02*
X15452Y30707D01*
X15449Y30630D01*
X15442Y30561D01*
X15434Y30503D01*
X15427Y30452D01*
X15423Y30415D01*
X15420Y30404D01*
X15416Y30393D01*
Y30386D01*
X15398Y30321D01*
X15376Y30262D01*
X15358Y30211D01*
X15336Y30168D01*
X15318Y30131D01*
X15303Y30106D01*
X15292Y30091D01*
X15289Y30084D01*
X15256Y30037D01*
X15216Y29997D01*
X15179Y29957D01*
X15143Y29924D01*
X15110Y29895D01*
X15085Y29873D01*
X15067Y29858D01*
X15059Y29855D01*
X15001Y29818D01*
X14939Y29782D01*
X14881Y29753D01*
X14823Y29731D01*
X14772Y29709D01*
X14732Y29695D01*
X14717Y29691D01*
X14706Y29687D01*
X14699Y29684D01*
X14695D01*
X14608Y29662D01*
X14521Y29644D01*
X14437Y29633D01*
X14357Y29622D01*
X14288Y29618D01*
X14259D01*
X14233Y29614D01*
X14215D01*
X14197D01*
X14189D01*
X14186D01*
X14062Y29618D01*
X13949Y29629D01*
X13847Y29647D01*
X13800Y29655D01*
X13760Y29665D01*
X13720Y29676D01*
X13687Y29684D01*
X13658Y29691D01*
X13633Y29702D01*
X13611Y29706D01*
X13596Y29713D01*
X13589Y29716D01*
X13585D01*
X13490Y29757D01*
X13407Y29804D01*
X13334Y29855D01*
X13272Y29902D01*
X13221Y29946D01*
X13185Y29982D01*
X13174Y29997D01*
X13163Y30008D01*
X13159Y30011D01*
X13156Y30015D01*
X13108Y30073D01*
X13072Y30135D01*
X13039Y30197D01*
X13014Y30255D01*
X12995Y30306D01*
X12985Y30346D01*
X12977Y30361D01*
Y30372D01*
X12974Y30379D01*
Y30383D01*
X12963Y30444D01*
X12952Y30517D01*
X12945Y30590D01*
X12941Y30663D01*
X12937Y30728D01*
Y31697D01*
X15456D01*
Y30790D01*
D02*
G37*
G36*
Y29079D02*
X14692Y28806D01*
Y27751D01*
X15456Y27456D01*
Y27077D01*
X12937Y28108D01*
Y28472D01*
X15456Y29432D01*
Y29079D01*
D02*
G37*
G36*
X51813Y26307D02*
X51853Y26248D01*
X51900Y26190D01*
X51944Y26139D01*
X51988Y26096D01*
X52020Y26059D01*
X52035Y26048D01*
X52046Y26037D01*
X52049Y26034D01*
X52053Y26030D01*
X52130Y25968D01*
X52206Y25910D01*
X52279Y25859D01*
X52352Y25819D01*
X52413Y25782D01*
X52439Y25768D01*
X52461Y25757D01*
X52479Y25746D01*
X52494Y25743D01*
X52501Y25735D01*
X52504D01*
Y25437D01*
X52450Y25458D01*
X52395Y25484D01*
X52341Y25510D01*
X52290Y25535D01*
X52246Y25557D01*
X52210Y25575D01*
X52188Y25590D01*
X52184Y25593D01*
X52181D01*
X52115Y25633D01*
X52057Y25673D01*
X52006Y25710D01*
X51966Y25743D01*
X51929Y25768D01*
X51908Y25790D01*
X51889Y25804D01*
X51886Y25808D01*
Y23839D01*
X51576D01*
Y26368D01*
X51776D01*
X51813Y26307D01*
D02*
G37*
G36*
X58165Y25029D02*
X57873Y24989D01*
X57848Y25029D01*
X57815Y25062D01*
X57786Y25095D01*
X57757Y25120D01*
X57728Y25138D01*
X57706Y25156D01*
X57692Y25164D01*
X57688Y25167D01*
X57641Y25189D01*
X57593Y25207D01*
X57550Y25218D01*
X57506Y25229D01*
X57469Y25233D01*
X57440Y25236D01*
X57371D01*
X57328Y25229D01*
X57251Y25211D01*
X57186Y25185D01*
X57127Y25160D01*
X57084Y25131D01*
X57051Y25105D01*
X57033Y25087D01*
X57025Y25084D01*
Y25080D01*
X56975Y25018D01*
X56938Y24953D01*
X56913Y24883D01*
X56894Y24814D01*
X56884Y24756D01*
X56880Y24731D01*
Y24709D01*
X56876Y24690D01*
Y24676D01*
Y24669D01*
Y24665D01*
Y24614D01*
X56884Y24567D01*
X56902Y24476D01*
X56927Y24399D01*
X56953Y24337D01*
X56982Y24286D01*
X57007Y24246D01*
X57018Y24236D01*
X57025Y24225D01*
X57029Y24221D01*
X57033Y24217D01*
X57062Y24188D01*
X57091Y24163D01*
X57156Y24119D01*
X57218Y24090D01*
X57280Y24072D01*
X57331Y24057D01*
X57375Y24054D01*
X57389Y24050D01*
X57411D01*
X57480Y24054D01*
X57542Y24068D01*
X57597Y24086D01*
X57641Y24108D01*
X57681Y24130D01*
X57710Y24148D01*
X57724Y24163D01*
X57732Y24166D01*
X57775Y24217D01*
X57812Y24272D01*
X57841Y24334D01*
X57863Y24388D01*
X57877Y24443D01*
X57888Y24483D01*
X57892Y24501D01*
X57895Y24512D01*
Y24519D01*
Y24523D01*
X58219Y24498D01*
X58212Y24439D01*
X58201Y24385D01*
X58168Y24283D01*
X58128Y24195D01*
X58106Y24155D01*
X58085Y24123D01*
X58066Y24090D01*
X58045Y24061D01*
X58026Y24039D01*
X58008Y24021D01*
X57994Y24006D01*
X57986Y23992D01*
X57979Y23988D01*
X57976Y23984D01*
X57932Y23952D01*
X57888Y23923D01*
X57841Y23897D01*
X57793Y23875D01*
X57702Y23842D01*
X57612Y23821D01*
X57571Y23810D01*
X57531Y23806D01*
X57499Y23802D01*
X57469Y23799D01*
X57444Y23795D01*
X57411D01*
X57335Y23799D01*
X57262Y23810D01*
X57193Y23824D01*
X57131Y23842D01*
X57073Y23868D01*
X57018Y23893D01*
X56967Y23919D01*
X56924Y23948D01*
X56884Y23977D01*
X56847Y24002D01*
X56818Y24032D01*
X56792Y24054D01*
X56774Y24072D01*
X56760Y24086D01*
X56752Y24097D01*
X56749Y24101D01*
X56712Y24148D01*
X56683Y24199D01*
X56654Y24246D01*
X56632Y24297D01*
X56596Y24396D01*
X56574Y24490D01*
X56567Y24530D01*
X56559Y24570D01*
X56556Y24603D01*
X56552Y24632D01*
X56549Y24658D01*
Y24676D01*
Y24687D01*
Y24690D01*
X56552Y24756D01*
X56559Y24818D01*
X56570Y24880D01*
X56585Y24934D01*
X56603Y24985D01*
X56621Y25036D01*
X56643Y25080D01*
X56661Y25120D01*
X56683Y25156D01*
X56705Y25189D01*
X56723Y25215D01*
X56741Y25240D01*
X56756Y25258D01*
X56767Y25269D01*
X56774Y25276D01*
X56778Y25280D01*
X56822Y25320D01*
X56865Y25357D01*
X56913Y25386D01*
X56960Y25411D01*
X57007Y25437D01*
X57055Y25455D01*
X57142Y25480D01*
X57182Y25491D01*
X57218Y25499D01*
X57251Y25502D01*
X57280Y25506D01*
X57302Y25510D01*
X57382D01*
X57426Y25502D01*
X57513Y25484D01*
X57593Y25458D01*
X57666Y25429D01*
X57724Y25400D01*
X57750Y25386D01*
X57772Y25375D01*
X57790Y25364D01*
X57801Y25357D01*
X57808Y25353D01*
X57812Y25349D01*
X57677Y26030D01*
X56669D01*
Y26325D01*
X57921D01*
X58165Y25029D01*
D02*
G37*
G36*
X60007Y25313D02*
X59654D01*
Y25666D01*
X60007D01*
Y25313D01*
D02*
G37*
G36*
X53950Y24596D02*
X52992D01*
Y24905D01*
X53950D01*
Y24596D01*
D02*
G37*
G36*
X63574Y23839D02*
X63253D01*
Y25815D01*
X61936Y23839D01*
X61590D01*
Y26358D01*
X61910D01*
Y24377D01*
X63232Y26358D01*
X63574D01*
Y23839D01*
D02*
G37*
G36*
X66184D02*
X65834D01*
X64851Y26358D01*
X65190D01*
X65874Y24527D01*
X65903Y24450D01*
X65929Y24377D01*
X65951Y24308D01*
X65969Y24246D01*
X65987Y24192D01*
X65998Y24152D01*
X66002Y24137D01*
X66005Y24126D01*
X66009Y24119D01*
Y24115D01*
X66053Y24261D01*
X66075Y24330D01*
X66096Y24392D01*
X66114Y24447D01*
X66122Y24468D01*
X66125Y24490D01*
X66133Y24505D01*
X66136Y24516D01*
X66140Y24523D01*
Y24527D01*
X66795Y26358D01*
X67159D01*
X66184Y23839D01*
D02*
G37*
G36*
X55420D02*
X55071D01*
X54088Y26358D01*
X54426D01*
X55111Y24527D01*
X55140Y24450D01*
X55165Y24377D01*
X55187Y24308D01*
X55205Y24246D01*
X55224Y24192D01*
X55234Y24152D01*
X55238Y24137D01*
X55242Y24126D01*
X55246Y24119D01*
Y24115D01*
X55289Y24261D01*
X55311Y24330D01*
X55333Y24392D01*
X55351Y24447D01*
X55358Y24468D01*
X55362Y24490D01*
X55369Y24505D01*
X55373Y24516D01*
X55376Y24523D01*
Y24527D01*
X56032Y26358D01*
X56396D01*
X55420Y23839D01*
D02*
G37*
G36*
X47005D02*
X46655D01*
X45672Y26358D01*
X46011D01*
X46695Y24527D01*
X46724Y24450D01*
X46750Y24377D01*
X46771Y24308D01*
X46790Y24246D01*
X46808Y24192D01*
X46819Y24152D01*
X46823Y24137D01*
X46826Y24126D01*
X46830Y24119D01*
Y24115D01*
X46874Y24261D01*
X46895Y24330D01*
X46917Y24392D01*
X46935Y24447D01*
X46943Y24468D01*
X46946Y24490D01*
X46953Y24505D01*
X46957Y24516D01*
X46961Y24523D01*
Y24527D01*
X47616Y26358D01*
X47980D01*
X47005Y23839D01*
D02*
G37*
G36*
X64495D02*
X64160D01*
Y26358D01*
X64495D01*
Y23839D01*
D02*
G37*
G36*
X60007D02*
X59654D01*
Y24192D01*
X60007D01*
Y23839D01*
D02*
G37*
G36*
X50608D02*
X50255D01*
Y24192D01*
X50608D01*
Y23839D01*
D02*
G37*
G36*
X49043Y26365D02*
X49101Y26361D01*
X49203Y26339D01*
X49250Y26325D01*
X49294Y26310D01*
X49334Y26292D01*
X49371Y26274D01*
X49400Y26256D01*
X49429Y26237D01*
X49454Y26223D01*
X49472Y26208D01*
X49487Y26197D01*
X49498Y26186D01*
X49505Y26183D01*
X49509Y26179D01*
X49542Y26143D01*
X49574Y26107D01*
X49600Y26066D01*
X49622Y26026D01*
X49658Y25950D01*
X49680Y25877D01*
X49694Y25815D01*
X49698Y25786D01*
X49702Y25764D01*
X49705Y25743D01*
Y25728D01*
Y25721D01*
Y25717D01*
X49702Y25651D01*
X49691Y25590D01*
X49676Y25535D01*
X49658Y25488D01*
X49643Y25451D01*
X49629Y25422D01*
X49618Y25408D01*
X49614Y25400D01*
X49574Y25357D01*
X49531Y25317D01*
X49483Y25280D01*
X49436Y25251D01*
X49392Y25229D01*
X49360Y25215D01*
X49345Y25207D01*
X49334Y25204D01*
X49330Y25200D01*
X49327D01*
X49411Y25175D01*
X49480Y25142D01*
X49542Y25102D01*
X49593Y25065D01*
X49633Y25029D01*
X49662Y25000D01*
X49676Y24982D01*
X49683Y24978D01*
Y24974D01*
X49724Y24909D01*
X49756Y24840D01*
X49778Y24774D01*
X49793Y24709D01*
X49800Y24651D01*
X49804Y24625D01*
Y24603D01*
X49807Y24589D01*
Y24574D01*
Y24567D01*
Y24563D01*
X49804Y24505D01*
X49796Y24447D01*
X49786Y24392D01*
X49771Y24337D01*
X49735Y24246D01*
X49716Y24203D01*
X49694Y24166D01*
X49673Y24130D01*
X49654Y24101D01*
X49633Y24075D01*
X49618Y24054D01*
X49604Y24035D01*
X49593Y24024D01*
X49585Y24017D01*
X49582Y24013D01*
X49538Y23973D01*
X49491Y23941D01*
X49440Y23911D01*
X49389Y23886D01*
X49341Y23868D01*
X49290Y23850D01*
X49192Y23824D01*
X49148Y23813D01*
X49108Y23806D01*
X49072Y23802D01*
X49039Y23799D01*
X49014Y23795D01*
X48977D01*
X48908Y23799D01*
X48846Y23806D01*
X48785Y23817D01*
X48726Y23828D01*
X48675Y23846D01*
X48624Y23864D01*
X48577Y23882D01*
X48537Y23904D01*
X48500Y23926D01*
X48468Y23944D01*
X48442Y23963D01*
X48417Y23981D01*
X48399Y23992D01*
X48388Y24002D01*
X48380Y24010D01*
X48377Y24013D01*
X48337Y24057D01*
X48300Y24101D01*
X48271Y24145D01*
X48246Y24192D01*
X48220Y24236D01*
X48202Y24283D01*
X48177Y24366D01*
X48166Y24407D01*
X48158Y24443D01*
X48155Y24476D01*
X48151Y24501D01*
X48147Y24523D01*
Y24541D01*
Y24552D01*
Y24556D01*
X48151Y24640D01*
X48166Y24716D01*
X48188Y24785D01*
X48209Y24843D01*
X48231Y24891D01*
X48253Y24927D01*
X48268Y24949D01*
X48271Y24953D01*
Y24956D01*
X48322Y25014D01*
X48377Y25065D01*
X48435Y25105D01*
X48490Y25142D01*
X48541Y25167D01*
X48584Y25185D01*
X48599Y25193D01*
X48610Y25196D01*
X48617Y25200D01*
X48621D01*
X48555Y25229D01*
X48500Y25262D01*
X48453Y25295D01*
X48413Y25328D01*
X48384Y25357D01*
X48362Y25379D01*
X48348Y25393D01*
X48344Y25400D01*
X48311Y25451D01*
X48289Y25502D01*
X48271Y25553D01*
X48260Y25604D01*
X48253Y25644D01*
X48249Y25677D01*
Y25699D01*
Y25702D01*
Y25706D01*
X48253Y25757D01*
X48257Y25804D01*
X48282Y25895D01*
X48315Y25975D01*
X48351Y26045D01*
X48388Y26099D01*
X48406Y26121D01*
X48421Y26143D01*
X48435Y26157D01*
X48446Y26168D01*
X48450Y26172D01*
X48453Y26176D01*
X48493Y26208D01*
X48533Y26241D01*
X48577Y26267D01*
X48621Y26289D01*
X48708Y26321D01*
X48795Y26343D01*
X48832Y26354D01*
X48868Y26358D01*
X48901Y26361D01*
X48930Y26365D01*
X48952Y26368D01*
X48985D01*
X49043Y26365D01*
D02*
G37*
G36*
X64364Y31634D02*
X64404Y31576D01*
X64451Y31518D01*
X64495Y31467D01*
X64538Y31423D01*
X64571Y31387D01*
X64586Y31376D01*
X64597Y31365D01*
X64600Y31361D01*
X64604Y31358D01*
X64680Y31296D01*
X64757Y31238D01*
X64830Y31187D01*
X64902Y31146D01*
X64964Y31110D01*
X64990Y31095D01*
X65012Y31085D01*
X65030Y31074D01*
X65044Y31070D01*
X65052Y31063D01*
X65055D01*
Y30764D01*
X65001Y30786D01*
X64946Y30812D01*
X64891Y30837D01*
X64841Y30863D01*
X64797Y30884D01*
X64760Y30903D01*
X64739Y30917D01*
X64735Y30921D01*
X64731D01*
X64666Y30961D01*
X64608Y31001D01*
X64557Y31037D01*
X64517Y31070D01*
X64480Y31095D01*
X64458Y31117D01*
X64440Y31132D01*
X64437Y31136D01*
Y29166D01*
X64127D01*
Y31696D01*
X64327D01*
X64364Y31634D01*
D02*
G37*
G36*
X66471Y29166D02*
X66176D01*
X65481Y30994D01*
X65802D01*
X66206Y29876D01*
X66231Y29803D01*
X66256Y29738D01*
X66275Y29676D01*
X66293Y29629D01*
X66304Y29585D01*
X66315Y29556D01*
X66318Y29538D01*
X66322Y29530D01*
X66344Y29599D01*
X66362Y29669D01*
X66384Y29730D01*
X66402Y29785D01*
X66417Y29832D01*
X66427Y29869D01*
X66431Y29880D01*
X66435Y29891D01*
X66439Y29894D01*
Y29898D01*
X66832Y30994D01*
X67159D01*
X66471Y29166D01*
D02*
G37*
G36*
X63159D02*
X62806D01*
Y29519D01*
X63159D01*
Y29166D01*
D02*
G37*
G36*
X60221D02*
X59868D01*
Y29519D01*
X60221D01*
Y29166D01*
D02*
G37*
G36*
X61630Y31689D02*
X61721Y31674D01*
X61797Y31649D01*
X61863Y31623D01*
X61918Y31594D01*
X61939Y31583D01*
X61958Y31569D01*
X61972Y31561D01*
X61983Y31554D01*
X61987Y31547D01*
X61990D01*
X62056Y31489D01*
X62111Y31420D01*
X62158Y31350D01*
X62194Y31285D01*
X62223Y31223D01*
X62238Y31197D01*
X62245Y31172D01*
X62252Y31154D01*
X62260Y31139D01*
X62263Y31132D01*
Y31128D01*
X62278Y31074D01*
X62292Y31019D01*
X62314Y30899D01*
X62332Y30779D01*
X62344Y30666D01*
X62347Y30611D01*
X62351Y30564D01*
Y30520D01*
X62354Y30480D01*
Y30451D01*
Y30426D01*
Y30411D01*
Y30408D01*
X62351Y30280D01*
X62344Y30160D01*
X62332Y30051D01*
X62314Y29949D01*
X62296Y29854D01*
X62274Y29770D01*
X62252Y29694D01*
X62231Y29629D01*
X62209Y29570D01*
X62183Y29519D01*
X62165Y29476D01*
X62147Y29443D01*
X62129Y29414D01*
X62118Y29396D01*
X62111Y29385D01*
X62107Y29381D01*
X62067Y29337D01*
X62023Y29297D01*
X61976Y29261D01*
X61928Y29232D01*
X61881Y29206D01*
X61834Y29184D01*
X61787Y29170D01*
X61743Y29155D01*
X61699Y29144D01*
X61659Y29137D01*
X61623Y29130D01*
X61594Y29126D01*
X61568Y29123D01*
X61532D01*
X61434Y29130D01*
X61343Y29144D01*
X61266Y29170D01*
X61200Y29195D01*
X61146Y29221D01*
X61128Y29236D01*
X61110Y29246D01*
X61095Y29254D01*
X61084Y29261D01*
X61080Y29268D01*
X61077D01*
X61011Y29330D01*
X60957Y29396D01*
X60909Y29468D01*
X60873Y29534D01*
X60844Y29596D01*
X60829Y29621D01*
X60822Y29647D01*
X60815Y29665D01*
X60807Y29680D01*
X60804Y29687D01*
Y29691D01*
X60786Y29745D01*
X60771Y29800D01*
X60749Y29916D01*
X60731Y30036D01*
X60720Y30153D01*
X60716Y30204D01*
X60713Y30251D01*
Y30295D01*
X60709Y30335D01*
Y30364D01*
Y30389D01*
Y30404D01*
Y30408D01*
Y30477D01*
X60713Y30542D01*
Y30601D01*
X60716Y30659D01*
X60724Y30710D01*
X60727Y30761D01*
X60731Y30804D01*
X60738Y30844D01*
X60742Y30881D01*
X60749Y30913D01*
X60753Y30939D01*
X60756Y30961D01*
X60760Y30979D01*
X60764Y30990D01*
X60767Y30997D01*
Y31001D01*
X60789Y31081D01*
X60815Y31154D01*
X60844Y31216D01*
X60866Y31270D01*
X60891Y31317D01*
X60906Y31350D01*
X60920Y31368D01*
X60924Y31376D01*
X60964Y31430D01*
X61004Y31478D01*
X61048Y31518D01*
X61088Y31554D01*
X61124Y31580D01*
X61153Y31598D01*
X61171Y31609D01*
X61175Y31612D01*
X61179D01*
X61237Y31642D01*
X61299Y31660D01*
X61357Y31674D01*
X61412Y31685D01*
X61459Y31692D01*
X61499Y31696D01*
X61532D01*
X61630Y31689D01*
D02*
G37*
G36*
X58693D02*
X58784Y31674D01*
X58860Y31649D01*
X58925Y31623D01*
X58980Y31594D01*
X59002Y31583D01*
X59020Y31569D01*
X59035Y31561D01*
X59046Y31554D01*
X59049Y31547D01*
X59053D01*
X59118Y31489D01*
X59173Y31420D01*
X59220Y31350D01*
X59257Y31285D01*
X59286Y31223D01*
X59300Y31197D01*
X59308Y31172D01*
X59315Y31154D01*
X59322Y31139D01*
X59326Y31132D01*
Y31128D01*
X59341Y31074D01*
X59355Y31019D01*
X59377Y30899D01*
X59395Y30779D01*
X59406Y30666D01*
X59410Y30611D01*
X59413Y30564D01*
Y30520D01*
X59417Y30480D01*
Y30451D01*
Y30426D01*
Y30411D01*
Y30408D01*
X59413Y30280D01*
X59406Y30160D01*
X59395Y30051D01*
X59377Y29949D01*
X59359Y29854D01*
X59337Y29770D01*
X59315Y29694D01*
X59293Y29629D01*
X59271Y29570D01*
X59246Y29519D01*
X59228Y29476D01*
X59209Y29443D01*
X59191Y29414D01*
X59180Y29396D01*
X59173Y29385D01*
X59169Y29381D01*
X59129Y29337D01*
X59086Y29297D01*
X59038Y29261D01*
X58991Y29232D01*
X58944Y29206D01*
X58896Y29184D01*
X58849Y29170D01*
X58805Y29155D01*
X58762Y29144D01*
X58722Y29137D01*
X58685Y29130D01*
X58656Y29126D01*
X58631Y29123D01*
X58594D01*
X58496Y29130D01*
X58405Y29144D01*
X58328Y29170D01*
X58263Y29195D01*
X58208Y29221D01*
X58190Y29236D01*
X58172Y29246D01*
X58157Y29254D01*
X58147Y29261D01*
X58143Y29268D01*
X58139D01*
X58074Y29330D01*
X58019Y29396D01*
X57972Y29468D01*
X57935Y29534D01*
X57906Y29596D01*
X57892Y29621D01*
X57885Y29647D01*
X57877Y29665D01*
X57870Y29680D01*
X57866Y29687D01*
Y29691D01*
X57848Y29745D01*
X57833Y29800D01*
X57812Y29916D01*
X57793Y30036D01*
X57783Y30153D01*
X57779Y30204D01*
X57775Y30251D01*
Y30295D01*
X57772Y30335D01*
Y30364D01*
Y30389D01*
Y30404D01*
Y30408D01*
Y30477D01*
X57775Y30542D01*
Y30601D01*
X57779Y30659D01*
X57786Y30710D01*
X57790Y30761D01*
X57793Y30804D01*
X57801Y30844D01*
X57804Y30881D01*
X57812Y30913D01*
X57815Y30939D01*
X57819Y30961D01*
X57823Y30979D01*
X57826Y30990D01*
X57830Y30997D01*
Y31001D01*
X57852Y31081D01*
X57877Y31154D01*
X57906Y31216D01*
X57928Y31270D01*
X57954Y31317D01*
X57968Y31350D01*
X57983Y31368D01*
X57986Y31376D01*
X58026Y31430D01*
X58066Y31478D01*
X58110Y31518D01*
X58150Y31554D01*
X58187Y31580D01*
X58216Y31598D01*
X58234Y31609D01*
X58237Y31612D01*
X58241D01*
X58299Y31642D01*
X58361Y31660D01*
X58420Y31674D01*
X58474Y31685D01*
X58521Y31692D01*
X58561Y31696D01*
X58594D01*
X58693Y31689D01*
D02*
G37*
G36*
X58286Y37020D02*
X58348Y37016D01*
X58406Y37005D01*
X58461Y36995D01*
X58512Y36980D01*
X58559Y36965D01*
X58603Y36947D01*
X58643Y36929D01*
X58679Y36911D01*
X58708Y36893D01*
X58734Y36878D01*
X58755Y36863D01*
X58774Y36853D01*
X58785Y36842D01*
X58792Y36838D01*
X58795Y36834D01*
X58832Y36798D01*
X58865Y36758D01*
X58897Y36714D01*
X58923Y36671D01*
X58967Y36583D01*
X58996Y36496D01*
X59007Y36456D01*
X59017Y36416D01*
X59025Y36383D01*
X59032Y36354D01*
X59036Y36328D01*
Y36310D01*
X59039Y36299D01*
Y36296D01*
X58723Y36263D01*
X58715Y36347D01*
X58701Y36419D01*
X58679Y36485D01*
X58653Y36536D01*
X58632Y36580D01*
X58610Y36609D01*
X58595Y36627D01*
X58588Y36634D01*
X58533Y36678D01*
X58475Y36711D01*
X58413Y36736D01*
X58359Y36751D01*
X58308Y36762D01*
X58264Y36765D01*
X58249Y36769D01*
X58228D01*
X58151Y36765D01*
X58082Y36751D01*
X58024Y36729D01*
X57973Y36707D01*
X57933Y36682D01*
X57907Y36663D01*
X57889Y36649D01*
X57882Y36641D01*
X57838Y36590D01*
X57805Y36540D01*
X57780Y36489D01*
X57765Y36438D01*
X57754Y36398D01*
X57751Y36361D01*
X57747Y36339D01*
Y36336D01*
Y36332D01*
X57754Y36267D01*
X57769Y36197D01*
X57794Y36136D01*
X57820Y36077D01*
X57849Y36030D01*
X57875Y35990D01*
X57882Y35975D01*
X57889Y35964D01*
X57896Y35961D01*
Y35957D01*
X57925Y35917D01*
X57962Y35877D01*
X58002Y35833D01*
X58046Y35790D01*
X58137Y35702D01*
X58228Y35615D01*
X58275Y35575D01*
X58315Y35539D01*
X58355Y35506D01*
X58388Y35477D01*
X58413Y35455D01*
X58435Y35437D01*
X58450Y35426D01*
X58453Y35422D01*
X58544Y35346D01*
X58628Y35273D01*
X58697Y35207D01*
X58752Y35153D01*
X58799Y35105D01*
X58832Y35073D01*
X58850Y35051D01*
X58857Y35047D01*
Y35043D01*
X58908Y34982D01*
X58948Y34923D01*
X58985Y34865D01*
X59014Y34814D01*
X59036Y34771D01*
X59050Y34738D01*
X59058Y34716D01*
X59061Y34712D01*
Y34709D01*
X59076Y34669D01*
X59083Y34632D01*
X59090Y34596D01*
X59094Y34563D01*
X59098Y34534D01*
Y34512D01*
Y34497D01*
Y34494D01*
X57427D01*
Y34792D01*
X58668D01*
X58624Y34854D01*
X58603Y34880D01*
X58584Y34905D01*
X58566Y34927D01*
X58552Y34942D01*
X58541Y34953D01*
X58537Y34956D01*
X58519Y34974D01*
X58497Y34993D01*
X58446Y35040D01*
X58388Y35094D01*
X58326Y35149D01*
X58268Y35196D01*
X58242Y35218D01*
X58220Y35240D01*
X58202Y35255D01*
X58188Y35266D01*
X58180Y35273D01*
X58177Y35276D01*
X58118Y35327D01*
X58060Y35375D01*
X58009Y35422D01*
X57962Y35462D01*
X57918Y35502D01*
X57882Y35539D01*
X57845Y35571D01*
X57816Y35601D01*
X57787Y35630D01*
X57765Y35651D01*
X57747Y35670D01*
X57729Y35688D01*
X57711Y35710D01*
X57704Y35717D01*
X57652Y35779D01*
X57609Y35833D01*
X57573Y35888D01*
X57543Y35932D01*
X57521Y35972D01*
X57507Y36001D01*
X57500Y36019D01*
X57496Y36026D01*
X57474Y36081D01*
X57460Y36136D01*
X57445Y36187D01*
X57438Y36230D01*
X57434Y36270D01*
X57430Y36299D01*
Y36318D01*
Y36325D01*
X57434Y36379D01*
X57441Y36430D01*
X57449Y36481D01*
X57463Y36525D01*
X57500Y36612D01*
X57536Y36682D01*
X57558Y36714D01*
X57576Y36740D01*
X57594Y36765D01*
X57613Y36783D01*
X57627Y36798D01*
X57634Y36813D01*
X57642Y36816D01*
X57645Y36820D01*
X57685Y36856D01*
X57729Y36889D01*
X57776Y36915D01*
X57824Y36936D01*
X57918Y36973D01*
X58013Y36998D01*
X58053Y37005D01*
X58093Y37013D01*
X58129Y37016D01*
X58158Y37020D01*
X58184Y37024D01*
X58220D01*
X58286Y37020D01*
D02*
G37*
G36*
X54369D02*
X54431Y37016D01*
X54489Y37005D01*
X54544Y36995D01*
X54595Y36980D01*
X54642Y36965D01*
X54686Y36947D01*
X54726Y36929D01*
X54762Y36911D01*
X54791Y36893D01*
X54817Y36878D01*
X54839Y36863D01*
X54857Y36853D01*
X54868Y36842D01*
X54875Y36838D01*
X54879Y36834D01*
X54915Y36798D01*
X54948Y36758D01*
X54981Y36714D01*
X55006Y36671D01*
X55050Y36583D01*
X55079Y36496D01*
X55090Y36456D01*
X55101Y36416D01*
X55108Y36383D01*
X55115Y36354D01*
X55119Y36328D01*
Y36310D01*
X55123Y36299D01*
Y36296D01*
X54806Y36263D01*
X54799Y36347D01*
X54784Y36419D01*
X54762Y36485D01*
X54737Y36536D01*
X54715Y36580D01*
X54693Y36609D01*
X54679Y36627D01*
X54671Y36634D01*
X54617Y36678D01*
X54558Y36711D01*
X54497Y36736D01*
X54442Y36751D01*
X54391Y36762D01*
X54347Y36765D01*
X54333Y36769D01*
X54311D01*
X54235Y36765D01*
X54165Y36751D01*
X54107Y36729D01*
X54056Y36707D01*
X54016Y36682D01*
X53991Y36663D01*
X53973Y36649D01*
X53965Y36641D01*
X53922Y36590D01*
X53889Y36540D01*
X53863Y36489D01*
X53849Y36438D01*
X53838Y36398D01*
X53834Y36361D01*
X53830Y36339D01*
Y36336D01*
Y36332D01*
X53838Y36267D01*
X53852Y36197D01*
X53878Y36136D01*
X53903Y36077D01*
X53932Y36030D01*
X53958Y35990D01*
X53965Y35975D01*
X53973Y35964D01*
X53980Y35961D01*
Y35957D01*
X54009Y35917D01*
X54045Y35877D01*
X54085Y35833D01*
X54129Y35790D01*
X54220Y35702D01*
X54311Y35615D01*
X54358Y35575D01*
X54398Y35539D01*
X54438Y35506D01*
X54471Y35477D01*
X54497Y35455D01*
X54519Y35437D01*
X54533Y35426D01*
X54537Y35422D01*
X54628Y35346D01*
X54711Y35273D01*
X54781Y35207D01*
X54835Y35153D01*
X54883Y35105D01*
X54915Y35073D01*
X54934Y35051D01*
X54941Y35047D01*
Y35043D01*
X54992Y34982D01*
X55032Y34923D01*
X55068Y34865D01*
X55097Y34814D01*
X55119Y34771D01*
X55134Y34738D01*
X55141Y34716D01*
X55145Y34712D01*
Y34709D01*
X55159Y34669D01*
X55166Y34632D01*
X55174Y34596D01*
X55177Y34563D01*
X55181Y34534D01*
Y34512D01*
Y34497D01*
Y34494D01*
X53510D01*
Y34792D01*
X54751D01*
X54708Y34854D01*
X54686Y34880D01*
X54668Y34905D01*
X54650Y34927D01*
X54635Y34942D01*
X54624Y34953D01*
X54620Y34956D01*
X54602Y34974D01*
X54580Y34993D01*
X54529Y35040D01*
X54471Y35094D01*
X54409Y35149D01*
X54351Y35196D01*
X54326Y35218D01*
X54304Y35240D01*
X54286Y35255D01*
X54271Y35266D01*
X54264Y35273D01*
X54260Y35276D01*
X54202Y35327D01*
X54144Y35375D01*
X54093Y35422D01*
X54045Y35462D01*
X54002Y35502D01*
X53965Y35539D01*
X53929Y35571D01*
X53900Y35601D01*
X53871Y35630D01*
X53849Y35651D01*
X53830Y35670D01*
X53812Y35688D01*
X53794Y35710D01*
X53787Y35717D01*
X53736Y35779D01*
X53692Y35833D01*
X53656Y35888D01*
X53627Y35932D01*
X53605Y35972D01*
X53590Y36001D01*
X53583Y36019D01*
X53579Y36026D01*
X53557Y36081D01*
X53543Y36136D01*
X53528Y36187D01*
X53521Y36230D01*
X53518Y36270D01*
X53514Y36299D01*
Y36318D01*
Y36325D01*
X53518Y36379D01*
X53525Y36430D01*
X53532Y36481D01*
X53547Y36525D01*
X53583Y36612D01*
X53619Y36682D01*
X53641Y36714D01*
X53659Y36740D01*
X53678Y36765D01*
X53696Y36783D01*
X53710Y36798D01*
X53718Y36813D01*
X53725Y36816D01*
X53729Y36820D01*
X53769Y36856D01*
X53812Y36889D01*
X53860Y36915D01*
X53907Y36936D01*
X54002Y36973D01*
X54096Y36998D01*
X54136Y37005D01*
X54176Y37013D01*
X54213Y37016D01*
X54242Y37020D01*
X54267Y37024D01*
X54304D01*
X54369Y37020D01*
D02*
G37*
G36*
X52411D02*
X52473Y37016D01*
X52531Y37005D01*
X52586Y36995D01*
X52637Y36980D01*
X52684Y36965D01*
X52728Y36947D01*
X52768Y36929D01*
X52804Y36911D01*
X52833Y36893D01*
X52859Y36878D01*
X52881Y36863D01*
X52899Y36853D01*
X52910Y36842D01*
X52917Y36838D01*
X52921Y36834D01*
X52957Y36798D01*
X52990Y36758D01*
X53022Y36714D01*
X53048Y36671D01*
X53092Y36583D01*
X53121Y36496D01*
X53132Y36456D01*
X53143Y36416D01*
X53150Y36383D01*
X53157Y36354D01*
X53161Y36328D01*
Y36310D01*
X53164Y36299D01*
Y36296D01*
X52848Y36263D01*
X52840Y36347D01*
X52826Y36419D01*
X52804Y36485D01*
X52779Y36536D01*
X52757Y36580D01*
X52735Y36609D01*
X52720Y36627D01*
X52713Y36634D01*
X52658Y36678D01*
X52600Y36711D01*
X52538Y36736D01*
X52484Y36751D01*
X52433Y36762D01*
X52389Y36765D01*
X52375Y36769D01*
X52353D01*
X52276Y36765D01*
X52207Y36751D01*
X52149Y36729D01*
X52098Y36707D01*
X52058Y36682D01*
X52032Y36663D01*
X52014Y36649D01*
X52007Y36641D01*
X51963Y36590D01*
X51930Y36540D01*
X51905Y36489D01*
X51890Y36438D01*
X51880Y36398D01*
X51876Y36361D01*
X51872Y36339D01*
Y36336D01*
Y36332D01*
X51880Y36267D01*
X51894Y36197D01*
X51920Y36136D01*
X51945Y36077D01*
X51974Y36030D01*
X52000Y35990D01*
X52007Y35975D01*
X52014Y35964D01*
X52021Y35961D01*
Y35957D01*
X52051Y35917D01*
X52087Y35877D01*
X52127Y35833D01*
X52171Y35790D01*
X52262Y35702D01*
X52353Y35615D01*
X52400Y35575D01*
X52440Y35539D01*
X52480Y35506D01*
X52513Y35477D01*
X52538Y35455D01*
X52560Y35437D01*
X52575Y35426D01*
X52578Y35422D01*
X52669Y35346D01*
X52753Y35273D01*
X52822Y35207D01*
X52877Y35153D01*
X52924Y35105D01*
X52957Y35073D01*
X52975Y35051D01*
X52982Y35047D01*
Y35043D01*
X53033Y34982D01*
X53073Y34923D01*
X53110Y34865D01*
X53139Y34814D01*
X53161Y34771D01*
X53175Y34738D01*
X53183Y34716D01*
X53186Y34712D01*
Y34709D01*
X53201Y34669D01*
X53208Y34632D01*
X53215Y34596D01*
X53219Y34563D01*
X53223Y34534D01*
Y34512D01*
Y34497D01*
Y34494D01*
X51552D01*
Y34792D01*
X52793D01*
X52750Y34854D01*
X52728Y34880D01*
X52709Y34905D01*
X52691Y34927D01*
X52677Y34942D01*
X52666Y34953D01*
X52662Y34956D01*
X52644Y34974D01*
X52622Y34993D01*
X52571Y35040D01*
X52513Y35094D01*
X52451Y35149D01*
X52393Y35196D01*
X52367Y35218D01*
X52345Y35240D01*
X52327Y35255D01*
X52313Y35266D01*
X52305Y35273D01*
X52302Y35276D01*
X52244Y35327D01*
X52185Y35375D01*
X52134Y35422D01*
X52087Y35462D01*
X52043Y35502D01*
X52007Y35539D01*
X51970Y35571D01*
X51941Y35601D01*
X51912Y35630D01*
X51890Y35651D01*
X51872Y35670D01*
X51854Y35688D01*
X51836Y35710D01*
X51828Y35717D01*
X51778Y35779D01*
X51734Y35833D01*
X51697Y35888D01*
X51668Y35932D01*
X51647Y35972D01*
X51632Y36001D01*
X51625Y36019D01*
X51621Y36026D01*
X51599Y36081D01*
X51585Y36136D01*
X51570Y36187D01*
X51563Y36230D01*
X51559Y36270D01*
X51556Y36299D01*
Y36318D01*
Y36325D01*
X51559Y36379D01*
X51566Y36430D01*
X51574Y36481D01*
X51588Y36525D01*
X51625Y36612D01*
X51661Y36682D01*
X51683Y36714D01*
X51701Y36740D01*
X51719Y36765D01*
X51737Y36783D01*
X51752Y36798D01*
X51759Y36813D01*
X51767Y36816D01*
X51770Y36820D01*
X51810Y36856D01*
X51854Y36889D01*
X51901Y36915D01*
X51949Y36936D01*
X52043Y36973D01*
X52138Y36998D01*
X52178Y37005D01*
X52218Y37013D01*
X52254Y37016D01*
X52284Y37020D01*
X52309Y37024D01*
X52345D01*
X52411Y37020D01*
D02*
G37*
G36*
X66931Y34494D02*
X66596D01*
Y35680D01*
X65293D01*
Y34494D01*
X64958D01*
Y37013D01*
X65293D01*
Y35979D01*
X66596D01*
Y37013D01*
X66931D01*
Y34494D01*
D02*
G37*
G36*
X33028Y36358D02*
X33104Y36350D01*
X33177Y36339D01*
X33235Y36328D01*
X33286Y36318D01*
X33323Y36307D01*
X33337Y36303D01*
X33348Y36299D01*
X33352Y36296D01*
X33356D01*
X33417Y36270D01*
X33472Y36237D01*
X33519Y36208D01*
X33559Y36179D01*
X33588Y36150D01*
X33610Y36128D01*
X33625Y36114D01*
X33628Y36110D01*
X33661Y36063D01*
X33690Y36012D01*
X33712Y35961D01*
X33731Y35914D01*
X33745Y35866D01*
X33756Y35833D01*
X33760Y35819D01*
Y35808D01*
X33763Y35804D01*
Y35801D01*
X33461Y35761D01*
X33439Y35826D01*
X33417Y35884D01*
X33392Y35932D01*
X33370Y35968D01*
X33348Y35997D01*
X33330Y36015D01*
X33316Y36026D01*
X33312Y36030D01*
X33268Y36055D01*
X33217Y36074D01*
X33163Y36088D01*
X33112Y36095D01*
X33061Y36103D01*
X33024Y36106D01*
X32988D01*
X32904Y36103D01*
X32831Y36092D01*
X32773Y36074D01*
X32722Y36055D01*
X32686Y36034D01*
X32657Y36019D01*
X32638Y36004D01*
X32635Y36001D01*
X32606Y35968D01*
X32584Y35928D01*
X32566Y35884D01*
X32555Y35841D01*
X32547Y35801D01*
X32544Y35764D01*
Y35742D01*
Y35739D01*
Y35735D01*
Y35728D01*
Y35713D01*
Y35688D01*
X32547Y35666D01*
Y35659D01*
Y35655D01*
X32584Y35644D01*
X32624Y35633D01*
X32708Y35611D01*
X32802Y35593D01*
X32890Y35575D01*
X32933Y35568D01*
X32973Y35564D01*
X33010Y35557D01*
X33039Y35553D01*
X33064Y35550D01*
X33083D01*
X33097Y35546D01*
X33101D01*
X33166Y35539D01*
X33221Y35528D01*
X33268Y35520D01*
X33305Y35513D01*
X33334Y35509D01*
X33356Y35502D01*
X33370Y35498D01*
X33374D01*
X33421Y35484D01*
X33461Y35469D01*
X33501Y35451D01*
X33534Y35437D01*
X33563Y35422D01*
X33581Y35408D01*
X33596Y35400D01*
X33599Y35397D01*
X33636Y35371D01*
X33665Y35342D01*
X33694Y35313D01*
X33716Y35284D01*
X33734Y35258D01*
X33749Y35236D01*
X33756Y35222D01*
X33760Y35218D01*
X33778Y35178D01*
X33792Y35135D01*
X33803Y35094D01*
X33810Y35054D01*
X33814Y35022D01*
X33818Y34996D01*
Y34982D01*
Y34974D01*
X33814Y34931D01*
X33810Y34894D01*
X33792Y34818D01*
X33767Y34756D01*
X33738Y34701D01*
X33709Y34658D01*
X33683Y34625D01*
X33665Y34607D01*
X33658Y34599D01*
X33592Y34552D01*
X33519Y34516D01*
X33439Y34490D01*
X33366Y34472D01*
X33301Y34461D01*
X33272Y34457D01*
X33246D01*
X33224Y34454D01*
X33195D01*
X33130Y34457D01*
X33064Y34465D01*
X33006Y34472D01*
X32955Y34483D01*
X32915Y34494D01*
X32882Y34505D01*
X32860Y34508D01*
X32853Y34512D01*
X32791Y34538D01*
X32733Y34570D01*
X32678Y34607D01*
X32624Y34639D01*
X32580Y34672D01*
X32547Y34698D01*
X32526Y34716D01*
X32522Y34723D01*
X32518D01*
X32511Y34676D01*
X32504Y34632D01*
X32497Y34592D01*
X32486Y34559D01*
X32475Y34530D01*
X32467Y34512D01*
X32464Y34497D01*
X32460Y34494D01*
X32136D01*
X32154Y34534D01*
X32173Y34574D01*
X32187Y34610D01*
X32194Y34643D01*
X32205Y34672D01*
X32209Y34694D01*
X32213Y34709D01*
Y34712D01*
X32216Y34738D01*
X32220Y34771D01*
Y34807D01*
X32223Y34847D01*
X32227Y34938D01*
Y35029D01*
X32231Y35116D01*
Y35156D01*
Y35189D01*
Y35218D01*
Y35240D01*
Y35255D01*
Y35258D01*
Y35673D01*
Y35742D01*
X32234Y35804D01*
X32238Y35852D01*
Y35892D01*
X32242Y35921D01*
X32245Y35943D01*
X32249Y35954D01*
Y35957D01*
X32260Y36004D01*
X32274Y36044D01*
X32289Y36077D01*
X32307Y36110D01*
X32322Y36132D01*
X32333Y36150D01*
X32340Y36161D01*
X32344Y36165D01*
X32373Y36194D01*
X32405Y36223D01*
X32442Y36245D01*
X32478Y36267D01*
X32511Y36281D01*
X32537Y36292D01*
X32555Y36299D01*
X32562Y36303D01*
X32620Y36321D01*
X32682Y36336D01*
X32744Y36347D01*
X32806Y36354D01*
X32860Y36358D01*
X32901Y36361D01*
X32941D01*
X33028Y36358D01*
D02*
G37*
G36*
X64412Y34494D02*
X64092D01*
Y36638D01*
X63364Y34494D01*
X63065D01*
X62330Y36601D01*
Y34494D01*
X62010D01*
Y37013D01*
X62457D01*
X63062Y35258D01*
X63094Y35164D01*
X63120Y35084D01*
X63145Y35014D01*
X63164Y34956D01*
X63178Y34912D01*
X63189Y34880D01*
X63193Y34861D01*
X63196Y34854D01*
X63211Y34905D01*
X63229Y34964D01*
X63251Y35025D01*
X63269Y35087D01*
X63287Y35142D01*
X63302Y35186D01*
X63309Y35204D01*
X63313Y35215D01*
X63316Y35222D01*
Y35225D01*
X63913Y37013D01*
X64412D01*
Y34494D01*
D02*
G37*
G36*
X60499Y37049D02*
X60615Y37031D01*
X60717Y37009D01*
X60765Y36995D01*
X60808Y36980D01*
X60848Y36965D01*
X60885Y36951D01*
X60914Y36940D01*
X60943Y36929D01*
X60961Y36918D01*
X60976Y36911D01*
X60987Y36907D01*
X60990Y36904D01*
X61089Y36842D01*
X61172Y36769D01*
X61245Y36696D01*
X61307Y36623D01*
X61354Y36558D01*
X61373Y36529D01*
X61387Y36503D01*
X61402Y36485D01*
X61409Y36470D01*
X61413Y36459D01*
X61416Y36456D01*
X61467Y36343D01*
X61504Y36226D01*
X61529Y36110D01*
X61547Y36004D01*
X61555Y35957D01*
X61558Y35910D01*
X61562Y35873D01*
Y35837D01*
X61566Y35812D01*
Y35790D01*
Y35775D01*
Y35772D01*
X61558Y35640D01*
X61544Y35513D01*
X61525Y35400D01*
X61511Y35346D01*
X61500Y35298D01*
X61489Y35255D01*
X61475Y35215D01*
X61464Y35178D01*
X61456Y35149D01*
X61445Y35127D01*
X61442Y35109D01*
X61435Y35098D01*
Y35094D01*
X61380Y34985D01*
X61318Y34887D01*
X61252Y34803D01*
X61220Y34771D01*
X61191Y34738D01*
X61162Y34709D01*
X61132Y34683D01*
X61107Y34661D01*
X61085Y34647D01*
X61071Y34632D01*
X61056Y34621D01*
X61049Y34618D01*
X61045Y34614D01*
X60994Y34585D01*
X60943Y34559D01*
X60834Y34519D01*
X60725Y34490D01*
X60619Y34472D01*
X60568Y34465D01*
X60524Y34457D01*
X60484Y34454D01*
X60452D01*
X60423Y34450D01*
X60382D01*
X60310Y34454D01*
X60241Y34461D01*
X60175Y34468D01*
X60113Y34483D01*
X60055Y34501D01*
X60000Y34519D01*
X59949Y34538D01*
X59902Y34559D01*
X59862Y34578D01*
X59822Y34596D01*
X59793Y34614D01*
X59764Y34632D01*
X59746Y34647D01*
X59727Y34654D01*
X59720Y34661D01*
X59716Y34665D01*
X59665Y34709D01*
X59622Y34752D01*
X59582Y34803D01*
X59542Y34854D01*
X59476Y34956D01*
X59425Y35058D01*
X59403Y35105D01*
X59385Y35149D01*
X59371Y35189D01*
X59360Y35222D01*
X59349Y35251D01*
X59342Y35273D01*
X59338Y35287D01*
Y35291D01*
X59673Y35375D01*
X59687Y35317D01*
X59706Y35262D01*
X59724Y35211D01*
X59742Y35164D01*
X59764Y35120D01*
X59786Y35084D01*
X59811Y35047D01*
X59833Y35014D01*
X59851Y34985D01*
X59873Y34964D01*
X59891Y34942D01*
X59906Y34923D01*
X59920Y34912D01*
X59931Y34902D01*
X59935Y34898D01*
X59939Y34894D01*
X59975Y34865D01*
X60015Y34843D01*
X60095Y34803D01*
X60171Y34774D01*
X60248Y34756D01*
X60313Y34741D01*
X60339Y34738D01*
X60364D01*
X60386Y34734D01*
X60412D01*
X60495Y34738D01*
X60575Y34752D01*
X60648Y34771D01*
X60714Y34792D01*
X60765Y34814D01*
X60787Y34825D01*
X60805Y34832D01*
X60819Y34840D01*
X60830Y34847D01*
X60838Y34851D01*
X60841D01*
X60910Y34902D01*
X60969Y34956D01*
X61019Y35018D01*
X61060Y35076D01*
X61092Y35127D01*
X61114Y35171D01*
X61121Y35189D01*
X61129Y35200D01*
X61132Y35207D01*
Y35211D01*
X61162Y35306D01*
X61183Y35400D01*
X61202Y35495D01*
X61212Y35582D01*
X61216Y35622D01*
X61220Y35659D01*
Y35691D01*
X61223Y35717D01*
Y35739D01*
Y35757D01*
Y35768D01*
Y35772D01*
X61220Y35866D01*
X61212Y35954D01*
X61198Y36034D01*
X61183Y36106D01*
X61172Y36168D01*
X61165Y36194D01*
X61158Y36216D01*
X61154Y36234D01*
X61151Y36245D01*
X61147Y36252D01*
Y36256D01*
X61111Y36339D01*
X61071Y36416D01*
X61027Y36478D01*
X60979Y36532D01*
X60939Y36576D01*
X60907Y36605D01*
X60881Y36623D01*
X60878Y36631D01*
X60874D01*
X60798Y36678D01*
X60714Y36714D01*
X60634Y36740D01*
X60557Y36754D01*
X60488Y36765D01*
X60459Y36769D01*
X60434D01*
X60415Y36773D01*
X60386D01*
X60295Y36769D01*
X60211Y36754D01*
X60142Y36733D01*
X60080Y36711D01*
X60033Y36685D01*
X59997Y36667D01*
X59975Y36652D01*
X59968Y36645D01*
X59909Y36590D01*
X59855Y36529D01*
X59811Y36463D01*
X59775Y36398D01*
X59746Y36339D01*
X59735Y36310D01*
X59727Y36288D01*
X59720Y36270D01*
X59713Y36256D01*
X59709Y36248D01*
Y36245D01*
X59382Y36321D01*
X59403Y36387D01*
X59425Y36445D01*
X59454Y36500D01*
X59480Y36554D01*
X59509Y36601D01*
X59542Y36645D01*
X59571Y36689D01*
X59600Y36725D01*
X59629Y36754D01*
X59654Y36783D01*
X59680Y36809D01*
X59698Y36827D01*
X59716Y36845D01*
X59731Y36856D01*
X59738Y36860D01*
X59742Y36863D01*
X59793Y36896D01*
X59844Y36929D01*
X59895Y36955D01*
X59949Y36976D01*
X60059Y37009D01*
X60157Y37031D01*
X60204Y37042D01*
X60244Y37045D01*
X60284Y37049D01*
X60317Y37053D01*
X60343Y37056D01*
X60379D01*
X60499Y37049D01*
D02*
G37*
G36*
X47129Y36358D02*
X47195Y36350D01*
X47257Y36339D01*
X47315Y36321D01*
X47370Y36303D01*
X47420Y36281D01*
X47468Y36259D01*
X47508Y36234D01*
X47548Y36212D01*
X47581Y36187D01*
X47610Y36165D01*
X47632Y36146D01*
X47650Y36128D01*
X47664Y36117D01*
X47672Y36110D01*
X47675Y36106D01*
X47715Y36055D01*
X47752Y36001D01*
X47785Y35946D01*
X47814Y35888D01*
X47835Y35826D01*
X47854Y35768D01*
X47883Y35651D01*
X47894Y35601D01*
X47901Y35550D01*
X47905Y35506D01*
X47908Y35466D01*
X47912Y35433D01*
Y35411D01*
Y35393D01*
Y35389D01*
X47908Y35309D01*
X47901Y35233D01*
X47890Y35160D01*
X47875Y35094D01*
X47857Y35033D01*
X47839Y34974D01*
X47817Y34923D01*
X47795Y34876D01*
X47774Y34836D01*
X47752Y34800D01*
X47734Y34771D01*
X47715Y34745D01*
X47701Y34723D01*
X47690Y34709D01*
X47683Y34701D01*
X47679Y34698D01*
X47632Y34654D01*
X47584Y34618D01*
X47533Y34585D01*
X47479Y34556D01*
X47428Y34534D01*
X47373Y34512D01*
X47271Y34483D01*
X47224Y34476D01*
X47180Y34468D01*
X47140Y34461D01*
X47107Y34457D01*
X47082Y34454D01*
X47042D01*
X46929Y34461D01*
X46827Y34479D01*
X46736Y34501D01*
X46700Y34516D01*
X46663Y34530D01*
X46631Y34545D01*
X46602Y34559D01*
X46580Y34570D01*
X46558Y34581D01*
X46543Y34592D01*
X46532Y34600D01*
X46525Y34607D01*
X46521D01*
X46449Y34672D01*
X46390Y34741D01*
X46339Y34814D01*
X46303Y34883D01*
X46274Y34945D01*
X46263Y34974D01*
X46252Y34996D01*
X46245Y35018D01*
X46241Y35033D01*
X46237Y35040D01*
Y35043D01*
X46558Y35084D01*
X46587Y35014D01*
X46620Y34956D01*
X46652Y34905D01*
X46682Y34865D01*
X46707Y34836D01*
X46729Y34814D01*
X46747Y34800D01*
X46751Y34796D01*
X46798Y34767D01*
X46845Y34745D01*
X46896Y34730D01*
X46940Y34720D01*
X46980Y34712D01*
X47013Y34709D01*
X47042D01*
X47086Y34712D01*
X47126Y34716D01*
X47199Y34734D01*
X47264Y34760D01*
X47322Y34789D01*
X47366Y34814D01*
X47399Y34840D01*
X47420Y34858D01*
X47424Y34865D01*
X47428D01*
X47479Y34931D01*
X47519Y35004D01*
X47548Y35084D01*
X47570Y35156D01*
X47581Y35222D01*
X47588Y35251D01*
X47592Y35276D01*
Y35298D01*
X47595Y35313D01*
Y35324D01*
Y35327D01*
X46230D01*
X46227Y35364D01*
Y35389D01*
Y35404D01*
Y35408D01*
X46230Y35491D01*
X46237Y35568D01*
X46248Y35640D01*
X46263Y35710D01*
X46281Y35772D01*
X46299Y35830D01*
X46321Y35881D01*
X46343Y35928D01*
X46365Y35972D01*
X46387Y36008D01*
X46405Y36037D01*
X46423Y36063D01*
X46438Y36085D01*
X46449Y36099D01*
X46456Y36106D01*
X46459Y36110D01*
X46503Y36154D01*
X46551Y36194D01*
X46602Y36226D01*
X46652Y36256D01*
X46703Y36281D01*
X46751Y36299D01*
X46802Y36318D01*
X46845Y36328D01*
X46893Y36339D01*
X46933Y36347D01*
X46969Y36354D01*
X46998Y36358D01*
X47024Y36361D01*
X47060D01*
X47129Y36358D01*
D02*
G37*
G36*
X45062D02*
X45127Y36347D01*
X45186Y36332D01*
X45244Y36314D01*
X45295Y36292D01*
X45342Y36267D01*
X45386Y36237D01*
X45422Y36212D01*
X45458Y36183D01*
X45488Y36154D01*
X45513Y36128D01*
X45535Y36106D01*
X45549Y36088D01*
X45560Y36074D01*
X45568Y36063D01*
X45571Y36059D01*
Y36321D01*
X45848D01*
Y34494D01*
X45539D01*
Y35488D01*
Y35550D01*
X45531Y35611D01*
X45524Y35662D01*
X45517Y35710D01*
X45506Y35753D01*
X45495Y35793D01*
X45480Y35830D01*
X45466Y35859D01*
X45455Y35884D01*
X45440Y35906D01*
X45429Y35924D01*
X45419Y35939D01*
X45404Y35957D01*
X45397Y35964D01*
X45342Y36008D01*
X45284Y36037D01*
X45226Y36059D01*
X45175Y36077D01*
X45127Y36085D01*
X45091Y36088D01*
X45076Y36092D01*
X45058D01*
X45014Y36088D01*
X44971Y36085D01*
X44934Y36074D01*
X44905Y36063D01*
X44880Y36052D01*
X44858Y36044D01*
X44847Y36037D01*
X44843Y36034D01*
X44811Y36012D01*
X44782Y35986D01*
X44760Y35961D01*
X44741Y35939D01*
X44730Y35917D01*
X44720Y35899D01*
X44712Y35888D01*
Y35884D01*
X44701Y35844D01*
X44690Y35801D01*
X44683Y35753D01*
X44680Y35706D01*
X44676Y35666D01*
Y35633D01*
Y35608D01*
Y35604D01*
Y35601D01*
Y34494D01*
X44366D01*
Y35615D01*
Y35691D01*
X44370Y35753D01*
X44374Y35804D01*
Y35848D01*
X44377Y35877D01*
X44381Y35899D01*
X44385Y35914D01*
Y35917D01*
X44396Y35964D01*
X44414Y36008D01*
X44428Y36044D01*
X44443Y36081D01*
X44461Y36106D01*
X44472Y36125D01*
X44479Y36139D01*
X44483Y36143D01*
X44512Y36179D01*
X44545Y36208D01*
X44578Y36237D01*
X44614Y36259D01*
X44643Y36277D01*
X44669Y36288D01*
X44683Y36296D01*
X44690Y36299D01*
X44741Y36321D01*
X44796Y36336D01*
X44847Y36347D01*
X44894Y36354D01*
X44934Y36358D01*
X44963Y36361D01*
X44993D01*
X45062Y36358D01*
D02*
G37*
G36*
X39540D02*
X39576Y36350D01*
X39613Y36339D01*
X39642Y36328D01*
X39664Y36318D01*
X39685Y36307D01*
X39696Y36299D01*
X39700Y36296D01*
X39733Y36267D01*
X39766Y36230D01*
X39798Y36187D01*
X39827Y36146D01*
X39857Y36106D01*
X39875Y36074D01*
X39889Y36048D01*
X39893Y36044D01*
Y36321D01*
X40173D01*
Y34494D01*
X39864D01*
Y35448D01*
X39860Y35520D01*
X39857Y35586D01*
X39849Y35648D01*
X39838Y35702D01*
X39827Y35746D01*
X39820Y35779D01*
X39816Y35801D01*
X39813Y35808D01*
X39798Y35848D01*
X39780Y35881D01*
X39762Y35910D01*
X39744Y35935D01*
X39726Y35954D01*
X39715Y35968D01*
X39704Y35975D01*
X39700Y35979D01*
X39671Y36001D01*
X39638Y36015D01*
X39605Y36026D01*
X39580Y36034D01*
X39555Y36037D01*
X39536Y36041D01*
X39518D01*
X39478Y36037D01*
X39438Y36030D01*
X39398Y36019D01*
X39365Y36008D01*
X39336Y35997D01*
X39314Y35986D01*
X39300Y35979D01*
X39296Y35975D01*
X39183Y36259D01*
X39245Y36292D01*
X39303Y36318D01*
X39354Y36336D01*
X39402Y36350D01*
X39442Y36358D01*
X39474Y36361D01*
X39500D01*
X39540Y36358D01*
D02*
G37*
G36*
X37993Y34494D02*
X37032D01*
X36945Y34497D01*
X36868Y34501D01*
X36799Y34508D01*
X36741Y34516D01*
X36693Y34523D01*
X36657Y34527D01*
X36635Y34534D01*
X36628D01*
X36566Y34552D01*
X36515Y34570D01*
X36468Y34592D01*
X36428Y34614D01*
X36395Y34629D01*
X36369Y34643D01*
X36355Y34654D01*
X36351Y34658D01*
X36311Y34690D01*
X36275Y34730D01*
X36246Y34771D01*
X36217Y34807D01*
X36195Y34843D01*
X36180Y34869D01*
X36169Y34887D01*
X36166Y34894D01*
X36140Y34953D01*
X36122Y35011D01*
X36107Y35065D01*
X36100Y35116D01*
X36093Y35160D01*
X36089Y35196D01*
Y35218D01*
Y35222D01*
Y35225D01*
X36093Y35306D01*
X36107Y35378D01*
X36129Y35440D01*
X36151Y35498D01*
X36173Y35542D01*
X36195Y35575D01*
X36209Y35597D01*
X36213Y35604D01*
X36264Y35662D01*
X36318Y35710D01*
X36380Y35750D01*
X36435Y35782D01*
X36486Y35808D01*
X36530Y35822D01*
X36544Y35830D01*
X36555Y35833D01*
X36562Y35837D01*
X36566D01*
X36504Y35873D01*
X36450Y35910D01*
X36406Y35950D01*
X36369Y35986D01*
X36340Y36015D01*
X36318Y36044D01*
X36308Y36059D01*
X36304Y36066D01*
X36275Y36121D01*
X36253Y36172D01*
X36235Y36223D01*
X36224Y36270D01*
X36217Y36310D01*
X36213Y36343D01*
Y36361D01*
Y36369D01*
X36217Y36430D01*
X36228Y36492D01*
X36246Y36547D01*
X36264Y36598D01*
X36282Y36641D01*
X36300Y36671D01*
X36311Y36692D01*
X36315Y36700D01*
X36355Y36754D01*
X36399Y36805D01*
X36446Y36845D01*
X36490Y36878D01*
X36526Y36904D01*
X36559Y36922D01*
X36581Y36933D01*
X36584Y36936D01*
X36588D01*
X36657Y36962D01*
X36733Y36980D01*
X36810Y36995D01*
X36883Y37002D01*
X36948Y37009D01*
X36977D01*
X37003Y37013D01*
X37993D01*
Y34494D01*
D02*
G37*
G36*
X31124Y36358D02*
X31161Y36350D01*
X31197Y36339D01*
X31226Y36328D01*
X31248Y36318D01*
X31270Y36307D01*
X31281Y36299D01*
X31284Y36296D01*
X31317Y36267D01*
X31350Y36230D01*
X31383Y36187D01*
X31412Y36146D01*
X31441Y36106D01*
X31459Y36074D01*
X31474Y36048D01*
X31477Y36044D01*
Y36321D01*
X31758D01*
Y34494D01*
X31448D01*
Y35448D01*
X31444Y35520D01*
X31441Y35586D01*
X31434Y35648D01*
X31423Y35702D01*
X31412Y35746D01*
X31405Y35779D01*
X31401Y35801D01*
X31397Y35808D01*
X31383Y35848D01*
X31364Y35881D01*
X31346Y35910D01*
X31328Y35935D01*
X31310Y35954D01*
X31299Y35968D01*
X31288Y35975D01*
X31284Y35979D01*
X31255Y36001D01*
X31223Y36015D01*
X31190Y36026D01*
X31164Y36034D01*
X31139Y36037D01*
X31121Y36041D01*
X31102D01*
X31062Y36037D01*
X31022Y36030D01*
X30982Y36019D01*
X30950Y36008D01*
X30920Y35997D01*
X30898Y35986D01*
X30884Y35979D01*
X30880Y35975D01*
X30768Y36259D01*
X30829Y36292D01*
X30888Y36318D01*
X30939Y36336D01*
X30986Y36350D01*
X31026Y36358D01*
X31059Y36361D01*
X31084D01*
X31124Y36358D01*
D02*
G37*
G36*
X43395Y36354D02*
X43438Y36350D01*
X43478Y36343D01*
X43511Y36336D01*
X43537Y36328D01*
X43551Y36325D01*
X43558Y36321D01*
X43602Y36307D01*
X43642Y36292D01*
X43675Y36277D01*
X43704Y36263D01*
X43726Y36252D01*
X43740Y36241D01*
X43751Y36237D01*
X43755Y36234D01*
X43791Y36208D01*
X43821Y36179D01*
X43846Y36146D01*
X43868Y36121D01*
X43886Y36095D01*
X43897Y36077D01*
X43904Y36063D01*
X43908Y36059D01*
X43926Y36019D01*
X43941Y35983D01*
X43948Y35943D01*
X43955Y35910D01*
X43959Y35877D01*
X43962Y35855D01*
Y35841D01*
Y35833D01*
X43959Y35783D01*
X43952Y35739D01*
X43941Y35695D01*
X43930Y35659D01*
X43919Y35630D01*
X43908Y35604D01*
X43901Y35590D01*
X43897Y35586D01*
X43868Y35546D01*
X43835Y35513D01*
X43802Y35484D01*
X43770Y35458D01*
X43740Y35440D01*
X43719Y35426D01*
X43704Y35418D01*
X43697Y35415D01*
X43671Y35404D01*
X43639Y35389D01*
X43566Y35364D01*
X43489Y35342D01*
X43409Y35317D01*
X43340Y35298D01*
X43307Y35287D01*
X43278Y35280D01*
X43256Y35273D01*
X43238Y35269D01*
X43227Y35266D01*
X43224D01*
X43176Y35255D01*
X43136Y35244D01*
X43100Y35233D01*
X43067Y35222D01*
X43038Y35215D01*
X43012Y35204D01*
X42969Y35189D01*
X42940Y35178D01*
X42921Y35167D01*
X42911Y35164D01*
X42907Y35160D01*
X42874Y35138D01*
X42852Y35109D01*
X42834Y35084D01*
X42823Y35058D01*
X42816Y35033D01*
X42812Y35014D01*
Y35000D01*
Y34996D01*
X42816Y34953D01*
X42827Y34916D01*
X42845Y34880D01*
X42863Y34851D01*
X42885Y34825D01*
X42900Y34807D01*
X42914Y34796D01*
X42918Y34792D01*
X42961Y34763D01*
X43009Y34745D01*
X43063Y34730D01*
X43114Y34720D01*
X43162Y34712D01*
X43198Y34709D01*
X43235D01*
X43311Y34712D01*
X43376Y34723D01*
X43431Y34738D01*
X43478Y34756D01*
X43515Y34774D01*
X43544Y34789D01*
X43558Y34800D01*
X43566Y34803D01*
X43606Y34843D01*
X43639Y34891D01*
X43660Y34938D01*
X43679Y34982D01*
X43693Y35022D01*
X43700Y35058D01*
X43708Y35080D01*
Y35084D01*
Y35087D01*
X44014Y35040D01*
X43988Y34938D01*
X43955Y34847D01*
X43915Y34774D01*
X43875Y34712D01*
X43839Y34661D01*
X43806Y34629D01*
X43784Y34607D01*
X43780Y34603D01*
X43777Y34600D01*
X43740Y34574D01*
X43700Y34552D01*
X43613Y34516D01*
X43522Y34490D01*
X43435Y34472D01*
X43395Y34465D01*
X43358Y34461D01*
X43322Y34457D01*
X43293D01*
X43267Y34454D01*
X43235D01*
X43154Y34457D01*
X43085Y34465D01*
X43020Y34476D01*
X42961Y34490D01*
X42914Y34505D01*
X42878Y34516D01*
X42856Y34523D01*
X42852Y34527D01*
X42849D01*
X42787Y34559D01*
X42736Y34592D01*
X42692Y34629D01*
X42652Y34661D01*
X42623Y34690D01*
X42605Y34716D01*
X42590Y34730D01*
X42587Y34738D01*
X42557Y34789D01*
X42536Y34843D01*
X42517Y34891D01*
X42507Y34934D01*
X42499Y34974D01*
X42496Y35004D01*
Y35022D01*
Y35029D01*
X42499Y35087D01*
X42507Y35138D01*
X42521Y35182D01*
X42532Y35222D01*
X42546Y35255D01*
X42561Y35276D01*
X42568Y35291D01*
X42572Y35295D01*
X42601Y35331D01*
X42634Y35364D01*
X42667Y35393D01*
X42699Y35415D01*
X42732Y35433D01*
X42754Y35444D01*
X42769Y35451D01*
X42776Y35455D01*
X42801Y35466D01*
X42831Y35477D01*
X42900Y35502D01*
X42976Y35528D01*
X43053Y35550D01*
X43122Y35571D01*
X43154Y35579D01*
X43180Y35586D01*
X43202Y35593D01*
X43220Y35597D01*
X43231Y35601D01*
X43235D01*
X43275Y35611D01*
X43311Y35622D01*
X43344Y35630D01*
X43373Y35640D01*
X43420Y35651D01*
X43457Y35662D01*
X43482Y35673D01*
X43497Y35677D01*
X43504Y35680D01*
X43508D01*
X43537Y35695D01*
X43562Y35706D01*
X43584Y35721D01*
X43598Y35732D01*
X43613Y35742D01*
X43620Y35753D01*
X43624Y35757D01*
X43628Y35761D01*
X43650Y35797D01*
X43660Y35833D01*
Y35848D01*
X43664Y35859D01*
Y35866D01*
Y35870D01*
X43660Y35903D01*
X43650Y35935D01*
X43635Y35964D01*
X43617Y35986D01*
X43602Y36008D01*
X43588Y36023D01*
X43577Y36030D01*
X43573Y36034D01*
X43533Y36059D01*
X43486Y36077D01*
X43435Y36088D01*
X43387Y36099D01*
X43340Y36103D01*
X43304Y36106D01*
X43267D01*
X43205Y36103D01*
X43147Y36095D01*
X43100Y36081D01*
X43063Y36066D01*
X43031Y36052D01*
X43009Y36037D01*
X42994Y36030D01*
X42991Y36026D01*
X42954Y35994D01*
X42929Y35957D01*
X42907Y35921D01*
X42889Y35888D01*
X42878Y35855D01*
X42871Y35830D01*
X42867Y35815D01*
Y35808D01*
X42565Y35848D01*
X42579Y35910D01*
X42594Y35964D01*
X42612Y36012D01*
X42630Y36055D01*
X42649Y36085D01*
X42663Y36110D01*
X42670Y36125D01*
X42674Y36128D01*
X42707Y36165D01*
X42743Y36197D01*
X42783Y36226D01*
X42823Y36252D01*
X42860Y36270D01*
X42889Y36285D01*
X42907Y36292D01*
X42911Y36296D01*
X42914D01*
X42976Y36318D01*
X43042Y36332D01*
X43103Y36347D01*
X43162Y36354D01*
X43216Y36358D01*
X43256Y36361D01*
X43344D01*
X43395Y36354D01*
D02*
G37*
G36*
X41451Y36358D02*
X41509Y36354D01*
X41622Y36328D01*
X41720Y36296D01*
X41764Y36277D01*
X41804Y36259D01*
X41840Y36241D01*
X41870Y36223D01*
X41899Y36205D01*
X41920Y36190D01*
X41939Y36176D01*
X41953Y36165D01*
X41960Y36161D01*
X41964Y36157D01*
X42015Y36110D01*
X42055Y36055D01*
X42095Y35997D01*
X42124Y35939D01*
X42153Y35877D01*
X42175Y35812D01*
X42193Y35750D01*
X42208Y35691D01*
X42223Y35633D01*
X42230Y35582D01*
X42237Y35531D01*
X42241Y35491D01*
Y35455D01*
X42244Y35429D01*
Y35415D01*
Y35408D01*
X42241Y35324D01*
X42233Y35244D01*
X42223Y35171D01*
X42208Y35102D01*
X42190Y35040D01*
X42172Y34982D01*
X42150Y34927D01*
X42128Y34880D01*
X42106Y34836D01*
X42084Y34800D01*
X42066Y34771D01*
X42048Y34745D01*
X42033Y34723D01*
X42022Y34709D01*
X42015Y34701D01*
X42011Y34698D01*
X41964Y34654D01*
X41917Y34618D01*
X41866Y34585D01*
X41815Y34556D01*
X41764Y34534D01*
X41709Y34512D01*
X41611Y34483D01*
X41567Y34476D01*
X41524Y34468D01*
X41487Y34461D01*
X41454Y34457D01*
X41425Y34454D01*
X41389D01*
X41302Y34457D01*
X41222Y34472D01*
X41145Y34490D01*
X41083Y34508D01*
X41029Y34530D01*
X41007Y34538D01*
X40989Y34545D01*
X40970Y34552D01*
X40960Y34559D01*
X40956Y34563D01*
X40952D01*
X40879Y34610D01*
X40817Y34661D01*
X40763Y34712D01*
X40719Y34763D01*
X40687Y34807D01*
X40661Y34843D01*
X40654Y34858D01*
X40646Y34869D01*
X40643Y34872D01*
Y34876D01*
X40606Y34960D01*
X40581Y35051D01*
X40559Y35142D01*
X40548Y35233D01*
X40541Y35273D01*
Y35309D01*
X40537Y35346D01*
X40534Y35375D01*
Y35400D01*
Y35418D01*
Y35429D01*
Y35433D01*
X40537Y35513D01*
X40545Y35586D01*
X40556Y35655D01*
X40570Y35721D01*
X40588Y35783D01*
X40610Y35837D01*
X40632Y35892D01*
X40654Y35935D01*
X40676Y35975D01*
X40697Y36012D01*
X40719Y36044D01*
X40738Y36070D01*
X40752Y36088D01*
X40763Y36103D01*
X40770Y36110D01*
X40774Y36114D01*
X40821Y36157D01*
X40868Y36194D01*
X40920Y36230D01*
X40970Y36256D01*
X41021Y36281D01*
X41072Y36299D01*
X41171Y36332D01*
X41218Y36339D01*
X41258Y36347D01*
X41294Y36354D01*
X41327Y36358D01*
X41353Y36361D01*
X41389D01*
X41451Y36358D01*
D02*
G37*
G36*
X34993Y36358D02*
X35052Y36354D01*
X35165Y36328D01*
X35263Y36296D01*
X35307Y36277D01*
X35347Y36259D01*
X35383Y36241D01*
X35412Y36223D01*
X35441Y36205D01*
X35463Y36190D01*
X35481Y36176D01*
X35496Y36165D01*
X35503Y36161D01*
X35507Y36157D01*
X35558Y36110D01*
X35598Y36055D01*
X35638Y35997D01*
X35667Y35939D01*
X35696Y35877D01*
X35718Y35812D01*
X35736Y35750D01*
X35751Y35691D01*
X35765Y35633D01*
X35772Y35582D01*
X35780Y35531D01*
X35783Y35491D01*
Y35455D01*
X35787Y35429D01*
Y35415D01*
Y35408D01*
X35783Y35324D01*
X35776Y35244D01*
X35765Y35171D01*
X35751Y35102D01*
X35732Y35040D01*
X35714Y34982D01*
X35692Y34927D01*
X35671Y34880D01*
X35649Y34836D01*
X35627Y34800D01*
X35609Y34771D01*
X35590Y34745D01*
X35576Y34723D01*
X35565Y34709D01*
X35558Y34701D01*
X35554Y34698D01*
X35507Y34654D01*
X35459Y34618D01*
X35408Y34585D01*
X35357Y34556D01*
X35307Y34534D01*
X35252Y34512D01*
X35154Y34483D01*
X35110Y34476D01*
X35066Y34468D01*
X35030Y34461D01*
X34997Y34457D01*
X34968Y34454D01*
X34932D01*
X34844Y34457D01*
X34764Y34472D01*
X34688Y34490D01*
X34626Y34508D01*
X34571Y34530D01*
X34549Y34538D01*
X34531Y34545D01*
X34513Y34552D01*
X34502Y34559D01*
X34499Y34563D01*
X34495D01*
X34422Y34610D01*
X34360Y34661D01*
X34306Y34712D01*
X34262Y34763D01*
X34229Y34807D01*
X34204Y34843D01*
X34196Y34858D01*
X34189Y34869D01*
X34185Y34872D01*
Y34876D01*
X34149Y34960D01*
X34124Y35051D01*
X34102Y35142D01*
X34091Y35233D01*
X34084Y35273D01*
Y35309D01*
X34080Y35346D01*
X34076Y35375D01*
Y35400D01*
Y35418D01*
Y35429D01*
Y35433D01*
X34080Y35513D01*
X34087Y35586D01*
X34098Y35655D01*
X34113Y35721D01*
X34131Y35782D01*
X34153Y35837D01*
X34174Y35892D01*
X34196Y35935D01*
X34218Y35975D01*
X34240Y36012D01*
X34262Y36044D01*
X34280Y36070D01*
X34295Y36088D01*
X34306Y36103D01*
X34313Y36110D01*
X34317Y36114D01*
X34364Y36157D01*
X34411Y36194D01*
X34462Y36230D01*
X34513Y36256D01*
X34564Y36281D01*
X34615Y36299D01*
X34713Y36332D01*
X34761Y36339D01*
X34801Y36347D01*
X34837Y36354D01*
X34870Y36358D01*
X34895Y36361D01*
X34932D01*
X34993Y36358D01*
D02*
G37*
G36*
X29424Y36110D02*
X29457Y36150D01*
X29493Y36183D01*
X29526Y36216D01*
X29563Y36241D01*
X29592Y36259D01*
X29614Y36277D01*
X29628Y36285D01*
X29635Y36288D01*
X29683Y36314D01*
X29734Y36332D01*
X29785Y36343D01*
X29832Y36354D01*
X29872Y36358D01*
X29901Y36361D01*
X29930D01*
X30010Y36358D01*
X30087Y36343D01*
X30156Y36325D01*
X30214Y36303D01*
X30265Y36277D01*
X30302Y36259D01*
X30316Y36252D01*
X30327Y36245D01*
X30331Y36241D01*
X30334D01*
X30400Y36194D01*
X30454Y36136D01*
X30502Y36081D01*
X30538Y36026D01*
X30567Y35975D01*
X30589Y35935D01*
X30596Y35921D01*
X30604Y35910D01*
X30607Y35903D01*
Y35899D01*
X30637Y35815D01*
X30658Y35728D01*
X30676Y35644D01*
X30687Y35568D01*
X30695Y35502D01*
Y35473D01*
X30698Y35451D01*
Y35429D01*
Y35415D01*
Y35408D01*
Y35404D01*
X30695Y35302D01*
X30684Y35207D01*
X30666Y35124D01*
X30647Y35051D01*
X30640Y35018D01*
X30633Y34993D01*
X30622Y34967D01*
X30615Y34945D01*
X30607Y34931D01*
X30604Y34920D01*
X30600Y34912D01*
Y34909D01*
X30560Y34832D01*
X30513Y34767D01*
X30465Y34709D01*
X30418Y34661D01*
X30378Y34625D01*
X30345Y34596D01*
X30323Y34581D01*
X30320Y34574D01*
X30316D01*
X30247Y34534D01*
X30178Y34505D01*
X30109Y34483D01*
X30047Y34468D01*
X29996Y34461D01*
X29952Y34457D01*
X29938Y34454D01*
X29916D01*
X29854Y34457D01*
X29796Y34465D01*
X29741Y34479D01*
X29694Y34497D01*
X29646Y34516D01*
X29603Y34538D01*
X29566Y34563D01*
X29533Y34589D01*
X29501Y34614D01*
X29475Y34639D01*
X29453Y34661D01*
X29435Y34679D01*
X29421Y34698D01*
X29410Y34712D01*
X29406Y34720D01*
X29403Y34723D01*
Y34494D01*
X29115D01*
Y37013D01*
X29424D01*
Y36110D01*
D02*
G37*
G36*
X56371Y37016D02*
X56462Y37002D01*
X56539Y36976D01*
X56604Y36951D01*
X56659Y36922D01*
X56681Y36911D01*
X56699Y36896D01*
X56713Y36889D01*
X56724Y36882D01*
X56728Y36874D01*
X56732D01*
X56797Y36816D01*
X56852Y36747D01*
X56899Y36678D01*
X56936Y36612D01*
X56965Y36551D01*
X56979Y36525D01*
X56986Y36500D01*
X56994Y36481D01*
X57001Y36467D01*
X57005Y36459D01*
Y36456D01*
X57019Y36401D01*
X57034Y36347D01*
X57056Y36226D01*
X57074Y36106D01*
X57085Y35994D01*
X57088Y35939D01*
X57092Y35892D01*
Y35848D01*
X57096Y35808D01*
Y35779D01*
Y35753D01*
Y35739D01*
Y35735D01*
X57092Y35608D01*
X57085Y35488D01*
X57074Y35378D01*
X57056Y35276D01*
X57037Y35182D01*
X57016Y35098D01*
X56994Y35022D01*
X56972Y34956D01*
X56950Y34898D01*
X56924Y34847D01*
X56906Y34803D01*
X56888Y34771D01*
X56870Y34741D01*
X56859Y34723D01*
X56852Y34712D01*
X56848Y34709D01*
X56808Y34665D01*
X56764Y34625D01*
X56717Y34589D01*
X56670Y34559D01*
X56622Y34534D01*
X56575Y34512D01*
X56528Y34497D01*
X56484Y34483D01*
X56440Y34472D01*
X56400Y34465D01*
X56364Y34457D01*
X56335Y34454D01*
X56309Y34450D01*
X56273D01*
X56175Y34457D01*
X56084Y34472D01*
X56007Y34497D01*
X55942Y34523D01*
X55887Y34549D01*
X55869Y34563D01*
X55851Y34574D01*
X55836Y34581D01*
X55825Y34589D01*
X55822Y34596D01*
X55818D01*
X55752Y34658D01*
X55698Y34723D01*
X55651Y34796D01*
X55614Y34861D01*
X55585Y34923D01*
X55571Y34949D01*
X55563Y34974D01*
X55556Y34993D01*
X55549Y35007D01*
X55545Y35014D01*
Y35018D01*
X55527Y35073D01*
X55512Y35127D01*
X55490Y35244D01*
X55472Y35364D01*
X55461Y35480D01*
X55458Y35531D01*
X55454Y35579D01*
Y35622D01*
X55450Y35662D01*
Y35691D01*
Y35717D01*
Y35732D01*
Y35735D01*
Y35804D01*
X55454Y35870D01*
Y35928D01*
X55458Y35986D01*
X55465Y36037D01*
X55468Y36088D01*
X55472Y36132D01*
X55479Y36172D01*
X55483Y36208D01*
X55490Y36241D01*
X55494Y36267D01*
X55498Y36288D01*
X55501Y36307D01*
X55505Y36318D01*
X55509Y36325D01*
Y36328D01*
X55530Y36408D01*
X55556Y36481D01*
X55585Y36543D01*
X55607Y36598D01*
X55632Y36645D01*
X55647Y36678D01*
X55661Y36696D01*
X55665Y36703D01*
X55705Y36758D01*
X55745Y36805D01*
X55789Y36845D01*
X55829Y36882D01*
X55865Y36907D01*
X55894Y36925D01*
X55913Y36936D01*
X55916Y36940D01*
X55920D01*
X55978Y36969D01*
X56040Y36987D01*
X56098Y37002D01*
X56153Y37013D01*
X56200Y37020D01*
X56240Y37024D01*
X56273D01*
X56371Y37016D01*
D02*
G37*
G36*
X49342Y37053D02*
X49426Y37042D01*
X49506Y37027D01*
X49575Y37013D01*
X49630Y36998D01*
X49656Y36991D01*
X49674Y36984D01*
X49688Y36976D01*
X49699Y36973D01*
X49706Y36969D01*
X49710D01*
X49783Y36933D01*
X49848Y36893D01*
X49903Y36849D01*
X49947Y36809D01*
X49979Y36773D01*
X50005Y36743D01*
X50023Y36722D01*
X50027Y36718D01*
Y36714D01*
X50063Y36652D01*
X50089Y36590D01*
X50107Y36529D01*
X50118Y36474D01*
X50125Y36427D01*
X50132Y36390D01*
Y36376D01*
Y36365D01*
Y36361D01*
Y36358D01*
X50129Y36296D01*
X50118Y36237D01*
X50103Y36183D01*
X50089Y36136D01*
X50074Y36099D01*
X50059Y36070D01*
X50049Y36052D01*
X50045Y36044D01*
X50008Y35994D01*
X49965Y35946D01*
X49921Y35906D01*
X49878Y35873D01*
X49841Y35844D01*
X49808Y35826D01*
X49786Y35812D01*
X49783Y35808D01*
X49779D01*
X49750Y35793D01*
X49717Y35779D01*
X49645Y35753D01*
X49561Y35728D01*
X49481Y35702D01*
X49408Y35680D01*
X49375Y35673D01*
X49346Y35666D01*
X49324Y35659D01*
X49306Y35655D01*
X49295Y35651D01*
X49291D01*
X49230Y35637D01*
X49171Y35622D01*
X49120Y35608D01*
X49077Y35597D01*
X49033Y35586D01*
X48997Y35575D01*
X48964Y35568D01*
X48938Y35557D01*
X48913Y35550D01*
X48895Y35546D01*
X48866Y35535D01*
X48847Y35531D01*
X48844Y35528D01*
X48789Y35506D01*
X48742Y35480D01*
X48702Y35455D01*
X48673Y35433D01*
X48647Y35411D01*
X48633Y35397D01*
X48622Y35386D01*
X48618Y35382D01*
X48593Y35349D01*
X48574Y35313D01*
X48564Y35276D01*
X48553Y35247D01*
X48549Y35218D01*
X48545Y35196D01*
Y35178D01*
Y35175D01*
X48549Y35131D01*
X48556Y35091D01*
X48567Y35054D01*
X48582Y35025D01*
X48596Y34996D01*
X48607Y34978D01*
X48614Y34964D01*
X48618Y34960D01*
X48647Y34923D01*
X48684Y34894D01*
X48720Y34869D01*
X48753Y34843D01*
X48785Y34829D01*
X48811Y34814D01*
X48829Y34807D01*
X48836Y34803D01*
X48891Y34785D01*
X48949Y34771D01*
X49007Y34763D01*
X49058Y34756D01*
X49102Y34752D01*
X49139Y34749D01*
X49171D01*
X49251Y34752D01*
X49324Y34760D01*
X49390Y34771D01*
X49448Y34785D01*
X49495Y34800D01*
X49532Y34811D01*
X49543Y34814D01*
X49553Y34818D01*
X49557Y34822D01*
X49561D01*
X49619Y34851D01*
X49674Y34883D01*
X49714Y34916D01*
X49750Y34949D01*
X49779Y34974D01*
X49797Y35000D01*
X49808Y35014D01*
X49812Y35018D01*
X49837Y35065D01*
X49863Y35116D01*
X49878Y35171D01*
X49892Y35218D01*
X49903Y35266D01*
X49910Y35298D01*
Y35313D01*
X49914Y35324D01*
Y35327D01*
Y35331D01*
X50227Y35302D01*
X50220Y35211D01*
X50205Y35124D01*
X50183Y35047D01*
X50158Y34978D01*
X50132Y34923D01*
X50121Y34902D01*
X50114Y34883D01*
X50103Y34869D01*
X50099Y34858D01*
X50092Y34851D01*
Y34847D01*
X50038Y34778D01*
X49979Y34716D01*
X49918Y34665D01*
X49859Y34621D01*
X49808Y34589D01*
X49765Y34567D01*
X49750Y34559D01*
X49739Y34552D01*
X49732Y34549D01*
X49728D01*
X49637Y34516D01*
X49543Y34490D01*
X49448Y34476D01*
X49357Y34461D01*
X49313Y34457D01*
X49277Y34454D01*
X49244D01*
X49215Y34450D01*
X49157D01*
X49058Y34454D01*
X48967Y34465D01*
X48884Y34483D01*
X48815Y34501D01*
X48756Y34516D01*
X48731Y34527D01*
X48709Y34534D01*
X48695Y34541D01*
X48684Y34545D01*
X48676Y34549D01*
X48673D01*
X48596Y34589D01*
X48531Y34632D01*
X48472Y34679D01*
X48425Y34723D01*
X48389Y34760D01*
X48363Y34792D01*
X48345Y34814D01*
X48341Y34818D01*
Y34822D01*
X48301Y34891D01*
X48272Y34956D01*
X48254Y35018D01*
X48239Y35076D01*
X48232Y35127D01*
X48225Y35167D01*
Y35182D01*
Y35193D01*
Y35196D01*
Y35200D01*
X48229Y35273D01*
X48239Y35342D01*
X48258Y35404D01*
X48276Y35455D01*
X48298Y35498D01*
X48312Y35531D01*
X48327Y35550D01*
X48331Y35557D01*
X48374Y35611D01*
X48425Y35662D01*
X48480Y35706D01*
X48534Y35746D01*
X48582Y35775D01*
X48622Y35797D01*
X48636Y35804D01*
X48647Y35812D01*
X48654Y35815D01*
X48658D01*
X48687Y35830D01*
X48724Y35841D01*
X48764Y35855D01*
X48807Y35870D01*
X48898Y35895D01*
X48993Y35921D01*
X49037Y35932D01*
X49077Y35943D01*
X49117Y35954D01*
X49150Y35961D01*
X49175Y35968D01*
X49197Y35972D01*
X49211Y35975D01*
X49215D01*
X49288Y35994D01*
X49353Y36008D01*
X49412Y36026D01*
X49463Y36041D01*
X49510Y36059D01*
X49550Y36074D01*
X49586Y36088D01*
X49619Y36099D01*
X49645Y36114D01*
X49666Y36125D01*
X49681Y36132D01*
X49696Y36143D01*
X49714Y36154D01*
X49717Y36157D01*
X49750Y36194D01*
X49772Y36230D01*
X49790Y36267D01*
X49801Y36303D01*
X49808Y36332D01*
X49812Y36358D01*
Y36372D01*
Y36379D01*
X49805Y36438D01*
X49790Y36489D01*
X49768Y36532D01*
X49743Y36572D01*
X49721Y36601D01*
X49699Y36627D01*
X49685Y36641D01*
X49677Y36645D01*
X49648Y36663D01*
X49619Y36682D01*
X49550Y36711D01*
X49477Y36729D01*
X49404Y36743D01*
X49339Y36751D01*
X49310Y36754D01*
X49288Y36758D01*
X49237D01*
X49135Y36754D01*
X49044Y36740D01*
X48971Y36718D01*
X48909Y36696D01*
X48862Y36674D01*
X48825Y36652D01*
X48807Y36638D01*
X48800Y36634D01*
X48749Y36583D01*
X48709Y36529D01*
X48676Y36470D01*
X48654Y36412D01*
X48640Y36358D01*
X48629Y36318D01*
X48625Y36299D01*
X48622Y36288D01*
Y36281D01*
Y36277D01*
X48301Y36303D01*
X48309Y36383D01*
X48327Y36456D01*
X48345Y36525D01*
X48371Y36583D01*
X48392Y36631D01*
X48411Y36667D01*
X48418Y36678D01*
X48425Y36689D01*
X48429Y36693D01*
Y36696D01*
X48476Y36758D01*
X48527Y36813D01*
X48582Y36860D01*
X48636Y36896D01*
X48684Y36929D01*
X48720Y36947D01*
X48735Y36955D01*
X48745Y36962D01*
X48753Y36965D01*
X48756D01*
X48836Y36995D01*
X48924Y37016D01*
X49004Y37035D01*
X49080Y37045D01*
X49150Y37053D01*
X49175D01*
X49200Y37056D01*
X49248D01*
X49342Y37053D01*
D02*
G37*
%LPC*%
G36*
X87539Y37807D02*
X88705D01*
Y37784D01*
X88929D01*
Y37762D01*
X89019D01*
Y37740D01*
X89108D01*
Y37717D01*
X89153D01*
Y37695D01*
X89220D01*
Y37672D01*
X89265D01*
Y37650D01*
X89288D01*
Y37628D01*
X89332D01*
Y37605D01*
X89355D01*
Y37583D01*
X89377D01*
Y37560D01*
X89422D01*
Y37538D01*
X89445D01*
Y37515D01*
X89467D01*
Y37493D01*
Y37471D01*
X89489D01*
Y37448D01*
X89512D01*
Y37426D01*
X89534D01*
Y37403D01*
Y37381D01*
X89557D01*
Y37358D01*
X89579D01*
Y37336D01*
Y37314D01*
X89601D01*
Y37291D01*
Y37269D01*
X89624D01*
Y37246D01*
Y37224D01*
X89646D01*
Y37202D01*
Y37179D01*
Y37157D01*
X89669D01*
Y37134D01*
Y37112D01*
Y37089D01*
X89691D01*
Y37067D01*
Y37045D01*
Y37022D01*
X89714D01*
Y37000D01*
Y36977D01*
Y36955D01*
Y36933D01*
X89736D01*
Y36910D01*
Y36888D01*
Y36865D01*
Y36843D01*
Y36821D01*
Y36798D01*
X89758D01*
Y36776D01*
Y36753D01*
Y36731D01*
Y36708D01*
Y36686D01*
Y36664D01*
Y36641D01*
Y36619D01*
Y36596D01*
Y36574D01*
X89781D01*
Y36551D01*
Y36529D01*
Y36507D01*
Y36484D01*
Y36462D01*
Y36439D01*
Y36417D01*
Y36395D01*
Y36372D01*
Y36350D01*
Y36327D01*
Y36305D01*
Y36283D01*
Y36260D01*
Y36238D01*
Y36215D01*
Y36193D01*
Y36170D01*
Y36148D01*
Y36126D01*
Y36103D01*
Y36081D01*
Y36058D01*
Y36036D01*
Y36013D01*
Y35991D01*
Y35969D01*
Y35946D01*
Y35924D01*
Y35901D01*
Y35879D01*
Y35857D01*
Y35834D01*
Y35812D01*
Y35789D01*
Y35767D01*
Y35745D01*
Y35722D01*
Y35700D01*
Y35677D01*
Y35655D01*
Y35632D01*
Y35610D01*
Y35588D01*
Y35565D01*
Y35543D01*
Y35520D01*
Y35498D01*
Y35476D01*
Y35453D01*
Y35431D01*
Y35408D01*
Y35386D01*
Y35363D01*
Y35341D01*
Y35319D01*
Y35296D01*
Y35274D01*
Y35251D01*
Y35229D01*
Y35206D01*
Y35184D01*
Y35162D01*
Y35139D01*
Y35117D01*
Y35094D01*
Y35072D01*
Y35050D01*
Y35027D01*
Y35005D01*
Y34982D01*
Y34960D01*
Y34938D01*
Y34915D01*
Y34893D01*
X89758D01*
Y34870D01*
Y34848D01*
Y34825D01*
Y34803D01*
Y34781D01*
Y34758D01*
Y34736D01*
Y34713D01*
Y34691D01*
X89736D01*
Y34668D01*
Y34646D01*
Y34624D01*
Y34601D01*
Y34579D01*
X89714D01*
Y34556D01*
Y34534D01*
Y34512D01*
Y34489D01*
X89691D01*
Y34467D01*
Y34444D01*
Y34422D01*
Y34400D01*
X89669D01*
Y34377D01*
Y34355D01*
Y34332D01*
X89646D01*
Y34310D01*
Y34287D01*
X89624D01*
Y34265D01*
Y34243D01*
X89601D01*
Y34220D01*
Y34198D01*
X89579D01*
Y34175D01*
Y34153D01*
X89557D01*
Y34130D01*
X89534D01*
Y34108D01*
Y34086D01*
X89512D01*
Y34063D01*
X89489D01*
Y34041D01*
X89467D01*
Y34018D01*
X89445D01*
Y33996D01*
X89422D01*
Y33974D01*
X89400D01*
Y33951D01*
X89377D01*
Y33929D01*
X89355D01*
Y33906D01*
X89310D01*
Y33884D01*
X89288D01*
Y33862D01*
X89243D01*
Y33839D01*
X89198D01*
Y33817D01*
X89153D01*
Y33794D01*
X89086D01*
Y33772D01*
X89041D01*
Y33749D01*
X88951D01*
Y33727D01*
X88862D01*
Y33705D01*
X88705D01*
Y33682D01*
X88436D01*
Y33660D01*
X87584D01*
Y33682D01*
X87517D01*
Y33705D01*
Y33727D01*
Y33749D01*
Y33772D01*
Y33794D01*
Y33817D01*
Y33839D01*
Y33862D01*
Y33884D01*
Y33906D01*
Y33929D01*
Y33951D01*
Y33974D01*
Y33996D01*
Y34018D01*
Y34041D01*
Y34063D01*
Y34086D01*
Y34108D01*
Y34130D01*
Y34153D01*
Y34175D01*
Y34198D01*
Y34220D01*
Y34243D01*
Y34265D01*
Y34287D01*
Y34310D01*
Y34332D01*
Y34355D01*
Y34377D01*
Y34400D01*
Y34422D01*
Y34444D01*
Y34467D01*
Y34489D01*
Y34512D01*
Y34534D01*
Y34556D01*
Y34579D01*
Y34601D01*
Y34624D01*
Y34646D01*
Y34668D01*
Y34691D01*
Y34713D01*
Y34736D01*
Y34758D01*
Y34781D01*
Y34803D01*
Y34825D01*
Y34848D01*
Y34870D01*
Y34893D01*
Y34915D01*
Y34938D01*
Y34960D01*
Y34982D01*
Y35005D01*
Y35027D01*
Y35050D01*
Y35072D01*
Y35094D01*
Y35117D01*
Y35139D01*
Y35162D01*
Y35184D01*
Y35206D01*
Y35229D01*
Y35251D01*
Y35274D01*
Y35296D01*
Y35319D01*
Y35341D01*
Y35363D01*
Y35386D01*
Y35408D01*
Y35431D01*
Y35453D01*
Y35476D01*
Y35498D01*
Y35520D01*
Y35543D01*
Y35565D01*
Y35588D01*
Y35610D01*
Y35632D01*
Y35655D01*
Y35677D01*
Y35700D01*
Y35722D01*
Y35745D01*
Y35767D01*
Y35789D01*
Y35812D01*
Y35834D01*
Y35857D01*
Y35879D01*
Y35901D01*
Y35924D01*
Y35946D01*
Y35969D01*
Y35991D01*
Y36013D01*
Y36036D01*
Y36058D01*
Y36081D01*
Y36103D01*
Y36126D01*
Y36148D01*
Y36170D01*
Y36193D01*
Y36215D01*
Y36238D01*
Y36260D01*
Y36283D01*
Y36305D01*
Y36327D01*
Y36350D01*
Y36372D01*
Y36395D01*
Y36417D01*
Y36439D01*
Y36462D01*
Y36484D01*
Y36507D01*
Y36529D01*
Y36551D01*
Y36574D01*
Y36596D01*
Y36619D01*
Y36641D01*
Y36664D01*
Y36686D01*
Y36708D01*
Y36731D01*
Y36753D01*
Y36776D01*
Y36798D01*
Y36821D01*
Y36843D01*
Y36865D01*
Y36888D01*
Y36910D01*
Y36933D01*
Y36955D01*
Y36977D01*
Y37000D01*
Y37022D01*
Y37045D01*
Y37067D01*
Y37089D01*
Y37112D01*
Y37134D01*
Y37157D01*
Y37179D01*
Y37202D01*
Y37224D01*
Y37246D01*
Y37269D01*
Y37291D01*
Y37314D01*
Y37336D01*
Y37358D01*
Y37381D01*
Y37403D01*
Y37426D01*
Y37448D01*
Y37471D01*
Y37493D01*
Y37515D01*
Y37538D01*
Y37560D01*
Y37583D01*
Y37605D01*
Y37628D01*
Y37650D01*
Y37672D01*
Y37695D01*
Y37717D01*
Y37740D01*
Y37762D01*
Y37784D01*
X87539D01*
Y37807D01*
D02*
G37*
G36*
X15158Y49119D02*
X13236D01*
Y48537D01*
X13239Y48489D01*
Y48442D01*
X13243Y48398D01*
X13254Y48326D01*
X13261Y48267D01*
X13272Y48220D01*
X13283Y48187D01*
X13287Y48169D01*
X13290Y48162D01*
X13323Y48096D01*
X13363Y48034D01*
X13410Y47980D01*
X13458Y47932D01*
X13501Y47896D01*
X13538Y47867D01*
X13552Y47860D01*
X13563Y47852D01*
X13571Y47845D01*
X13574D01*
X13614Y47823D01*
X13662Y47801D01*
X13756Y47769D01*
X13858Y47747D01*
X13957Y47729D01*
X14000Y47725D01*
X14044Y47721D01*
X14080Y47718D01*
X14113D01*
X14142Y47714D01*
X14160D01*
X14175D01*
X14178D01*
X14280Y47718D01*
X14375Y47725D01*
X14459Y47736D01*
X14532Y47747D01*
X14561Y47754D01*
X14586Y47761D01*
X14612Y47769D01*
X14630Y47772D01*
X14644Y47776D01*
X14655Y47780D01*
X14663Y47783D01*
X14666D01*
X14735Y47809D01*
X14797Y47838D01*
X14852Y47871D01*
X14899Y47900D01*
X14936Y47925D01*
X14961Y47947D01*
X14976Y47962D01*
X14983Y47965D01*
X15012Y48002D01*
X15037Y48038D01*
X15059Y48074D01*
X15081Y48111D01*
X15096Y48144D01*
X15107Y48169D01*
X15110Y48187D01*
X15114Y48195D01*
X15128Y48249D01*
X15139Y48315D01*
X15147Y48380D01*
X15150Y48442D01*
X15154Y48497D01*
X15158Y48522D01*
Y49119D01*
D02*
G37*
G36*
Y31362D02*
X13236D01*
Y30779D01*
X13239Y30732D01*
Y30685D01*
X13243Y30641D01*
X13254Y30568D01*
X13261Y30510D01*
X13272Y30463D01*
X13283Y30430D01*
X13287Y30412D01*
X13290Y30404D01*
X13323Y30339D01*
X13363Y30277D01*
X13410Y30222D01*
X13458Y30175D01*
X13501Y30139D01*
X13538Y30110D01*
X13552Y30102D01*
X13563Y30095D01*
X13571Y30088D01*
X13574D01*
X13614Y30066D01*
X13662Y30044D01*
X13756Y30011D01*
X13858Y29989D01*
X13957Y29971D01*
X14000Y29968D01*
X14044Y29964D01*
X14080Y29960D01*
X14113D01*
X14142Y29957D01*
X14160D01*
X14175D01*
X14178D01*
X14280Y29960D01*
X14375Y29968D01*
X14459Y29978D01*
X14532Y29989D01*
X14561Y29997D01*
X14586Y30004D01*
X14612Y30011D01*
X14630Y30015D01*
X14644Y30019D01*
X14655Y30022D01*
X14663Y30026D01*
X14666D01*
X14735Y30051D01*
X14797Y30080D01*
X14852Y30113D01*
X14899Y30142D01*
X14936Y30168D01*
X14961Y30190D01*
X14976Y30204D01*
X14983Y30208D01*
X15012Y30244D01*
X15037Y30281D01*
X15059Y30317D01*
X15081Y30353D01*
X15096Y30386D01*
X15107Y30412D01*
X15110Y30430D01*
X15114Y30437D01*
X15128Y30492D01*
X15139Y30557D01*
X15147Y30623D01*
X15150Y30685D01*
X15154Y30739D01*
X15158Y30765D01*
Y31362D01*
D02*
G37*
G36*
X14419Y28708D02*
X13683Y28435D01*
X13592Y28402D01*
X13505Y28377D01*
X13425Y28351D01*
X13352Y28333D01*
X13290Y28319D01*
X13265Y28311D01*
X13239Y28308D01*
X13225Y28300D01*
X13210D01*
X13203Y28297D01*
X13199D01*
X13283Y28271D01*
X13370Y28242D01*
X13458Y28213D01*
X13542Y28184D01*
X13578Y28169D01*
X13614Y28159D01*
X13647Y28148D01*
X13672Y28137D01*
X13694Y28129D01*
X13713Y28122D01*
X13724Y28119D01*
X13727D01*
X14419Y27856D01*
Y28708D01*
D02*
G37*
G36*
X49007Y26114D02*
X48977D01*
X48915Y26110D01*
X48857Y26096D01*
X48810Y26077D01*
X48766Y26055D01*
X48733Y26034D01*
X48708Y26015D01*
X48690Y26001D01*
X48686Y25997D01*
X48646Y25950D01*
X48617Y25903D01*
X48595Y25855D01*
X48581Y25812D01*
X48573Y25772D01*
X48566Y25739D01*
Y25717D01*
Y25713D01*
Y25710D01*
X48570Y25651D01*
X48584Y25597D01*
X48603Y25550D01*
X48624Y25510D01*
X48646Y25477D01*
X48664Y25455D01*
X48679Y25437D01*
X48682Y25433D01*
X48726Y25397D01*
X48777Y25368D01*
X48825Y25349D01*
X48872Y25335D01*
X48915Y25328D01*
X48948Y25324D01*
X48970Y25320D01*
X48977D01*
X49043Y25324D01*
X49101Y25338D01*
X49152Y25357D01*
X49196Y25379D01*
X49229Y25397D01*
X49254Y25415D01*
X49272Y25429D01*
X49276Y25433D01*
X49312Y25477D01*
X49341Y25528D01*
X49360Y25575D01*
X49374Y25622D01*
X49381Y25662D01*
X49385Y25695D01*
X49389Y25717D01*
Y25721D01*
Y25724D01*
X49385Y25782D01*
X49371Y25833D01*
X49352Y25881D01*
X49330Y25921D01*
X49312Y25954D01*
X49294Y25979D01*
X49279Y25994D01*
X49276Y25997D01*
X49229Y26037D01*
X49181Y26066D01*
X49130Y26085D01*
X49083Y26099D01*
X49039Y26107D01*
X49007Y26114D01*
D02*
G37*
G36*
X49010Y25069D02*
X48988D01*
X48908Y25062D01*
X48835Y25047D01*
X48770Y25022D01*
X48715Y24996D01*
X48672Y24967D01*
X48639Y24942D01*
X48621Y24927D01*
X48613Y24920D01*
X48562Y24862D01*
X48526Y24800D01*
X48500Y24738D01*
X48482Y24683D01*
X48471Y24629D01*
X48468Y24589D01*
X48464Y24574D01*
Y24563D01*
Y24556D01*
Y24552D01*
X48471Y24476D01*
X48486Y24403D01*
X48511Y24341D01*
X48537Y24290D01*
X48562Y24250D01*
X48588Y24217D01*
X48603Y24199D01*
X48610Y24192D01*
X48668Y24145D01*
X48726Y24108D01*
X48788Y24086D01*
X48846Y24068D01*
X48897Y24057D01*
X48941Y24054D01*
X48956Y24050D01*
X48977D01*
X49028Y24054D01*
X49079Y24061D01*
X49127Y24072D01*
X49167Y24083D01*
X49199Y24093D01*
X49225Y24104D01*
X49240Y24112D01*
X49247Y24115D01*
X49290Y24145D01*
X49327Y24174D01*
X49360Y24206D01*
X49385Y24239D01*
X49407Y24265D01*
X49422Y24286D01*
X49429Y24305D01*
X49432Y24308D01*
X49451Y24356D01*
X49465Y24399D01*
X49476Y24443D01*
X49483Y24483D01*
X49487Y24516D01*
X49491Y24541D01*
Y24556D01*
Y24563D01*
X49483Y24640D01*
X49469Y24709D01*
X49447Y24771D01*
X49418Y24825D01*
X49392Y24865D01*
X49371Y24898D01*
X49356Y24916D01*
X49349Y24923D01*
X49294Y24971D01*
X49232Y25007D01*
X49174Y25033D01*
X49116Y25051D01*
X49065Y25062D01*
X49025Y25065D01*
X49010Y25069D01*
D02*
G37*
G36*
X61557Y31441D02*
X61535D01*
X61495Y31438D01*
X61455Y31434D01*
X61419Y31423D01*
X61386Y31409D01*
X61324Y31376D01*
X61270Y31339D01*
X61230Y31299D01*
X61197Y31267D01*
X61186Y31252D01*
X61179Y31241D01*
X61171Y31238D01*
Y31234D01*
X61146Y31190D01*
X61124Y31139D01*
X61102Y31081D01*
X61088Y31019D01*
X61073Y30954D01*
X61062Y30884D01*
X61044Y30746D01*
X61037Y30677D01*
X61033Y30615D01*
X61029Y30557D01*
Y30509D01*
X61026Y30466D01*
Y30433D01*
Y30415D01*
Y30411D01*
Y30408D01*
Y30295D01*
X61033Y30193D01*
X61040Y30102D01*
X61048Y30014D01*
X61058Y29942D01*
X61073Y29873D01*
X61088Y29814D01*
X61099Y29760D01*
X61113Y29716D01*
X61128Y29680D01*
X61139Y29647D01*
X61153Y29621D01*
X61160Y29603D01*
X61168Y29592D01*
X61175Y29585D01*
Y29581D01*
X61204Y29545D01*
X61233Y29516D01*
X61262Y29487D01*
X61291Y29465D01*
X61353Y29428D01*
X61408Y29403D01*
X61459Y29388D01*
X61495Y29381D01*
X61510Y29377D01*
X61532D01*
X61572Y29381D01*
X61608Y29385D01*
X61677Y29410D01*
X61739Y29443D01*
X61794Y29479D01*
X61834Y29516D01*
X61867Y29548D01*
X61885Y29574D01*
X61892Y29578D01*
Y29581D01*
X61918Y29625D01*
X61939Y29676D01*
X61961Y29734D01*
X61976Y29796D01*
X61990Y29862D01*
X62001Y29931D01*
X62019Y30073D01*
X62027Y30138D01*
X62030Y30200D01*
X62034Y30258D01*
Y30306D01*
X62038Y30349D01*
Y30382D01*
Y30400D01*
Y30408D01*
X62034Y30520D01*
X62030Y30622D01*
X62023Y30717D01*
X62012Y30804D01*
X62001Y30881D01*
X61987Y30950D01*
X61972Y31012D01*
X61958Y31066D01*
X61943Y31114D01*
X61932Y31154D01*
X61918Y31187D01*
X61907Y31216D01*
X61896Y31234D01*
X61888Y31248D01*
X61881Y31256D01*
Y31259D01*
X61856Y31292D01*
X61830Y31321D01*
X61801Y31343D01*
X61772Y31365D01*
X61714Y31398D01*
X61659Y31420D01*
X61612Y31430D01*
X61572Y31438D01*
X61557Y31441D01*
D02*
G37*
G36*
X58620D02*
X58598D01*
X58558Y31438D01*
X58518Y31434D01*
X58481Y31423D01*
X58449Y31409D01*
X58387Y31376D01*
X58332Y31339D01*
X58292Y31299D01*
X58259Y31267D01*
X58249Y31252D01*
X58241Y31241D01*
X58234Y31238D01*
Y31234D01*
X58208Y31190D01*
X58187Y31139D01*
X58165Y31081D01*
X58150Y31019D01*
X58136Y30954D01*
X58125Y30884D01*
X58106Y30746D01*
X58099Y30677D01*
X58096Y30615D01*
X58092Y30557D01*
Y30509D01*
X58088Y30466D01*
Y30433D01*
Y30415D01*
Y30411D01*
Y30408D01*
Y30295D01*
X58096Y30193D01*
X58103Y30102D01*
X58110Y30014D01*
X58121Y29942D01*
X58136Y29873D01*
X58150Y29814D01*
X58161Y29760D01*
X58176Y29716D01*
X58190Y29680D01*
X58201Y29647D01*
X58216Y29621D01*
X58223Y29603D01*
X58230Y29592D01*
X58237Y29585D01*
Y29581D01*
X58267Y29545D01*
X58296Y29516D01*
X58325Y29487D01*
X58354Y29465D01*
X58416Y29428D01*
X58470Y29403D01*
X58521Y29388D01*
X58558Y29381D01*
X58572Y29377D01*
X58594D01*
X58634Y29381D01*
X58671Y29385D01*
X58740Y29410D01*
X58802Y29443D01*
X58856Y29479D01*
X58896Y29516D01*
X58929Y29548D01*
X58947Y29574D01*
X58955Y29578D01*
Y29581D01*
X58980Y29625D01*
X59002Y29676D01*
X59024Y29734D01*
X59038Y29796D01*
X59053Y29862D01*
X59064Y29931D01*
X59082Y30073D01*
X59089Y30138D01*
X59093Y30200D01*
X59097Y30258D01*
Y30306D01*
X59100Y30349D01*
Y30382D01*
Y30400D01*
Y30408D01*
X59097Y30520D01*
X59093Y30622D01*
X59086Y30717D01*
X59075Y30804D01*
X59064Y30881D01*
X59049Y30950D01*
X59035Y31012D01*
X59020Y31066D01*
X59006Y31114D01*
X58995Y31154D01*
X58980Y31187D01*
X58969Y31216D01*
X58958Y31234D01*
X58951Y31248D01*
X58944Y31256D01*
Y31259D01*
X58918Y31292D01*
X58893Y31321D01*
X58864Y31343D01*
X58834Y31365D01*
X58776Y31398D01*
X58722Y31420D01*
X58674Y31430D01*
X58634Y31438D01*
X58620Y31441D01*
D02*
G37*
G36*
X32547Y35411D02*
X32544D01*
X32547Y35295D01*
X32551Y35222D01*
X32555Y35160D01*
X32562Y35109D01*
X32573Y35065D01*
X32584Y35033D01*
X32591Y35007D01*
X32595Y34993D01*
X32598Y34989D01*
X32627Y34942D01*
X32657Y34898D01*
X32693Y34861D01*
X32726Y34832D01*
X32755Y34807D01*
X32780Y34789D01*
X32795Y34778D01*
X32802Y34774D01*
X32857Y34749D01*
X32912Y34730D01*
X32962Y34716D01*
X33013Y34709D01*
X33053Y34701D01*
X33090Y34698D01*
X33119D01*
X33184Y34701D01*
X33239Y34709D01*
X33286Y34723D01*
X33326Y34738D01*
X33356Y34752D01*
X33377Y34767D01*
X33392Y34774D01*
X33396Y34778D01*
X33425Y34811D01*
X33446Y34847D01*
X33465Y34880D01*
X33476Y34912D01*
X33483Y34942D01*
X33487Y34963D01*
Y34982D01*
Y34985D01*
X33483Y35014D01*
X33479Y35043D01*
X33472Y35065D01*
X33465Y35087D01*
X33457Y35105D01*
X33454Y35120D01*
X33446Y35127D01*
Y35131D01*
X33410Y35175D01*
X33366Y35204D01*
X33352Y35215D01*
X33337Y35222D01*
X33326Y35229D01*
X33323D01*
X33286Y35244D01*
X33246Y35255D01*
X33203Y35266D01*
X33159Y35273D01*
X33119Y35280D01*
X33083Y35287D01*
X33061Y35291D01*
X33053D01*
X32991Y35302D01*
X32933Y35309D01*
X32882Y35320D01*
X32831Y35331D01*
X32784Y35342D01*
X32744Y35353D01*
X32704Y35360D01*
X32671Y35371D01*
X32642Y35378D01*
X32617Y35386D01*
X32595Y35393D01*
X32577Y35400D01*
X32562Y35404D01*
X32551Y35408D01*
X32547Y35411D01*
D02*
G37*
G36*
X47078Y36106D02*
X47056D01*
X47013Y36103D01*
X46973Y36099D01*
X46896Y36077D01*
X46831Y36048D01*
X46776Y36015D01*
X46733Y35983D01*
X46700Y35954D01*
X46682Y35932D01*
X46674Y35928D01*
Y35924D01*
X46641Y35877D01*
X46612Y35822D01*
X46594Y35768D01*
X46576Y35710D01*
X46565Y35662D01*
X46558Y35619D01*
Y35604D01*
X46554Y35593D01*
Y35586D01*
Y35582D01*
X47577D01*
X47566Y35666D01*
X47544Y35742D01*
X47519Y35808D01*
X47490Y35859D01*
X47464Y35903D01*
X47439Y35935D01*
X47424Y35954D01*
X47417Y35961D01*
X47359Y36008D01*
X47300Y36044D01*
X47238Y36070D01*
X47180Y36088D01*
X47133Y36099D01*
X47093Y36103D01*
X47078Y36106D01*
D02*
G37*
G36*
X37658Y36714D02*
X37061D01*
X36981Y36707D01*
X36919Y36703D01*
X36865Y36696D01*
X36825Y36689D01*
X36799Y36685D01*
X36781Y36678D01*
X36777D01*
X36737Y36663D01*
X36701Y36641D01*
X36672Y36620D01*
X36646Y36598D01*
X36628Y36580D01*
X36613Y36561D01*
X36606Y36551D01*
X36602Y36547D01*
X36581Y36510D01*
X36566Y36474D01*
X36555Y36438D01*
X36548Y36401D01*
X36544Y36372D01*
X36540Y36350D01*
Y36336D01*
Y36328D01*
X36544Y36281D01*
X36551Y36237D01*
X36562Y36201D01*
X36573Y36172D01*
X36584Y36146D01*
X36595Y36125D01*
X36602Y36114D01*
X36606Y36110D01*
X36632Y36081D01*
X36664Y36052D01*
X36697Y36030D01*
X36726Y36015D01*
X36755Y36001D01*
X36777Y35990D01*
X36792Y35986D01*
X36799Y35983D01*
X36839Y35975D01*
X36890Y35968D01*
X36941Y35964D01*
X36992Y35961D01*
X37039Y35957D01*
X37658D01*
Y36714D01*
D02*
G37*
G36*
Y35659D02*
X36996D01*
X36919Y35651D01*
X36857Y35644D01*
X36806Y35637D01*
X36766Y35630D01*
X36733Y35622D01*
X36719Y35619D01*
X36712Y35615D01*
X36664Y35597D01*
X36624Y35575D01*
X36588Y35550D01*
X36559Y35524D01*
X36537Y35502D01*
X36522Y35484D01*
X36511Y35469D01*
X36508Y35466D01*
X36482Y35426D01*
X36464Y35386D01*
X36450Y35346D01*
X36442Y35309D01*
X36435Y35276D01*
X36431Y35247D01*
Y35233D01*
Y35225D01*
X36435Y35182D01*
X36439Y35138D01*
X36446Y35102D01*
X36457Y35073D01*
X36468Y35047D01*
X36475Y35025D01*
X36479Y35014D01*
X36482Y35011D01*
X36504Y34978D01*
X36522Y34949D01*
X36548Y34927D01*
X36566Y34905D01*
X36584Y34891D01*
X36599Y34880D01*
X36610Y34872D01*
X36613Y34869D01*
X36675Y34840D01*
X36737Y34818D01*
X36763Y34811D01*
X36784Y34807D01*
X36799Y34803D01*
X36803D01*
X36832Y34800D01*
X36865Y34796D01*
X36941Y34792D01*
X37658D01*
Y35659D01*
D02*
G37*
G36*
X41411Y36106D02*
X41389D01*
X41345Y36103D01*
X41305Y36099D01*
X41232Y36081D01*
X41167Y36052D01*
X41112Y36019D01*
X41069Y35986D01*
X41036Y35961D01*
X41014Y35939D01*
X41007Y35935D01*
Y35932D01*
X40978Y35899D01*
X40956Y35859D01*
X40916Y35779D01*
X40887Y35691D01*
X40868Y35611D01*
X40858Y35535D01*
X40854Y35502D01*
Y35473D01*
X40850Y35451D01*
Y35433D01*
Y35422D01*
Y35418D01*
Y35353D01*
X40858Y35291D01*
X40865Y35236D01*
X40876Y35182D01*
X40887Y35135D01*
X40901Y35091D01*
X40912Y35051D01*
X40927Y35014D01*
X40941Y34985D01*
X40956Y34956D01*
X40970Y34934D01*
X40981Y34916D01*
X40992Y34902D01*
X40999Y34891D01*
X41003Y34887D01*
X41007Y34883D01*
X41036Y34854D01*
X41069Y34825D01*
X41131Y34782D01*
X41196Y34752D01*
X41254Y34730D01*
X41309Y34720D01*
X41349Y34712D01*
X41367Y34709D01*
X41389D01*
X41433Y34712D01*
X41473Y34716D01*
X41549Y34734D01*
X41615Y34763D01*
X41669Y34796D01*
X41713Y34825D01*
X41746Y34854D01*
X41768Y34872D01*
X41771Y34880D01*
X41775D01*
X41800Y34916D01*
X41826Y34953D01*
X41862Y35036D01*
X41891Y35124D01*
X41910Y35211D01*
X41920Y35287D01*
X41924Y35320D01*
Y35349D01*
X41928Y35375D01*
Y35393D01*
Y35404D01*
Y35408D01*
X41924Y35469D01*
X41920Y35531D01*
X41913Y35586D01*
X41902Y35637D01*
X41891Y35684D01*
X41880Y35728D01*
X41866Y35764D01*
X41851Y35801D01*
X41837Y35830D01*
X41822Y35859D01*
X41811Y35881D01*
X41800Y35899D01*
X41789Y35914D01*
X41782Y35924D01*
X41775Y35928D01*
Y35932D01*
X41746Y35961D01*
X41713Y35990D01*
X41651Y36034D01*
X41586Y36063D01*
X41524Y36085D01*
X41469Y36099D01*
X41429Y36103D01*
X41411Y36106D01*
D02*
G37*
G36*
X34953Y36106D02*
X34932D01*
X34888Y36103D01*
X34848Y36099D01*
X34775Y36081D01*
X34710Y36052D01*
X34655Y36019D01*
X34611Y35986D01*
X34579Y35961D01*
X34557Y35939D01*
X34549Y35935D01*
Y35932D01*
X34520Y35899D01*
X34499Y35859D01*
X34458Y35779D01*
X34429Y35691D01*
X34411Y35611D01*
X34400Y35535D01*
X34397Y35502D01*
Y35473D01*
X34393Y35451D01*
Y35433D01*
Y35422D01*
Y35418D01*
Y35353D01*
X34400Y35291D01*
X34407Y35236D01*
X34418Y35182D01*
X34429Y35135D01*
X34444Y35091D01*
X34455Y35051D01*
X34469Y35014D01*
X34484Y34985D01*
X34499Y34956D01*
X34513Y34934D01*
X34524Y34916D01*
X34535Y34902D01*
X34542Y34891D01*
X34546Y34887D01*
X34549Y34883D01*
X34579Y34854D01*
X34611Y34825D01*
X34673Y34781D01*
X34739Y34752D01*
X34797Y34730D01*
X34852Y34720D01*
X34892Y34712D01*
X34910Y34709D01*
X34932D01*
X34975Y34712D01*
X35015Y34716D01*
X35092Y34734D01*
X35157Y34763D01*
X35212Y34796D01*
X35256Y34825D01*
X35288Y34854D01*
X35310Y34872D01*
X35314Y34880D01*
X35318D01*
X35343Y34916D01*
X35368Y34953D01*
X35405Y35036D01*
X35434Y35124D01*
X35452Y35211D01*
X35463Y35287D01*
X35467Y35320D01*
Y35349D01*
X35470Y35375D01*
Y35393D01*
Y35404D01*
Y35408D01*
X35467Y35469D01*
X35463Y35531D01*
X35456Y35586D01*
X35445Y35637D01*
X35434Y35684D01*
X35423Y35728D01*
X35408Y35764D01*
X35394Y35801D01*
X35379Y35830D01*
X35365Y35859D01*
X35354Y35881D01*
X35343Y35899D01*
X35332Y35914D01*
X35325Y35924D01*
X35318Y35928D01*
Y35932D01*
X35288Y35961D01*
X35256Y35990D01*
X35194Y36034D01*
X35128Y36063D01*
X35066Y36085D01*
X35012Y36099D01*
X34972Y36103D01*
X34953Y36106D01*
D02*
G37*
G36*
X29916D02*
X29897D01*
X29858Y36103D01*
X29821Y36099D01*
X29752Y36077D01*
X29690Y36052D01*
X29639Y36019D01*
X29599Y35986D01*
X29566Y35957D01*
X29548Y35935D01*
X29541Y35932D01*
Y35928D01*
X29515Y35892D01*
X29493Y35855D01*
X29457Y35768D01*
X29432Y35677D01*
X29413Y35590D01*
X29406Y35546D01*
X29403Y35506D01*
X29399Y35469D01*
Y35440D01*
X29395Y35415D01*
Y35397D01*
Y35382D01*
Y35378D01*
Y35317D01*
X29403Y35258D01*
X29410Y35207D01*
X29417Y35156D01*
X29428Y35113D01*
X29443Y35069D01*
X29453Y35033D01*
X29468Y35000D01*
X29483Y34971D01*
X29493Y34942D01*
X29508Y34923D01*
X29519Y34905D01*
X29526Y34891D01*
X29533Y34880D01*
X29541Y34876D01*
Y34872D01*
X29566Y34843D01*
X29595Y34818D01*
X29654Y34778D01*
X29712Y34749D01*
X29766Y34730D01*
X29814Y34716D01*
X29854Y34712D01*
X29868Y34709D01*
X29887D01*
X29923Y34712D01*
X29959Y34716D01*
X30025Y34734D01*
X30087Y34763D01*
X30138Y34796D01*
X30178Y34825D01*
X30211Y34854D01*
X30229Y34872D01*
X30232Y34880D01*
X30236D01*
X30261Y34916D01*
X30283Y34953D01*
X30320Y35036D01*
X30345Y35124D01*
X30364Y35207D01*
X30374Y35284D01*
X30378Y35317D01*
Y35346D01*
X30382Y35371D01*
Y35389D01*
Y35400D01*
Y35404D01*
Y35469D01*
X30374Y35531D01*
X30367Y35590D01*
X30360Y35640D01*
X30349Y35688D01*
X30338Y35732D01*
X30327Y35772D01*
X30312Y35808D01*
X30298Y35837D01*
X30287Y35862D01*
X30276Y35884D01*
X30265Y35903D01*
X30254Y35917D01*
X30251Y35928D01*
X30243Y35932D01*
Y35935D01*
X30218Y35964D01*
X30189Y35994D01*
X30130Y36034D01*
X30072Y36066D01*
X30018Y36085D01*
X29970Y36099D01*
X29930Y36103D01*
X29916Y36106D01*
D02*
G37*
G36*
X56299Y36769D02*
X56277D01*
X56237Y36765D01*
X56196Y36762D01*
X56160Y36751D01*
X56127Y36736D01*
X56065Y36703D01*
X56011Y36667D01*
X55971Y36627D01*
X55938Y36594D01*
X55927Y36580D01*
X55920Y36569D01*
X55913Y36565D01*
Y36561D01*
X55887Y36518D01*
X55865Y36467D01*
X55843Y36408D01*
X55829Y36347D01*
X55814Y36281D01*
X55803Y36212D01*
X55785Y36074D01*
X55778Y36004D01*
X55774Y35943D01*
X55771Y35884D01*
Y35837D01*
X55767Y35793D01*
Y35761D01*
Y35742D01*
Y35739D01*
Y35735D01*
Y35622D01*
X55774Y35520D01*
X55782Y35429D01*
X55789Y35342D01*
X55800Y35269D01*
X55814Y35200D01*
X55829Y35142D01*
X55840Y35087D01*
X55854Y35043D01*
X55869Y35007D01*
X55880Y34974D01*
X55894Y34949D01*
X55902Y34931D01*
X55909Y34920D01*
X55916Y34912D01*
Y34909D01*
X55945Y34872D01*
X55975Y34843D01*
X56004Y34814D01*
X56033Y34792D01*
X56095Y34756D01*
X56149Y34730D01*
X56200Y34716D01*
X56237Y34709D01*
X56251Y34705D01*
X56273D01*
X56313Y34709D01*
X56349Y34712D01*
X56419Y34738D01*
X56480Y34771D01*
X56535Y34807D01*
X56575Y34843D01*
X56608Y34876D01*
X56626Y34902D01*
X56633Y34905D01*
Y34909D01*
X56659Y34953D01*
X56681Y35004D01*
X56703Y35062D01*
X56717Y35124D01*
X56732Y35189D01*
X56743Y35258D01*
X56761Y35400D01*
X56768Y35466D01*
X56772Y35528D01*
X56775Y35586D01*
Y35633D01*
X56779Y35677D01*
Y35710D01*
Y35728D01*
Y35735D01*
X56775Y35848D01*
X56772Y35950D01*
X56764Y36044D01*
X56753Y36132D01*
X56743Y36208D01*
X56728Y36277D01*
X56713Y36339D01*
X56699Y36394D01*
X56684Y36441D01*
X56673Y36481D01*
X56659Y36514D01*
X56648Y36543D01*
X56637Y36561D01*
X56630Y36576D01*
X56622Y36583D01*
Y36587D01*
X56597Y36620D01*
X56572Y36649D01*
X56542Y36671D01*
X56513Y36693D01*
X56455Y36725D01*
X56400Y36747D01*
X56353Y36758D01*
X56313Y36765D01*
X56299Y36769D01*
D02*
G37*
%LPD*%
M02*
